<?xml version="1.0" encoding="iso-8859-1"?>
<!-- Generator: Adobe Illustrator 19.0.0, SVG Export Plug-In . SVG Version: 6.00 Build 0)  -->
<svg version="1.1" id="Capa_1" xmlns="http://www.w3.org/2000/svg" xmlns:xlink="http://www.w3.org/1999/xlink" x="0px" y="0px"
	 viewBox="0 0 512 512" style="enable-background:new 0 0 512 512;" xml:space="preserve">
<g>
	<path style="fill:#F9615D;" d="M255.999,212.643L255.999,212.643c-6.271,0-11.354-5.083-11.354-11.354V11.737
		c0-6.271,5.083-11.354,11.354-11.354l0,0c6.271,0,11.354,5.083,11.354,11.354v189.552
		C267.353,207.56,262.27,212.643,255.999,212.643z"/>
	<path style="fill:#F9615D;" d="M255.999,512L255.999,512c-6.271,0-11.354-5.083-11.354-11.354V311.094
		c0-6.271,5.083-11.354,11.354-11.354l0,0c6.271,0,11.354,5.083,11.354,11.354v189.552C267.353,506.917,262.27,512,255.999,512z"/>
	<path style="fill:#F9615D;" d="M299.548,256.192L299.548,256.192c0-6.271,5.083-11.354,11.354-11.354h189.552
		c6.271,0,11.354,5.083,11.354,11.354l0,0c0,6.271-5.083,11.354-11.354,11.354H310.902
		C304.631,267.545,299.548,262.462,299.548,256.192z"/>
	<path style="fill:#F9615D;" d="M0.191,256.192L0.191,256.192c0-6.271,5.083-11.354,11.354-11.354h189.552
		c6.271,0,11.354,5.083,11.354,11.354l0,0c0,6.271-5.083,11.354-11.354,11.354H11.544C5.274,267.545,0.191,262.462,0.191,256.192z"
		/>
</g>
<g>
	<path style="fill:#F9BA3D;" d="M309.319,209.24c-1.976,0-3.952-0.754-5.459-2.261c-3.015-3.016-3.015-7.904,0-10.919l71.087-71.087
		c3.015-3.014,7.904-3.014,10.918,0c3.015,3.016,3.015,7.904,0,10.919l-71.087,71.087
		C313.271,208.486,311.295,209.24,309.319,209.24z"/>
	<path style="fill:#F9BA3D;" d="M131.593,386.966c-1.976,0-3.952-0.754-5.459-2.261c-3.015-3.016-3.015-7.904,0-10.919
		l71.087-71.088c3.015-3.014,7.904-3.014,10.918,0c3.015,3.016,3.015,7.904,0,10.919l-71.087,71.088
		C135.544,386.212,133.57,386.966,131.593,386.966z"/>
	<path style="fill:#F9BA3D;" d="M380.405,386.966c-1.976,0-3.952-0.754-5.459-2.261l-71.087-71.088
		c-3.015-3.016-3.015-7.904,0-10.919c3.015-3.014,7.904-3.014,10.918,0l71.087,71.088c3.015,3.016,3.015,7.904,0,10.919
		C384.357,386.212,382.381,386.966,380.405,386.966z"/>
	<path style="fill:#F9BA3D;" d="M202.679,209.24c-1.976,0-3.952-0.754-5.459-2.261l-71.087-71.087
		c-3.015-3.016-3.015-7.904,0-10.919c3.015-3.014,7.904-3.014,10.918,0l71.087,71.087c3.015,3.016,3.015,7.904,0,10.919
		C206.632,208.486,204.656,209.24,202.679,209.24z"/>
</g>
<path style="fill:#F13D2F;" d="M208.956,161.668c-2.908,0-5.692-1.651-7.002-4.459l-12.782-27.412
	c-1.802-3.865-0.13-8.458,3.735-10.261c3.863-1.801,8.458-0.129,10.26,3.735l12.782,27.412c1.802,3.865,0.13,8.458-3.735,10.261
	C211.16,161.434,210.048,161.668,208.956,161.668z"/>
<path style="fill:#F9BA3D;" d="M182.35,104.611c-2.911,0-5.697-1.654-7.006-4.466l-0.174-0.374
	c-1.798-3.866-0.121-8.458,3.745-10.257c3.865-1.798,8.458-0.122,10.256,3.745l0.174,0.374c1.798,3.866,0.121,8.458-3.745,10.257
	C184.548,104.379,183.44,104.611,182.35,104.611z"/>
<path style="fill:#F13D2F;" d="M315.833,390.866c-2.908,0-5.692-1.651-7.002-4.459l-12.782-27.411
	c-1.802-3.865-0.13-8.458,3.735-10.26c3.863-1.804,8.457-0.13,10.26,3.734l12.782,27.411c1.802,3.865,0.13,8.458-3.735,10.26
	C318.036,390.633,316.926,390.866,315.833,390.866z"/>
<path style="fill:#F9BA3D;" d="M329.832,420.885c-2.911,0-5.697-1.654-7.006-4.466l-0.174-0.374
	c-1.798-3.866-0.121-8.458,3.745-10.257c3.867-1.796,8.458-0.122,10.256,3.745l0.174,0.374c1.798,3.866,0.121,8.458-3.745,10.257
	C332.029,420.653,330.921,420.885,329.832,420.885z"/>
<path style="fill:#F13D2F;" d="M303.042,161.668c-1.093,0-2.202-0.233-3.258-0.725c-3.864-1.802-5.537-6.396-3.735-10.261
	l12.782-27.412c1.802-3.864,6.396-5.534,10.26-3.735c3.864,1.802,5.537,6.396,3.735,10.261l-12.782,27.412
	C308.734,160.017,305.95,161.668,303.042,161.668z"/>
<path style="fill:#F9BA3D;" d="M329.648,104.611c-1.09,0-2.197-0.232-3.251-0.722c-3.866-1.798-5.543-6.391-3.745-10.257
	l0.174-0.374c1.798-3.866,6.388-5.542,10.256-3.745c3.866,1.798,5.543,6.391,3.745,10.257l-0.174,0.374
	C335.345,102.957,332.558,104.611,329.648,104.611z"/>
<path style="fill:#F13D2F;" d="M196.165,390.866c-1.093,0-2.202-0.233-3.258-0.726c-3.865-1.801-5.537-6.395-3.735-10.26
	l12.782-27.411c1.801-3.864,6.396-5.537,10.26-3.734c3.865,1.801,5.537,6.395,3.735,10.26l-12.782,27.411
	C201.857,389.216,199.072,390.866,196.165,390.866z"/>
<path style="fill:#F9BA3D;" d="M182.167,420.885c-1.09,0-2.197-0.232-3.251-0.722c-3.866-1.798-5.543-6.391-3.745-10.257
	l0.174-0.374c1.798-3.866,6.389-5.542,10.256-3.745c3.866,1.798,5.543,6.391,3.745,10.257l-0.174,0.374
	C187.865,419.231,185.077,420.885,182.167,420.885z"/>
<path style="fill:#F13D2F;" d="M356.898,215.514c-2.908,0-5.692-1.651-7.002-4.459c-1.802-3.864-0.13-8.458,3.735-10.26
	l27.412-12.782c3.863-1.805,8.457-0.131,10.26,3.734c1.802,3.864,0.13,8.458-3.735,10.26l-27.412,12.782
	C359.1,215.28,357.99,215.514,356.898,215.514z"/>
<path style="fill:#F9BA3D;" d="M413.954,188.908c-2.904,0-5.686-1.647-6.998-4.451c-1.806-3.862-0.14-8.458,3.722-10.265
	l0.374-0.175c3.863-1.806,8.458-0.141,10.264,3.723c1.806,3.862,0.14,8.458-3.722,10.265l-0.374,0.175
	C416.162,188.674,415.049,188.908,413.954,188.908z"/>
<path style="fill:#F13D2F;" d="M127.699,322.39c-2.908,0-5.692-1.651-7.002-4.459c-1.802-3.864-0.13-8.458,3.735-10.26
	l27.412-12.782c3.863-1.804,8.458-0.131,10.26,3.734c1.802,3.864,0.13,8.458-3.735,10.26l-27.412,12.782
	C129.901,322.157,128.792,322.39,127.699,322.39z"/>
<path style="fill:#F9BA3D;" d="M97.68,336.389c-2.904,0-5.686-1.647-6.998-4.451c-1.806-3.862-0.14-8.458,3.722-10.265l0.374-0.175
	c3.863-1.806,8.457-0.14,10.264,3.723c1.806,3.862,0.14,8.458-3.722,10.265l-0.374,0.175
	C99.888,336.155,98.775,336.389,97.68,336.389z"/>
<path style="fill:#F13D2F;" d="M384.299,322.39c-1.093,0-2.202-0.233-3.258-0.726l-27.412-12.782
	c-3.865-1.801-5.537-6.396-3.735-10.26s6.397-5.537,10.26-3.734l27.412,12.782c3.865,1.801,5.537,6.396,3.735,10.26
	C389.992,320.74,387.207,322.39,384.299,322.39z"/>
<path style="fill:#F9BA3D;" d="M414.318,336.389c-1.096,0-2.208-0.234-3.266-0.729l-0.374-0.175
	c-3.862-1.806-5.529-6.403-3.722-10.265c1.806-3.861,6.403-5.528,10.264-3.723l0.374,0.175c3.862,1.806,5.529,6.403,3.722,10.265
	C420.005,334.741,417.222,336.389,414.318,336.389z"/>
<path style="fill:#F13D2F;" d="M155.1,215.514c-1.093,0-2.202-0.233-3.258-0.726l-27.412-12.782
	c-3.865-1.801-5.537-6.396-3.735-10.26s6.395-5.537,10.26-3.734l27.412,12.782c3.865,1.801,5.537,6.396,3.735,10.26
	C160.794,213.863,158.008,215.514,155.1,215.514z"/>
<g>
	<path style="fill:#F9BA3D;" d="M98.044,188.908c-1.096,0-2.208-0.234-3.266-0.729l-0.374-0.175
		c-3.862-1.806-5.529-6.403-3.722-10.265c1.806-3.861,6.402-5.528,10.264-3.723l0.374,0.175c3.862,1.806,5.529,6.403,3.722,10.265
		C103.731,187.26,100.948,188.908,98.044,188.908z"/>
	<circle style="fill:#F9BA3D;" cx="255.999" cy="254.84" r="19.399"/>
</g>
<g>
	<path style="fill:#50D2DF;" d="M474.277,338.914c-4.264,0-7.721-3.456-7.721-7.721v-4.481c0-4.264,3.457-7.721,7.721-7.721
		s7.721,3.456,7.721,7.721v4.481C481.997,335.458,478.541,338.914,474.277,338.914z"/>
	<path style="fill:#50D2DF;" d="M474.277,374.462c-4.264,0-7.721-3.456-7.721-7.721v-4.481c0-4.264,3.457-7.721,7.721-7.721
		s7.721,3.456,7.721,7.721v4.481C481.997,371.006,478.541,374.462,474.277,374.462z"/>
	<path style="fill:#50D2DF;" d="M494.291,354.448h-4.481c-4.264,0-7.721-3.456-7.721-7.721s3.457-7.721,7.721-7.721h4.481
		c4.264,0,7.721,3.456,7.721,7.721S498.555,354.448,494.291,354.448z"/>
	<path style="fill:#50D2DF;" d="M458.743,354.448h-4.481c-4.264,0-7.721-3.456-7.721-7.721s3.457-7.721,7.721-7.721h4.481
		c4.264,0,7.721,3.456,7.721,7.721S463.007,354.448,458.743,354.448z"/>
</g>
<g>
	<path style="fill:#F13D2F;" d="M176.958,466.495c-4.264,0-7.721-3.456-7.721-7.721v-4.481c0-4.264,3.457-7.721,7.721-7.721
		s7.721,3.456,7.721,7.721v4.481C184.679,463.039,181.223,466.495,176.958,466.495z"/>
	<path style="fill:#F13D2F;" d="M176.958,502.043c-4.264,0-7.721-3.456-7.721-7.721v-4.481c0-4.264,3.457-7.721,7.721-7.721
		s7.721,3.456,7.721,7.721v4.481C184.679,498.586,181.223,502.043,176.958,502.043z"/>
	<path style="fill:#F13D2F;" d="M196.973,482.028h-4.481c-4.264,0-7.721-3.456-7.721-7.721s3.457-7.721,7.721-7.721h4.481
		c4.264,0,7.721,3.456,7.721,7.721S201.236,482.028,196.973,482.028z"/>
	<path style="fill:#F13D2F;" d="M161.425,482.028h-4.481c-4.264,0-7.721-3.456-7.721-7.721s3.457-7.721,7.721-7.721h4.481
		c4.264,0,7.721,3.456,7.721,7.721S165.689,482.028,161.425,482.028z"/>
	<path style="fill:#F13D2F;" d="M155.105,19.923c-4.264,0-7.721-3.456-7.721-7.721V7.721c0-4.264,3.457-7.721,7.721-7.721
		s7.721,3.456,7.721,7.721v4.482C162.826,16.467,159.369,19.923,155.105,19.923z"/>
	<path style="fill:#F13D2F;" d="M155.105,55.471c-4.264,0-7.721-3.456-7.721-7.721v-4.482c0-4.264,3.457-7.721,7.721-7.721
		s7.721,3.456,7.721,7.721v4.482C162.826,52.014,159.369,55.471,155.105,55.471z"/>
	<path style="fill:#F13D2F;" d="M175.119,35.455h-4.481c-4.264,0-7.721-3.456-7.721-7.721s3.457-7.721,7.721-7.721h4.481
		c4.264,0,7.721,3.456,7.721,7.721S179.383,35.455,175.119,35.455z"/>
	<path style="fill:#F13D2F;" d="M139.572,35.455h-4.481c-4.264,0-7.721-3.456-7.721-7.721s3.457-7.721,7.721-7.721h4.481
		c4.264,0,7.721,3.456,7.721,7.721S143.835,35.455,139.572,35.455z"/>
	<path style="fill:#F13D2F;" d="M41.636,174.825c-4.264,0-7.721-3.456-7.721-7.721v-4.481c0-4.264,3.457-7.721,7.721-7.721
		s7.721,3.456,7.721,7.721v4.481C49.357,171.369,45.9,174.825,41.636,174.825z"/>
	<path style="fill:#F13D2F;" d="M41.636,210.373c-4.264,0-7.721-3.456-7.721-7.721v-4.481c0-4.264,3.457-7.721,7.721-7.721
		s7.721,3.456,7.721,7.721v4.481C49.357,206.917,45.9,210.373,41.636,210.373z"/>
	<path style="fill:#F13D2F;" d="M61.651,190.358h-4.482c-4.264,0-7.721-3.456-7.721-7.721c0-4.264,3.457-7.721,7.721-7.721h4.481
		c4.264,0,7.721,3.456,7.721,7.721C69.371,186.902,65.914,190.358,61.651,190.358z"/>
	<path style="fill:#F13D2F;" d="M26.103,190.358h-4.481c-4.264,0-7.721-3.456-7.721-7.721c0-4.264,3.457-7.721,7.721-7.721h4.481
		c4.264,0,7.721,3.456,7.721,7.721C33.823,186.902,30.367,190.358,26.103,190.358z"/>
	<path style="fill:#F13D2F;" d="M403.732,410.597c-4.264,0-7.721-3.456-7.721-7.721v-4.481c0-4.264,3.457-7.721,7.721-7.721
		s7.721,3.456,7.721,7.721v4.481C411.453,407.141,407.996,410.597,403.732,410.597z"/>
	<path style="fill:#F13D2F;" d="M403.732,446.145c-4.264,0-7.721-3.456-7.721-7.721v-4.481c0-4.264,3.457-7.721,7.721-7.721
		s7.721,3.456,7.721,7.721v4.481C411.453,442.689,407.996,446.145,403.732,446.145z"/>
	<path style="fill:#F13D2F;" d="M423.747,426.131h-4.481c-4.264,0-7.721-3.456-7.721-7.721c0-4.264,3.457-7.721,7.721-7.721h4.481
		c4.264,0,7.721,3.456,7.721,7.721C431.467,422.675,428.011,426.131,423.747,426.131z"/>
	<path style="fill:#F13D2F;" d="M388.199,426.131h-4.481c-4.264,0-7.721-3.456-7.721-7.721c0-4.264,3.457-7.721,7.721-7.721h4.481
		c4.264,0,7.721,3.456,7.721,7.721C395.919,422.675,392.463,426.131,388.199,426.131z"/>
</g>
<g>
	<path style="fill:#F9BA3D;" d="M425.692,80.885c-4.264,0-7.721-3.456-7.721-7.721v-4.481c0-4.264,3.457-7.721,7.721-7.721
		s7.721,3.456,7.721,7.721v4.481C433.412,77.429,429.956,80.885,425.692,80.885z"/>
	<path style="fill:#F9BA3D;" d="M425.692,116.433c-4.264,0-7.721-3.456-7.721-7.721v-4.481c0-4.264,3.457-7.721,7.721-7.721
		s7.721,3.456,7.721,7.721v4.481C433.412,112.977,429.956,116.433,425.692,116.433z"/>
	<path style="fill:#F9BA3D;" d="M445.706,96.419h-4.481c-4.264,0-7.721-3.456-7.721-7.721c0-4.264,3.457-7.721,7.721-7.721h4.481
		c4.264,0,7.721,3.456,7.721,7.721S449.97,96.419,445.706,96.419z"/>
	<path style="fill:#F9BA3D;" d="M410.158,96.419h-4.481c-4.264,0-7.721-3.456-7.721-7.721c0-4.264,3.457-7.721,7.721-7.721h4.481
		c4.264,0,7.721,3.456,7.721,7.721S414.422,96.419,410.158,96.419z"/>
	<path style="fill:#F9BA3D;" d="M117.182,91.476c-4.264,0-7.721-3.456-7.721-7.721v-0.412c0-4.264,3.457-7.721,7.721-7.721
		s7.721,3.456,7.721,7.721v0.412C124.902,88.02,121.446,91.476,117.182,91.476z"/>
	<path style="fill:#F9BA3D;" d="M54.403,98.842c-4.264,0-7.721-3.456-7.721-7.721V90.71c0-4.264,3.457-7.721,7.721-7.721
		s7.721,3.456,7.721,7.721v0.412C62.124,95.386,58.667,98.842,54.403,98.842z"/>
</g>
<g>
	<path style="fill:#F13D2F;" d="M124.72,437.11c-4.264,0-7.721-3.456-7.721-7.721v-0.413c0-4.264,3.457-7.721,7.721-7.721
		c4.264,0,7.721,3.456,7.721,7.721v0.413C132.441,433.654,128.984,437.11,124.72,437.11z"/>
	<path style="fill:#F13D2F;" d="M48.566,327.148c-4.264,0-7.721-3.456-7.721-7.721v-0.412c0-4.264,3.457-7.721,7.721-7.721
		s7.721,3.456,7.721,7.721v0.412C56.287,323.692,52.83,327.148,48.566,327.148z"/>
	<path style="fill:#F13D2F;" d="M367.85,35.662c-4.264,0-7.721-3.456-7.721-7.721v-0.413c0-4.264,3.457-7.721,7.721-7.721
		s7.721,3.456,7.721,7.721v0.413C375.571,32.206,372.114,35.662,367.85,35.662z"/>
</g>
<path style="fill:#F9BA3D;" d="M82.739,444.111c-4.264,0-7.721-3.456-7.721-7.721v-0.412c0-4.264,3.457-7.721,7.721-7.721
	s7.721,3.456,7.721,7.721v0.412C90.459,440.655,87.003,444.111,82.739,444.111z"/>
<g>
	<path style="fill:#50D2DF;" d="M464.149,439.54c-4.264,0-7.721-3.456-7.721-7.721v-0.412c0-4.264,3.457-7.721,7.721-7.721
		s7.721,3.456,7.721,7.721v0.412C471.869,436.084,468.412,439.54,464.149,439.54z"/>
	<path style="fill:#50D2DF;" d="M445.706,154.734c-4.264,0-7.721-3.456-7.721-7.721v-0.412c0-4.264,3.457-7.721,7.721-7.721
		s7.721,3.456,7.721,7.721v0.412C453.427,151.278,449.97,154.734,445.706,154.734z"/>
</g>
<g>
</g>
<g>
</g>
<g>
</g>
<g>
</g>
<g>
</g>
<g>
</g>
<g>
</g>
<g>
</g>
<g>
</g>
<g>
</g>
<g>
</g>
<g>
</g>
<g>
</g>
<g>
</g>
<g>
</g>
</svg>
