<svg id="Capa_1" data-name="Capa 1" xmlns="http://www.w3.org/2000/svg" viewBox="0 0 512.00202 512.00195"><defs><style>.cls-1{fill:#ffcd69;}.cls-2{fill:#d5ea79;}.cls-3{fill:#ff7d97;}.cls-4{fill:#98eaf9;}.cls-5{fill:#fff;}</style></defs><title>fuegos-artificiales2</title><circle class="cls-1" cx="32" cy="193.485" r="22"/><circle class="cls-2" cx="196.89203" cy="137.854" r="22"/><circle class="cls-3" cx="384.00002" cy="32" r="22"/><path class="cls-4" d="M144.815,355.326l210.51-210.51a14.54043,14.54043,0,0,1,23.934,5.277L501.081,482.424a14.541,14.541,0,0,1-18.657,18.657L150.093,379.259A14.54025,14.54025,0,0,1,144.815,355.326Z" transform="translate(0.00001 0)"/><path class="cls-3" d="M404.682,472.583l77.742,28.498a14.541,14.541,0,0,0,18.657-18.657L472.81,405.3l-.422-.422Z" transform="translate(0.00001 0)"/><path class="cls-1" d="M419.929,268.409l-151.52,151.52,88.481,32.937,95.976-95.977Z" transform="translate(0.00001 0)"/><path class="cls-5" d="M356.89,452.866l95.976-95.977,19.522,47.259-68.24,68.239Z" transform="translate(0.00001 0)"/><path class="cls-5" d="M218.957,402.601,402.601,218.957l17.328,49.452-151.52,151.52Z" transform="translate(0.00001 0)"/><path d="M19.75207,285.42194a10.00045,10.00045,0,0,0,13.523,4.139,136.80225,136.80225,0,0,1,149.329,13.833l-44.86,44.861a24.54006,24.54006,0,0,0,8.908,40.394l332.33,121.821a24.81942,24.81942,0,0,0,8.546,1.532,24.5863,24.5863,0,0,0,22.942-33.02L388.65,146.65a24.54145,24.54145,0,0,0-40.395-8.907L305.828,180.17a119.09546,119.09546,0,0,1-8.007-125.478,9.99986,9.99986,0,1,0-17.661-9.385,139.80571,139.80571,0,0,0,11.354,149.177l-64.381,64.381-26.387-26.387a10.00061,10.00061,0,1,0-14.143,14.143l26.387,26.387-16.157,16.157A156.82739,156.82739,0,0,0,23.891,271.899a10.00078,10.00078,0,0,0-4.139,13.523ZM284.575,417.905l133.33-133.33,24.982,68.151-90.161,90.161Zm88.849,32.569,77.05-77.05L460.8,401.593,401.593,460.8Zm48.868,17.913,46.096-46.096,23.304,63.575a4.53981,4.53981,0,0,1-5.826,5.825Zm-271.629-101.802a4.42137,4.42137,0,0,1,1.223-4.189l210.51-210.51a4.35071,4.35071,0,0,1,3.154-1.337,4.823,4.823,0,0,1,1.034.113,4.42209,4.42209,0,0,1,3.286,2.872l22.535,61.477-56.877,56.877a9.99955,9.99955,0,1,0,14.141,14.142l50.323-50.322,10.326,28.169-146.44,146.44-28.169-10.326,50.322-50.323a9.9999,9.9999,0,1,0-14.143-14.141l-56.877,56.878L153.534,369.87a4.41868,4.41868,0,0,1-2.871-3.285Z" transform="translate(0.00001 0)"/><path d="M220.405,69.804a35.22836,35.22836,0,0,0-35.189-35.188,15.20544,15.20544,0,0,1-15.188-15.188,10,10,0,1,0-20,0,35.22813,35.22813,0,0,0,35.188,35.188,15.20565,15.20565,0,0,1,15.189,15.188,10,10,0,0,0,20,0Z" transform="translate(0.00001 0)"/><path d="M131.683,164.195a10.00044,10.00044,0,0,0-10-10,16.36031,16.36031,0,0,1-16.342-16.341A36.3828,36.3828,0,0,0,69,101.513a10,10,0,0,0,0,20,16.35946,16.35946,0,0,1,16.341,16.341,36.383,36.383,0,0,0,36.342,36.341A10.00045,10.00045,0,0,0,131.683,164.195Z" transform="translate(0.00001 0)"/><path d="M32,161.485a32,32,0,1,0,32,32A32.03607,32.03607,0,0,0,32,161.485Zm12,32a12,12,0,1,1-12-12A12.01336,12.01336,0,0,1,44,193.485Z" transform="translate(0.00001 0)"/><path d="M228.892,137.854a32,32,0,1,0-32,32A32.03607,32.03607,0,0,0,228.892,137.854Zm-20,0a12,12,0,1,1-12-12A12.01335,12.01335,0,0,1,208.892,137.854Z" transform="translate(0.00001 0)"/><path d="M416,32a32,32,0,1,0-32,32A32.03606,32.03606,0,0,0,416,32Zm-20,0a12,12,0,1,1-12-12A12.01336,12.01336,0,0,1,396,32Z" transform="translate(0.00001 0)"/><path d="M50.07,360.485a9.99991,9.99991,0,1,0,14.142,14.142l9.428-9.428a9.99991,9.99991,0,1,0-14.143-14.141Z" transform="translate(0.00001 0)"/><path d="M2.93,407.626a10.00026,10.00026,0,1,0,14.142,14.143l9.428-9.428a10.00061,10.00061,0,0,0-14.143-14.143Z" transform="translate(0.00001 0)"/><path d="M17.072,351.058A9.9999,9.9999,0,1,0,2.93,365.2l9.428,9.428A9.99991,9.99991,0,0,0,26.5,360.486l-9.428-9.428Z" transform="translate(0.00001 0)"/><path d="M64.212,398.198A10.00026,10.00026,0,0,0,50.07,412.341l9.428,9.428A10.00027,10.00027,0,0,0,73.64,407.626l-9.428-9.428Z" transform="translate(0.00001 0)"/><path d="M26.5,26.499a10.00028,10.00028,0,0,0,0-14.142L17.072,2.929A10.00026,10.00026,0,0,0,2.929,17.071l9.428,9.428a10.00088,10.00088,0,0,0,14.143,0Z" transform="translate(0.00001 0)"/><path d="M73.641,73.639a10.00148,10.00148,0,0,0,0-14.143l-9.428-9.428A10.00061,10.00061,0,0,0,50.07,64.211l9.428,9.428a10.00088,10.00088,0,0,0,14.143,0Z" transform="translate(0.00001 0)"/><path d="M2.93,59.497A10.00026,10.00026,0,1,0,17.072,73.64L26.5,64.212A10.00061,10.00061,0,0,0,12.357,50.069Z" transform="translate(0.00001 0)"/><path d="M73.641,17.071A10.00026,10.00026,0,0,0,59.498,2.929L50.07,12.357A9.99991,9.99991,0,1,0,64.212,26.499Z" transform="translate(0.00001 0)"/><path d="M303.711,303.71a9.99488,9.99488,0,1,0,7.07-2.93A10.07573,10.07573,0,0,0,303.711,303.71Z" transform="translate(0.00001 0)"/><path d="M164.884,196.616a10.00026,10.00026,0,0,0-14.142,14.143l7.25,7.25a10.00027,10.00027,0,0,0,14.142-14.143l-7.25-7.25Z" transform="translate(0.00001 0)"/></svg>