<?xml version="1.0" encoding="utf-8"?>
<!-- Generator: Adobe Illustrator 24.0.1, SVG Export Plug-In . SVG Version: 6.00 Build 0)  -->
<svg version="1.1" id="Layer_1" xmlns="http://www.w3.org/2000/svg" xmlns:xlink="http://www.w3.org/1999/xlink" x="0px" y="0px"
	 viewBox="0 0 709 852.3" style="enable-background:new 0 0 709 852.3;" xml:space="preserve">
<style type="text/css">
	.st0{fill:url(#SVGID_1_);}
	.st1{fill:#FE0070;}
</style>
<title>Perfil</title>
<radialGradient id="SVGID_1_" cx="305.9602" cy="381.3759" r="447.932" gradientTransform="matrix(1 0 0 -1 0 852)" gradientUnits="userSpaceOnUse">
	<stop  offset="0.4381" style="stop-color:#FFFFFF"/>
	<stop  offset="1" style="stop-color:#E6E6E6"/>
</radialGradient>
<path class="st0" d="M502.1,384.1c-5.6,3.8-11.3,7.5-17.2,10.8c3.1-1.6,6.2-3.4,9.3-5.3C496.8,387.8,499.4,385.9,502.1,384.1z"/>
<path class="st1" d="M123.9,825.6c8.1-69.6,62.7-125.8,115-172.2c65.5-58.2,150.4-116.6,173.9-206c0.1-0.1,0.1-0.1,0.1-0.2l-2.3-3.1
	c-16.2,11.9-31.9,24.1-48.3,35.2c-0.1,0-0.2,0.1-0.3,0.1c-4.3,3.1-8.8,6.2-13.2,9c-5,3.2-10.1,6.2-15.3,8.8
	c-0.1,0.1-0.3,0.1-0.4,0.2c-0.2,0.1-0.4,0.2-0.6,0.3c-22.2,11.5-46.1,18.6-70.6,24.6c-49.8,12.2-99.7,24.8-132.6,67.4
	C76.4,658.3,133,895.2,123.9,825.6z"/>
<path class="st1" d="M42.8,414.1c-0.2,0-0.5,0-0.7,0l-0.1,1.1c62.4,1.6,122.8-31.2,167-73.6c35.8-34.4,57.4-74.5,76.7-119.6
	c26.6-62.3,56.8-156.6,130.6-176.5c-61-27.6-127.1,2.7-170.3,48.7c-69.4,74.8-49.2,120.7-106.4,230.6c-19.1,36.8-50.4,88.6-97.6,89
	c-0.1,0-0.2,0.1-0.2,0.2c0,0.1,0.1,0.2,0.1,0.2C42.4,414.2,42.6,414.2,42.8,414.1z"/>
<path class="st1" d="M621.7,85.1c40.2,30.2,34.1,90.1-0.5,125.8c37.3-9,80.5-21.4,80.3-94.5C701.3,52.2,632.6,12,573.9,14.2
	c-70.4,2.6-141,50.3-184.1,103.2c-94.5,116.2-61.3,181.9-237.6,282.4c-34.1,19.4-67.6,39.1-94.2,65.2c-24.8,24.1-45,59.3-43.8,94.9
	c1.4,43,29.4,76.7,58.9,105.3c0.6,0.6,1.4-0.4,0.8-1c-0.5-0.5-1-1-1.5-1.5l0,0l1.6-1.6c0.2,0,0.3-0.1,0.3-0.3
	c-5.1-35.3,7.4-75.3,29.5-102.8c18.8-23.5,46.7-37.3,74.6-46.9c57.9-19.8,122.6-18.1,177.2-47.5c76.3-41.1,87.9-125,101.9-206.2
	c7.1-40.7,14.7-80.7,31.3-114.3C513.4,92.8,576.5,51.1,621.7,85.1z M21.3,590.7c7.6,21.7,21.4,40.5,37.1,57.5
	C42.6,631.2,28.8,612.4,21.3,590.7z"/>
<path class="st1" d="M614.7,313.5c17.9-1.8,25.6-8.3,25.6-8.3c-9-0.2-18-1-26.9-2.5c0-0.3,40.7-225.9-67.4-185
	c-18.7,7.1-60.1,47-72.4,139.8S460.6,432.7,436,479.1c-19.4,36.7-34.4,54.8-38.1,77.3c0.7-1,1.5-2,2.3-3c1.7-2.2,3.6-4.2,5.4-6.2
	c7.6-7.8,18.3-16.7,27.9-19.3c5.2-1.4,10.8-1.3,16,0.3c31.7,14.8,107.2,48.6,134.5,20.4c16.3-16.8,3.2-44.3,8.6-51.3
	c5.4-7,21.7-14.7,21.2-22.2c-0.4-7.4-20.3-12.5-18.2-15.7c2.1-3.1,34.8-5.5,30.8-16.6c-6.8-18.3-17.2-20.2-14.3-28.9
	c4.4-13.3,28.6-8.1,41.2-20.3c15.8-15.4-1.3-16.5-23-47.7C621.4,333.4,616.8,323.3,614.7,313.5z"/>
</svg>
