<svg xmlns="http://www.w3.org/2000/svg" xmlns:xlink="http://www.w3.org/1999/xlink" viewBox="0 0 3751.48583 822.69906"><defs><style>.cls-1{isolation:isolate;}.cls-2{fill:#040006;}.cls-3{fill:none;}.cls-4{fill:#fff;}.cls-5,.cls-6,.cls-8{mix-blend-mode:multiply;}.cls-5{fill:url(#Degradado_sin_nombre_6);}.cls-6{fill:url(#Degradado_sin_nombre_8);}.cls-7{fill:url(#Degradado_sin_nombre_2);}.cls-8{fill:url(#linear-gradient);}</style><linearGradient id="Degradado_sin_nombre_6" x1="338.03774" y1="-1772.59058" x2="1040.72186" y2="-1772.59058" gradientTransform="translate(1342.48651 -1145.39218) rotate(-169.83292)" gradientUnits="userSpaceOnUse"><stop offset="0" stop-color="#9c2928"/><stop offset="0.01646" stop-color="#9c2c2d"/><stop offset="0.2126" stop-color="#a04965"/><stop offset="0.30726" stop-color="#a2557b"/></linearGradient><linearGradient id="Degradado_sin_nombre_8" x1="-419.34959" y1="256.24602" x2="506.51591" y2="256.24602" gradientTransform="translate(259.73488 99.47957) rotate(-20.48443)" gradientUnits="userSpaceOnUse"><stop offset="0" stop-color="#d0c64d"/><stop offset="1" stop-color="#a54c2b"/></linearGradient><linearGradient id="Degradado_sin_nombre_2" x1="1051.86273" y1="-1569.76004" x2="1746.76831" y2="-1569.76004" gradientTransform="matrix(-0.79738, 0.60348, -0.60348, -0.79738, 672.76278, -1679.15478)" gradientUnits="userSpaceOnUse"><stop offset="0" stop-color="#4b8040"/><stop offset="0.97765" stop-color="#819b3c"/></linearGradient><linearGradient id="linear-gradient" x1="-961.41364" y1="-564.40261" x2="-198.83401" y2="-564.40261" gradientTransform="matrix(0.11447, -0.99343, 0.99343, 0.11447, 1060.59662, -202.75825)" gradientUnits="userSpaceOnUse"><stop offset="0" stop-color="#27467a"/><stop offset="0.64503" stop-color="#597ea5"/><stop offset="1" stop-color="#769ebe"/></linearGradient></defs><title>LogoMuniOriginal</title><g class="cls-1"><g id="Capa_1" data-name="Capa 1"><path class="cls-2" d="M1097.31159,339.81541V194.998l-64.336,112.02936h-10.18286L958.45678,194.998V339.81541H941.06854V163.45264h17.88534l68.80475,120.72092L1097.063,163.45264h17.63679V339.81541Z"/><path class="cls-2" d="M1195.927,342.29835q-21.11649,0-31.42234-14.0341-10.31226-14.029-10.30842-41.85374v-76.0127h16.89115v73.0301q0,43.96641,30.05659,43.9677a44.6845,44.6845,0,0,0,14.65419-2.48294,46.03814,46.03814,0,0,0,13.291-7.20538,58.22567,58.22567,0,0,0,10.9285-11.17706,56.37058,56.37058,0,0,0,7.82548-14.65675V210.39781h16.89114v107.558q0,6.95683,5.96007,6.95683v14.90274a30.83853,30.83853,0,0,1-4.84288.4971H1263.243a13.48792,13.48792,0,0,1-9.68576-4.22278q-3.72825-3.97039-3.72824-10.68252V310.50447a60.21765,60.21765,0,0,1-22.97677,23.47387A61.21888,61.21888,0,0,1,1195.927,342.29835Z"/><path class="cls-2" d="M1411.78609,339.81541H1394.895V267.531q0-23.09978-6.83128-33.53374-6.83384-10.43141-20.98837-10.434a43.04252,43.04252,0,0,0-14.9053,2.734,50.34408,50.34408,0,0,0-13.78555,7.69992,58.955,58.955,0,0,0-11.30261,11.79972,46.15645,46.15645,0,0,0-7.20282,14.77975v79.23871h-16.89114V210.39781h15.39984v29.31351a60.801,60.801,0,0,1,22.72822-22.85378,62.31143,62.31143,0,0,1,32.168-8.69412q10.67739,0,18.13389,3.97424a30.96966,30.96966,0,0,1,11.9227,11.17706,51.602,51.602,0,0,1,6.45717,17.63679,123.84264,123.84264,0,0,1,1.9884,23.10232Z"/><path class="cls-2" d="M1447.80276,183.32381V158.4842h16.89114v24.83961Zm0,156.4916V210.39781h16.89114v129.4176Z"/><path class="cls-2" d="M1493.00809,274.73379A70.79585,70.79585,0,0,1,1497.728,248.9a64.52441,64.52441,0,0,1,13.28845-21.23692,62.09267,62.09267,0,0,1,20.49383-14.28265,64.99027,64.99027,0,0,1,26.32835-5.217q18.37988,0,32.045,8.32258a53.49086,53.49086,0,0,1,20.61682,22.47967l-16.394,5.217a39.37182,39.37182,0,0,0-15.27685-15.52539,45.04666,45.04666,0,0,0-40.242-1.6143,47.21842,47.21842,0,0,0-14.90274,10.80552,49.65833,49.65833,0,0,0-9.93687,16.26848,59.8536,59.8536,0,0,0,.12555,41.23365,52.53672,52.53672,0,0,0,10.18286,16.76815,48.47467,48.47467,0,0,0,15.0283,11.17706,41.76569,41.76569,0,0,0,18.25944,4.09979,44.517,44.517,0,0,0,12.29425-1.73985,47.244,47.244,0,0,0,11.30262-4.84288,40.56465,40.56465,0,0,0,8.94267-7.07983,23.024,23.024,0,0,0,5.217-8.44557l16.64259,4.96844a42.33046,42.33046,0,0,1-7.94847,12.79135,54.73351,54.73351,0,0,1-12.29681,10.18542,60.1834,60.1834,0,0,1-15.64839,6.70572,66.61073,66.61073,0,0,1-17.76235,2.35994,62.8675,62.8675,0,0,1-46.69919-19.99417,68.00581,68.00581,0,0,1-13.537-21.488A69.88373,69.88373,0,0,1,1493.00809,274.73379Z"/><path class="cls-2" d="M1638.32007,183.32381V158.4842h16.89114v24.83961Zm0,156.4916V210.39781h16.89114v129.4176Z"/><path class="cls-2" d="M1758.54133,342.29835q-16.39277,0-28.9394-8.32a66.1355,66.1355,0,0,1-20.24272-20.99094v79.73839h-16.89114v-182.328h15.15129v25.09072a62.76412,62.76412,0,0,1,20.61682-19.74818,52.75686,52.75686,0,0,1,27.57366-7.57693,54.20871,54.20871,0,0,1,24.59107,5.58853,63.18229,63.18229,0,0,1,19.37407,14.90531,69.24151,69.24151,0,0,1,12.79391,21.48547,70.51692,70.51692,0,0,1,4.59433,25.08816,78.29025,78.29025,0,0,1-4.22278,25.83381,65.92413,65.92413,0,0,1-12.0457,21.36247,57.90533,57.90533,0,0,1-18.631,14.5312A52.816,52.816,0,0,1,1758.54133,342.29835Zm-4.71988-14.90274a40.45193,40.45193,0,0,0,19.00253-4.47134,47.27855,47.27855,0,0,0,14.65675-11.79971A52.947,52.947,0,0,0,1796.795,294.482a58.42408,58.42408,0,0,0,3.22858-19.25108,53.6112,53.6112,0,0,0-3.72568-19.87118,54.94559,54.94559,0,0,0-10.18286-16.64259,48.507,48.507,0,0,0-15.27685-11.42817,43.462,43.462,0,0,0-19.00253-4.22278,39.164,39.164,0,0,0-13.53956,2.60849,55.74435,55.74435,0,0,0-13.16546,6.95683,46.87288,46.87288,0,0,0-10.4314,10.18286,27.38226,27.38226,0,0,0-5.34,12.29681v39.74492a59.3206,59.3206,0,0,0,7.57436,12.9169,53.33347,53.33347,0,0,0,10.434,10.30842,49.90313,49.90313,0,0,0,12.5428,6.83127A39.74685,39.74685,0,0,0,1753.82145,327.39561Z"/><path class="cls-2" d="M1878.26805,342.29835a45.76441,45.76441,0,0,1-17.01669-3.103,42.90685,42.90685,0,0,1-13.66-8.57113,38.58389,38.58389,0,0,1-12.29681-28.56529,31.881,31.881,0,0,1,3.97424-15.64839,37.83938,37.83938,0,0,1,11.17962-12.42237,54.73949,54.73949,0,0,1,17.13712-8.07147,79.04208,79.04208,0,0,1,21.85958-2.857,119.57506,119.57506,0,0,1,20.12229,1.73985,87.5478,87.5478,0,0,1,18.13133,4.96587V258.0912q0-17.13842-9.68576-27.19956-9.68961-10.05858-26.828-10.05986a57.05144,57.05144,0,0,0-20.36828,3.97423,98.33107,98.33107,0,0,0-21.11392,11.42561l-5.96264-11.17706q25.08689-16.88858,48.68759-16.89114,24.34122,0,38.25361,13.66256,13.906,13.66383,13.90855,37.75652v58.37334q0,6.95683,6.21118,6.95683v14.90274a40.28731,40.28731,0,0,1-6.45973.74565q-6.461,0-10.05987-3.22858a12.13076,12.13076,0,0,1-3.84868-8.94267l-.4971-10.18542a58.67848,58.67848,0,0,1-22.47966,17.88534A69.20743,69.20743,0,0,1,1878.26805,342.29835Zm3.97424-12.9169a58.39249,58.39249,0,0,0,24.21952-4.96588q11.05021-4.96587,16.76558-13.16545a15.47136,15.47136,0,0,0,3.35414-4.84544,12.34654,12.34654,0,0,0,1.1172-4.84288V280.44787a104.05232,104.05232,0,0,0-17.51124-4.96843,98.36254,98.36254,0,0,0-18.50543-1.73729q-17.88407,0-29.0624,7.45137-11.1809,7.45266-11.17962,19.62263A26.7759,26.7759,0,0,0,1853.8,311.99577a28.28547,28.28547,0,0,0,6.45974,9.06566,30.15007,30.15007,0,0,0,9.81131,6.08563A33.06947,33.06947,0,0,0,1882.24229,329.38145Z"/><path class="cls-2" d="M1981.84928,158.4842h16.89114V310.50447q0,7.20666,3.9768,11.30261,3.9704,4.09724,11.17706,4.09723a33.5673,33.5673,0,0,0,6.45717-.74565,42.2471,42.2471,0,0,0,6.95683-1.98584l2.98,13.66256a55.60183,55.60183,0,0,1-11.55116,3.22858,67.37736,67.37736,0,0,1-11.79715,1.24275q-11.68056,0-18.38244-6.58272-6.707-6.58017-6.70829-18.50544Z"/><path class="cls-2" d="M2048.6682,183.32381V158.4842h16.89114v24.83961Zm0,156.4916V210.39781h16.89114v129.4176Z"/><path class="cls-2" d="M2155.97255,342.29835a55.76117,55.76117,0,0,1-24.83961-5.58853,63.14273,63.14273,0,0,1-19.62263-14.77975,67.87628,67.87628,0,0,1-12.79391-21.23692,70.06051,70.06051,0,0,1-4.59433-25.21371,75.32938,75.32938,0,0,1,4.47134-25.95681,69.34778,69.34778,0,0,1,12.29425-21.488,58.04679,58.04679,0,0,1,18.631-14.5312,52.80818,52.80818,0,0,1,23.72242-5.34,50.65439,50.65439,0,0,1,29.06239,8.56857,64.91209,64.91209,0,0,1,19.87118,20.74238V158.4842h16.89114V317.95584q0,6.95683,5.96263,6.95683v14.90274a32.05494,32.05494,0,0,1-5.96263.74565,15.475,15.475,0,0,1-10.43141-3.85124,11.862,11.862,0,0,1-4.47133-9.31421V314.72725a56.63332,56.63332,0,0,1-20.86538,20.11973A54.75282,54.75282,0,0,1,2155.97255,342.29835Zm3.72569-14.90274a40.27447,40.27447,0,0,0,13.291-2.48294,54.62054,54.62054,0,0,0,13.28845-6.83127,45.78669,45.78669,0,0,0,10.557-10.18542,27.58118,27.58118,0,0,0,5.34-12.54537v-39.9909a44.55218,44.55218,0,0,0-7.20282-12.54536,58.29129,58.29129,0,0,0-10.80551-10.30841,50.93849,50.93849,0,0,0-13.0399-6.95428,40.55677,40.55677,0,0,0-13.66256-2.48549,39.7219,39.7219,0,0,0-18.87954,4.47133,47.79963,47.79963,0,0,0-14.5312,11.79971,52.58,52.58,0,0,0-9.31421,16.76815,59.41961,59.41961,0,0,0-3.22859,19.37408,54.27867,54.27867,0,0,0,13.90855,36.39077,49.20087,49.20087,0,0,0,15.27684,11.30261A43.358,43.358,0,0,0,2159.69824,327.39561Z"/><path class="cls-2" d="M2289.85893,342.29835a45.7645,45.7645,0,0,1-17.0167-3.103,42.9068,42.9068,0,0,1-13.66-8.57113,38.58379,38.58379,0,0,1-12.29681-28.56529,31.881,31.881,0,0,1,3.97423-15.64839,37.8396,37.8396,0,0,1,11.17962-12.42237,54.73966,54.73966,0,0,1,17.13713-8.07147,79.04208,79.04208,0,0,1,21.85958-2.857,119.57515,119.57515,0,0,1,20.12229,1.73985,87.5477,87.5477,0,0,1,18.13132,4.96587V258.0912q0-17.13842-9.68575-27.19956-9.68961-10.05858-26.828-10.05986a57.05144,57.05144,0,0,0-20.36828,3.97423,98.33137,98.33137,0,0,0-21.11393,11.42561l-5.96263-11.17706q25.08688-16.88858,48.68758-16.89114,24.34124,0,38.25362,13.66256,13.906,13.66383,13.90854,37.75652v58.37334q0,6.95683,6.21119,6.95683v14.90274a40.28741,40.28741,0,0,1-6.45974.74565q-6.461,0-10.05986-3.22858a12.13076,12.13076,0,0,1-3.84868-8.94267l-.4971-10.18542a58.67843,58.67843,0,0,1-22.47967,17.88534A69.20736,69.20736,0,0,1,2289.85893,342.29835Zm3.97424-12.9169a58.39241,58.39241,0,0,0,24.21951-4.96588q11.05023-4.96587,16.76559-13.16545a15.47136,15.47136,0,0,0,3.35414-4.84544,12.34651,12.34651,0,0,0,1.11719-4.84288V280.44787a104.0522,104.0522,0,0,0-17.51123-4.96843,98.36265,98.36265,0,0,0-18.50544-1.73729q-17.88405,0-29.06239,7.45137-11.18091,7.45266-11.17962,19.62263a26.77575,26.77575,0,0,0,2.35994,11.17962,28.28547,28.28547,0,0,0,6.45974,9.06566,30.15,30.15,0,0,0,9.81131,6.08563A33.06947,33.06947,0,0,0,2293.83317,329.38145Z"/><path class="cls-2" d="M2445.85343,342.29835a55.76117,55.76117,0,0,1-24.83961-5.58853,63.14273,63.14273,0,0,1-19.62263-14.77975,67.87628,67.87628,0,0,1-12.79391-21.23692,70.06051,70.06051,0,0,1-4.59433-25.21371,75.32938,75.32938,0,0,1,4.47134-25.95681,69.34778,69.34778,0,0,1,12.29425-21.488,58.04679,58.04679,0,0,1,18.631-14.5312,52.80818,52.80818,0,0,1,23.72242-5.34,50.65439,50.65439,0,0,1,29.06239,8.56857,64.91209,64.91209,0,0,1,19.87118,20.74238V158.4842h16.89114V317.95584q0,6.95683,5.96264,6.95683v14.90274a32.05513,32.05513,0,0,1-5.96264.74565,15.475,15.475,0,0,1-10.43141-3.85124,11.862,11.862,0,0,1-4.47133-9.31421V314.72725a56.63332,56.63332,0,0,1-20.86538,20.11973A54.75282,54.75282,0,0,1,2445.85343,342.29835Zm3.72569-14.90274a40.27442,40.27442,0,0,0,13.291-2.48294,54.62054,54.62054,0,0,0,13.28845-6.83127,45.78669,45.78669,0,0,0,10.557-10.18542,27.58118,27.58118,0,0,0,5.34-12.54537v-39.9909a44.55218,44.55218,0,0,0-7.20282-12.54536,58.29129,58.29129,0,0,0-10.80551-10.30841,50.93849,50.93849,0,0,0-13.0399-6.95428,40.55677,40.55677,0,0,0-13.66256-2.48549,39.7219,39.7219,0,0,0-18.87954,4.47133,47.79963,47.79963,0,0,0-14.5312,11.79971,52.58,52.58,0,0,0-9.31421,16.76815,59.41961,59.41961,0,0,0-3.22859,19.37408,54.27867,54.27867,0,0,0,13.90855,36.39077,49.20087,49.20087,0,0,0,15.27684,11.30261A43.358,43.358,0,0,0,2449.57912,327.39561Z"/><path class="cls-2" d="M2663.69585,342.29835a55.76117,55.76117,0,0,1-24.83961-5.58853,63.14273,63.14273,0,0,1-19.62263-14.77975,67.87628,67.87628,0,0,1-12.79391-21.23692,70.06051,70.06051,0,0,1-4.59433-25.21371,75.32938,75.32938,0,0,1,4.47134-25.95681,69.34778,69.34778,0,0,1,12.29425-21.488,58.04679,58.04679,0,0,1,18.631-14.5312,52.80818,52.80818,0,0,1,23.72242-5.34,50.65439,50.65439,0,0,1,29.06239,8.56857,64.91209,64.91209,0,0,1,19.87118,20.74238V158.4842h16.89114V317.95584q0,6.95683,5.96263,6.95683v14.90274a32.05494,32.05494,0,0,1-5.96263.74565,15.475,15.475,0,0,1-10.43141-3.85124,11.862,11.862,0,0,1-4.47133-9.31421V314.72725A56.63332,56.63332,0,0,1,2691.021,334.847,54.75282,54.75282,0,0,1,2663.69585,342.29835Zm3.72569-14.90274a40.27447,40.27447,0,0,0,13.291-2.48294,54.62054,54.62054,0,0,0,13.28845-6.83127,45.78669,45.78669,0,0,0,10.557-10.18542,27.58118,27.58118,0,0,0,5.34-12.54537v-39.9909a44.55218,44.55218,0,0,0-7.20282-12.54536,58.29129,58.29129,0,0,0-10.80551-10.30841,50.93849,50.93849,0,0,0-13.0399-6.95428,40.55682,40.55682,0,0,0-13.66256-2.48549,39.7219,39.7219,0,0,0-18.87954,4.47133,47.79963,47.79963,0,0,0-14.5312,11.79971,52.58,52.58,0,0,0-9.31421,16.76815,59.41961,59.41961,0,0,0-3.22859,19.37408,54.27867,54.27867,0,0,0,13.90855,36.39077,49.20087,49.20087,0,0,0,15.27684,11.30261A43.358,43.358,0,0,0,2667.42154,327.39561Z"/><path class="cls-2" d="M2820.93054,342.29835a62.23205,62.23205,0,0,1-25.9568-5.34,63.60965,63.60965,0,0,1-20.49384-14.65419,68.00561,68.00561,0,0,1-13.537-21.488A69.88354,69.88354,0,0,1,2756.1,274.73379a68.2916,68.2916,0,0,1,4.84288-25.70826,66.5616,66.5616,0,0,1,13.414-21.11392,63.70709,63.70709,0,0,1,20.49383-14.40821,63.01353,63.01353,0,0,1,72.0359,14.5312,68.21126,68.21126,0,0,1,17.88278,46.45064v3.97423a10.06548,10.06548,0,0,1-.24855,2.734h-110.784a54.449,54.449,0,0,0,4.84288,19.25108,52.828,52.828,0,0,0,10.557,15.27685,47.18272,47.18272,0,0,0,14.77975,10.05987,44.20788,44.20788,0,0,0,17.75978,3.60013,45.82823,45.82823,0,0,0,12.41981-1.73729,50.19925,50.19925,0,0,0,11.42817-4.71989,42.476,42.476,0,0,0,9.4372-7.32837,31.44628,31.44628,0,0,0,6.45974-9.56277l14.65419,3.97424a42.96626,42.96626,0,0,1-8.44557,13.0399,58.81362,58.81362,0,0,1-12.66836,10.18542,61.88733,61.88733,0,0,1-15.89694,6.70572A68.93554,68.93554,0,0,1,2820.93054,342.29835Zm47.69339-74.02173a52.27057,52.27057,0,0,0-4.84288-19.00254,51.70953,51.70953,0,0,0-10.434-14.77975,46.249,46.249,0,0,0-14.65419-9.68832,45.64456,45.64456,0,0,0-17.76235-3.47713,46.52349,46.52349,0,0,0-17.88278,3.47713,45.84685,45.84685,0,0,0-14.77974,9.68832,47.61263,47.61263,0,0,0-10.18542,14.90275,56.38449,56.38449,0,0,0-4.59433,18.87954Z"/><path class="cls-2" d="M928.88959,588.40115a159.80183,159.80183,0,0,1,43.32711-108.77q21.20874-22.56552,51.45238-36.55989,30.2334-13.98287,69.0533-13.99054,46.48011,0,80.56347,19.1819,34.07311,19.187,50.77592,50.77591l-67.2494,47.83945a56.7019,56.7019,0,0,0-11.96114-19.40739,60.85737,60.85737,0,0,0-16.47347-12.18407,70.79251,70.79251,0,0,0-18.72836-6.3188,102.85858,102.85858,0,0,0-18.73092-1.80647q-18.95641,0-32.72146,7.44624a67.34579,67.34579,0,0,0-22.56679,19.40739,83.80136,83.80136,0,0,0-13.08859,27.08168,109.38288,109.38288,0,0,0-4.28941,30.013,103.24464,103.24464,0,0,0,4.96588,32.045,83.49451,83.49451,0,0,0,14.44151,27.07912,70.47414,70.47414,0,0,0,23.24582,18.73092,67.16727,67.16727,0,0,0,30.915,6.99527,88.11162,88.11162,0,0,0,18.50543-2.032,68.73559,68.73559,0,0,0,18.27739-6.76978,61.75313,61.75313,0,0,0,15.797-12.18663,54.05744,54.05744,0,0,0,11.05918-18.27738l71.76173,42.87613a91.41241,91.41241,0,0,1-21.89033,31.594,139.03354,139.03354,0,0,1-33.39792,23.46874,176.97641,176.97641,0,0,1-40.17027,14.44152,184.87066,184.87066,0,0,1-41.74869,4.96587q-35.65665,0-65.21743-14.21859a165.24685,165.24685,0,0,1-50.99885-37.68477,171.29191,171.29191,0,0,1-33.17243-53.25629A163.64693,163.64693,0,0,1,928.88959,588.40115Z"/><path class="cls-2" d="M1397.82886,754.04041q-36.55989,0-66.34743-13.99054a164.027,164.027,0,0,1-50.99885-36.78538,166.394,166.394,0,0,1-32.947-52.12885,161.32162,161.32162,0,0,1-11.73565-60.477,157.35317,157.35317,0,0,1,12.18663-60.93059,161.716,161.716,0,0,1,34.07439-51.67787,166.14283,166.14283,0,0,1,51.90336-35.65537q30.01049-13.30638,65.66841-13.31407,36.55989,0,66.34744,13.99054a162.49509,162.49509,0,0,1,50.99884,37.01086,166.0903,166.0903,0,0,1,32.72147,52.35434,163.0289,163.0289,0,0,1,11.51016,60.02607,155.65236,155.65236,0,0,1-12.18663,60.7051,164.40978,164.40978,0,0,1-33.8489,51.45238,166.57783,166.57783,0,0,1-51.67788,35.88087Q1433.47528,754.03784,1397.82886,754.04041Zm-72.66624-162.47986a109.01021,109.01021,0,0,0,4.5149,31.36853,81.85068,81.85068,0,0,0,13.53956,26.85363,68.23654,68.23654,0,0,0,22.79228,18.95641q13.76376,7.222,32.72146,7.22076,18.95641,0,32.947-7.44625A66.75194,66.75194,0,0,0,1454.47,649.10625a83.51253,83.51253,0,0,0,13.08858-27.30718,115.19576,115.19576,0,0,0,4.28685-31.14048,109.212,109.212,0,0,0-4.51234-31.36853,77.416,77.416,0,0,0-13.765-26.62814,69.64672,69.64672,0,0,0-23.01776-18.50544q-13.77531-6.99143-32.27049-6.99526-18.95641,0-32.72146,7.22075a67.29213,67.29213,0,0,0-22.79228,19.1819A81.24385,81.24385,0,0,0,1329.452,560.643,112.59037,112.59037,0,0,0,1325.16262,591.56055Z"/><path class="cls-2" d="M1598.67,751.332V430.88716h147.13639a97.40557,97.40557,0,0,1,43.32711,9.70369,112.54605,112.54605,0,0,1,34.07439,25.27265,118.103,118.103,0,0,1,22.3413,35.65538,106.968,106.968,0,0,1,8.12528,40.39576,114.06111,114.06111,0,0,1-12.18663,52.12884,106.25463,106.25463,0,0,1-33.8489,39.49124L1875.3367,751.332h-99.29182l-56.4157-98.38987h-32.94951V751.332Zm88.00971-175.11746h55.51374q8.12527,0,15.12054-9.02467,6.99144-9.02466,6.99527-25.27521,0-16.69257-8.12271-25.50071-8.12528-8.80173-16.248-8.80174h-53.25886Z"/><path class="cls-2" d="M1903.31265,751.332V430.88716H2050.449a97.40557,97.40557,0,0,1,43.32711,9.70369,112.5461,112.5461,0,0,1,34.0744,25.27265,118.10342,118.10342,0,0,1,22.3413,35.65538,106.968,106.968,0,0,1,8.12527,40.39576,114.06111,114.06111,0,0,1-12.18663,52.12884,106.25453,106.25453,0,0,1-33.8489,39.49124l67.6978,117.79726h-99.29182l-56.41569-98.38987h-32.94952V751.332Zm88.00971-175.11746h55.51374q8.12527,0,15.12055-9.02467,6.99143-9.02466,6.99527-25.27521,0-16.69257-8.12272-25.50071-8.12528-8.80173-16.248-8.80174h-53.25886Z"/><path class="cls-2" d="M2207.95535,751.332V430.88716h88.00971V751.332Z"/><path class="cls-2" d="M2579.39645,674.60439V751.332H2351.02013V430.88716h224.3124v76.725H2439.02984v45.13358h116.44433v71.31075H2439.02984v50.54787Z"/><path class="cls-2" d="M2708.46814,593.818V751.332h-88.00971V430.88716h68.60488L2817.69171,593.818V430.88716h88.00971V751.332h-69.95526Z"/><path class="cls-2" d="M3210.34923,507.61219h-92.07106V751.332h-88.00971V507.61219h-92.52461v-76.725h272.60538Z"/><path class="cls-2" d="M3470.76543,674.60439V751.332H3242.3891V430.88716h224.31241v76.725H3330.39882v45.13358h116.44432v71.31075H3330.39882v50.54787Z"/><path class="cls-2" d="M3705.90128,535.59583a246.83223,246.83223,0,0,0-27.98364-14.44408,255.9237,255.9237,0,0,0-27.30461-10.15467,98.57543,98.57543,0,0,0-29.56206-4.73782q-11.74206,0-18.73092,3.61038-7.003,3.61679-6.99527,12.18663a14.05076,14.05076,0,0,0,4.06135,10.38016,38.45619,38.45619,0,0,0,11.73566,7.44625,145.93289,145.93289,0,0,0,18.73092,6.54429q11.05405,3.16324,25.04716,7.67173a329.07453,329.07453,0,0,1,39.94478,14.89506,124.15311,124.15311,0,0,1,30.464,19.1819,73.92888,73.92888,0,0,1,19.40738,26.85363q6.76851,15.80471,6.76978,38.3638,0,28.88816-10.60564,48.51847a87.01368,87.01368,0,0,1-27.98364,31.366,118.06806,118.06806,0,0,1-39.26576,16.927,190.503,190.503,0,0,1-44.00357,5.1888,249.02822,249.02822,0,0,1-36.10635-2.70843,311.59707,311.59707,0,0,1-36.78538-7.67173,321.19731,321.19731,0,0,1-35.2044-11.73565,224.60118,224.60118,0,0,1-31.366-15.34347l37.91026-77.17858a264.64927,264.64927,0,0,0,32.94951,17.60092,233.1633,233.1633,0,0,0,32.72146,12.18663,130.3935,130.3935,0,0,0,37.23379,5.41685q14.44023,0,20.08386-3.83587,5.63848-3.832,5.64233-10.15467a14.5268,14.5268,0,0,0-5.64233-11.51016q-5.6462-4.73911-15.57153-8.35077-9.93174-3.60525-22.79227-7.22075-12.86054-3.60527-27.30461-8.57369a234.72431,234.72431,0,0,1-36.55733-15.57152,98.96733,98.96733,0,0,1-25.27522-18.95641,67.672,67.672,0,0,1-14.667-24.14521q-4.7391-13.54084-4.74038-31.143,0-26.62431,9.70369-46.93749a96.37816,96.37816,0,0,1,26.40266-33.85147,118.16845,118.16845,0,0,1,38.13831-20.53483,145.33793,145.33793,0,0,1,45.35906-6.99527,172.18177,172.18177,0,0,1,34.29988,3.38489,275.29272,275.29272,0,0,1,32.27049,8.57625,310.04134,310.04134,0,0,1,29.11108,11.28212q13.54084,6.092,24.37326,11.51016Z"/><path class="cls-3" d="M654.96975,461.659c21.1616-183.65477-110.565-349.69161-294.22017-370.85358-10.3413-1.19173-20.62141-1.87066-30.827-2.10977a523.65373,523.65373,0,0,0-74.11309,67.56785,367.65575,367.65575,0,0,1,117.29881-15.47091A320.793,320.793,0,0,0,207.146,297.67032C129.64317,457.78192,196.61078,650.40608,356.722,727.90887a320.14262,320.14262,0,0,0,191.57421,27.9026,508.10283,508.10283,0,0,0,77.23441-118.95773A381.37318,381.37318,0,0,1,545.909,672.46138,333.39532,333.39532,0,0,0,654.96975,461.659Z"/><path class="cls-4" d="M812.67888,321.0428c.00228-.06273.008-.12583.00989-.18855-.10188-.45465-.23113-.89865-.33453-1.35254-.788-3.45432-1.67033-6.87178-2.54465-10.29189-.6181-2.41844-1.21416-4.84449-1.87485-7.24545-.91613-3.32964-1.91248-6.62469-2.91-9.91974-.73975-2.44353-1.46886-4.89049-2.25233-7.315-1.0412-3.22091-2.1493-6.411-3.26729-9.59661-.85912-2.44848-1.71823-4.89581-2.62258-7.323-1.15867-3.11106-2.37131-6.19513-3.60258-9.27008-.98114-2.44962-1.97293-4.89239-2.9993-7.31882q-1.90565-4.50408-3.9219-8.94924-1.65588-3.66757-3.37868-7.296-2.05959-4.333-4.21422-8.61053-1.8469-3.66189-3.77136-7.27625c-1.46658-2.76855-2.95178-5.52532-4.47956-8.25586-1.3647-2.43974-2.76894-4.85248-4.18153-7.261-1.54831-2.63969-3.10384-5.274-4.70879-7.87573-1.50687-2.44239-3.062-4.84981-4.61793-7.258-1.61635-2.50093-3.22928-5.00453-4.89771-7.46783-1.66387-2.45684-3.38476-4.8692-5.10033-7.28765-1.662-2.34318-3.31063-4.69662-5.0205-7.00369-1.85166-2.49827-3.76908-4.94295-5.67548-7.39751-1.67147-2.15158-3.31862-4.32256-5.03152-6.43993-2.11168-2.61042-4.29824-5.15507-6.47187-7.71227-1.60229-1.88511-3.17113-3.79911-4.80648-5.65457-2.58039-2.92783-5.24593-5.77622-7.90766-8.62878-1.31338-1.408-2.58609-2.85447-3.91924-4.2435q-12.24067-12.759-25.54155-24.44181c-.68045-.5972-1.39093-1.16056-2.07518-1.75358-3.7649-3.26274-7.56781-6.48214-11.45056-9.6084-1.17273-.94427-2.38537-1.83987-3.56874-2.7716-3.44635-2.71343-6.90789-5.40672-10.44167-8.011-1.40537-1.03588-2.84876-2.02158-4.26782-3.04-3.38134-2.42643-6.77522-4.83538-10.23221-7.16069-1.53652-1.0336-3.10574-2.02082-4.65671-3.03389-3.40224-2.22229-6.817-4.42292-10.28808-6.54638-1.6346-1.00014-3.297-1.95961-4.94676-2.93771-3.4604-2.05047-6.93716-4.07357-10.46143-6.02483-1.69162-.93628-3.40414-1.83949-5.11021-2.75259-3.54784-1.89917-7.11545-3.76262-10.72487-5.55953-1.735-.86406-3.48511-1.70151-5.23376-2.54161q-5.46544-2.62582-11.01339-5.10033-2.64177-1.17407-5.3056-2.30593-5.64336-2.41256-11.37-4.65974-2.63721-1.03494-5.29116-2.03755-5.84805-2.201-11.78127-4.22031c-1.74028-.59491-3.48056-1.19059-5.23148-1.7627-4.0595-1.32669-8.15132-2.57507-12.26519-3.77745-1.684-.49228-3.36347-.9952-5.05623-1.46619-4.26516-1.18718-8.56606-2.28388-12.886-3.33572-1.5829-.38547-3.15782-.79069-4.74794-1.15791-4.53126-1.04614-9.10053-1.98851-13.68806-2.88374-.60366-.11784-1.19629-.26419-1.80109-.37937.01976-.00609.03953-.01331.0593-.01939-.23949-.04562-.48468-.07527-.72417-.12051-.58883-.111-1.18071-.21363-1.77031-.322-4.29025-.79031-8.61509-1.47532-12.95058-2.13106-1.39891-.21212-2.78338-.46758-4.18685-.66563-.13229-.01862-.26154-.04561-.39383-.06424l.02585.02053c-.08325-.01141-.168-.01825-.25089-.03-4.62744-.64434-9.28946-1.17273-13.9648-1.66159-1.65968-.17335-3.30531-.39117-4.9707-.54474-4.73805-.43716-9.51146-.74622-14.29437-1.02144-1.60761-.09237-3.19963-.24177-4.81181-.31589C424.15529.165,417.772,0,411.34954,0c-6.36163,0-12.67689.19387-18.96781.47974-1.26548.0574-2.53287.108-3.79531.17676q-9.11536.49779-18.1239,1.37839c-1.11039.10986-2.21317.24366-3.3209.36227q-8.50921.90948-16.91543,2.14931c-.68425.10187-1.37535.1836-2.05846.2889-5.948.9169-11.84171,1.99269-17.7027,3.16162q-1.97007.39288-3.93444.80247c-5.78686,1.21341-11.53761,2.52337-17.23209,3.9774-.8785.22428-1.74674.47479-2.62334.70478q-7.80958,2.04933-15.49372,4.39973c-1.06629.3254-2.14056.63293-3.20305.96669q-8.23894,2.58762-16.31938,5.52229c-1.3054.47137-2.60357.95719-3.90251,1.4411-5.43941,2.02729-10.84309,4.12756-16.17074,6.3757-.5398.2277-1.06819.47631-1.60685.7063-4.93345,2.10673-9.80607,4.326-14.6384,6.61784-1.27727.60594-2.55948,1.20314-3.82991,1.82163q-7.48626,3.64648-14.80186,7.58074c-1.2613.67893-2.50816,1.38142-3.76148,2.0729q-6.60416,3.64478-13.06348,7.51155c-.79335.47669-1.60229.93058-2.39222,1.41221-4.71106,2.87386-9.33774,5.87012-13.92146,8.92491-1.36166.9074-2.72065,1.81669-4.07053,2.73967q-6.68342,4.57021-13.18779,9.378c-1.1503.85494-2.27665,1.73914-3.41783,2.60548q-5.486,4.16536-10.82675,8.50827c-1.12293.91348-2.2622,1.80795-3.37525,2.73282q-6.12861,5.092-12.03977,10.42912-1.97977,1.77792-3.93254,3.5851c-3.91468,3.60752-7.78449,7.26256-11.55624,11.01757-.92107.9169-1.80984,1.86459-2.72217,2.78985q-4.73445,4.80344-9.30733,9.76235c-1.18528,1.28335-2.37967,2.558-3.5486,3.85651q-5.222,5.80017-10.22081,11.79953c-1.16132,1.39283-2.30022,2.80466-3.44368,4.2127q-4.3199,5.32005-8.471,10.77961c-.991,1.30654-1.98357,2.61155-2.95938,3.93026-2.0558,2.77882-4.09524,5.57094-6.08223,8.4026-.03574.09655-.065.19615-.10074.2927A409.32506,409.32506,0,0,0,.0001,411.34944a415.32521,415.32521,0,0,0,2.7351,47.30262c.03612.31818.06767.63826.10454.95605q1.11819,9.56127,2.6682,18.98454c.0498.303.10568.60328.15624.90625q3.143,18.84141,7.96506,37.07536c.14255.53942.29042,1.07655.43487,1.61521q4.78576,17.83271,11.10007,34.9998.36949,1.00471.74317,2.00828,6.31963,16.92209,14.05755,33.112c.33795.70782.67057,1.41906,1.01269,2.125q3.84492,7.93446,8.00421,15.68227c.271.5033.55539.99824.82833,1.5q3.90193,7.17038,8.08024,14.16322c.39952.66981.788,1.34722,1.19135,2.01436Q63.494,631.0931,68.20088,638.188c.57173.86254,1.15753,1.71481,1.73534,2.57317q4.36724,6.48441,8.96064,12.79853c.37862.51889.74317,1.048,1.12407,1.565q4.93117,6.68969,10.14136,13.15586,1.2556,1.56693,2.53021,3.1179c3.40794,4.16975,6.86949,8.29274,10.4352,12.32411q.40029.45218.80133.90321c3.52009,3.95611,7.13826,7.82175,10.8066,11.63911q1.57662,1.64049,3.16618,3.26768c3.7227,3.7896,7.499,7.52561,11.365,11.16963.82871.7808,1.68136,1.53538,2.51652,2.30972q4.92833,4.56909,10.00755,8.97433c1.20542,1.04652,2.40438,2.101,3.622,3.13387q5.91591,5.019,12.0162,9.82166c1.23393.96973,2.49105,1.91172,3.73639,2.86739q4.991,3.83065,10.1003,7.51c1.26054.90777,2.50816,1.83341,3.77934,2.7275.271.19045.5341.39154.80552.58123-.00913-.01825-.01711-.03764-.02623-.05588a409.34677,409.34677,0,0,0,235.52515,74.12677,413.46537,413.46537,0,0,0,75.47094-6.95807l-.03687.03155c.544-.10073,1.07617-.23454,1.61939-.33756q7.28442-1.38048,14.4757-3.01679c1.015-.23074,2.03-.4592,3.04188-.69755,5.26949-1.24,10.50705-2.56366,15.69633-4.004.18779-.05208.37748-.09807.56489-.15015q8.53089-2.38119,16.90935-5.11706c.21972-.07184.4364-.15091.65612-.22314q7.58378-2.48953,15.028-5.27785c.97506-.363,1.94556-.73443,2.91719-1.10431q6.76609-2.57677,13.4174-5.38087c.73823-.31171,1.48216-.61088,2.21811-.9264q15.51767-6.65433,30.35678-14.52626c.81122-.42994,1.61217-.87546,2.42035-1.31034q6.15654-3.31576,12.18574-6.83338c.937-.54626,1.87561-1.08948,2.80771-1.64334,1.186-.7044,2.39449-1.37459,3.57255-2.09039.08857-.09123.17144-.18855.26-.27978C743.48252,690.67271,822.699,560.29711,822.699,411.34944A412.48317,412.48317,0,0,0,812.67888,321.0428ZM548.29622,755.81147A320.14262,320.14262,0,0,1,356.722,727.90887C196.61078,650.40608,129.64317,457.78192,207.146,297.67032A320.793,320.793,0,0,1,373.10829,140.79255a367.65575,367.65575,0,0,0-117.29881,15.47091,523.65373,523.65373,0,0,1,74.11309-67.56785c10.2056.23911,20.48571.918,30.827,2.10977,183.65516,21.162,315.38177,187.19881,294.22017,370.85358A333.39532,333.39532,0,0,1,545.909,672.46138a381.37318,381.37318,0,0,0,79.62168-35.60764A508.10283,508.10283,0,0,1,548.29622,755.81147Z"/><path class="cls-3" d="M411.34951.00011C184.16744.00011,0,184.16755,0,411.34962c0,9.40387.34533,18.72594.96643,27.97246a367.27488,367.27488,0,0,1,30.33216-91.69465c65.10258-134.49392,201.52317-211.1846,341.80962-206.835A320.79341,320.79341,0,0,0,207.146,297.67038C129.64316,457.78179,196.61069,650.4061,356.7221,727.90892c102.69142,49.7083,218.71181,39.90553,309.201-15.70337A364.74741,364.74741,0,0,1,624.671,763.133C743.39435,690.98477,822.699,560.4286,822.699,411.34962,822.699,184.16755,638.53151.00011,411.34951.00011Z"/><path class="cls-5" d="M356.7221,727.90892C196.61069,650.4061,129.64316,457.78179,207.146,297.67038A320.79341,320.79341,0,0,1,373.10821,140.79244c-140.28645-4.34961-276.707,72.34107-341.80962,206.835A367.27488,367.27488,0,0,0,.96643,439.32208c14.38374,214.13258,192.605,383.377,410.38308,383.377A409.43051,409.43051,0,0,0,624.671,763.133a364.74741,364.74741,0,0,0,41.252-50.92742C575.43391,767.81445,459.41352,777.61722,356.7221,727.90892Z"/><path class="cls-3" d="M488.7984,7.31261q-13.53126,4.2165-26.97765,9.22666C189.00845,118.45508,50.4692,422.23235,152.38509,695.04494a529.50071,529.50071,0,0,0,23.46565,53.583,409.42827,409.42827,0,0,0,235.49877,74.07116c227.182,0,411.34944-184.16744,411.34944-411.34944C822.699,210.6463,678.94933,43.54544,488.7984,7.31261Z"/><path class="cls-6" d="M461.82075,16.53927q13.44174-5.0215,26.97765-9.22666A413.42365,413.42365,0,0,0,411.34951.00011C184.16744.00011,0,184.16755,0,411.34962,0,550.93456,69.54076,674.26024,175.85074,748.6279a529.50071,529.50071,0,0,1-23.46565-53.583C50.4692,422.23235,189.00845,118.45508,461.82075,16.53927Z"/><path class="cls-3" d="M486.78352,815.77257C699.41591,641.31693,736.74479,326.88094,567.81173,103.672A522.11351,522.11351,0,0,0,468.77264,4.00919,414.77991,414.77991,0,0,0,411.34951.00011C184.16744.00011,0,184.16755,0,411.34962S184.16744,822.69906,411.34951,822.69906A413.57558,413.57558,0,0,0,486.78352,815.77257Z"/><path class="cls-7" d="M567.81173,103.672c168.93306,223.20894,131.60418,537.64493-81.02821,712.10057C677.93429,780.34118,822.699,612.762,822.699,411.34962c0-207.69138-153.93229-379.40065-353.92631-407.34043A522.11351,522.11351,0,0,1,567.81173,103.672Z"/><path class="cls-3" d="M812.68862,320.85422c-.34381,10.44359-1.0951,20.95333-2.3124,31.51794-17.776,154.27064-125.3367,276.27307-264.46728,320.08921a333.3941,333.3941,0,0,0,109.06064-210.8023c21.16176-183.655-110.565-349.69169-294.22-370.85353C242.958,77.233,132.4864,126.61721,62.76471,212.19241A379.633,379.633,0,0,1,74.4082,175.36468,409.43367,409.43367,0,0,0,0,411.34962c0,227.182,184.16744,411.34944,411.34951,411.34944S822.699,638.53162,822.699,411.34962A412.6801,412.6801,0,0,0,812.68862,320.85422Z"/><path class="cls-8" d="M360.7496,90.80554c183.655,21.16184,315.38174,187.19853,294.22,370.85353a333.3941,333.3941,0,0,1-109.06064,210.8023C685.03952,628.64523,792.60026,506.6428,810.37622,352.37216c1.2173-10.56461,1.96859-21.07435,2.3124-31.51794C771.4572,137.2121,607.43714.00011,411.34951.00011c-139.37286,0-262.53814,69.32781-336.94131,175.36457a379.633,379.633,0,0,0-11.64349,36.82773C132.4864,126.61721,242.958,77.233,360.7496,90.80554Z"/></g></g></svg>