<svg xmlns="http://www.w3.org/2000/svg" viewBox="0 0 172.05362 209.07871"><defs><style>.cls-1{fill:#fff;}.cls-2{fill:#1d1d1b;}.cls-3{fill:#fdd70b;}.cls-13,.cls-4{fill:none;}.cls-4{stroke:#fdd70b;stroke-width:0.37678px;}.cls-5{fill:#21bcef;}.cls-6{fill:#db2625;}.cls-7{fill:#fac48b;}.cls-8{fill:#8c733c;}.cls-9{fill:#c99e72;}.cls-10{fill:#77160f;}.cls-11{fill:#c0a675;}.cls-12{fill:#e52825;}.cls-13{stroke:#1d1d1b;stroke-width:0.70315px;}.cls-14{fill:#287935;}.cls-15{fill:#8cc047;}</style></defs><title>Recurso 2</title><g id="Capa_2" data-name="Capa 2"><g id="Capa_1-2" data-name="Capa 1"><path class="cls-1" d="M0,104.55221C0,46.80684,38.5161,0,86.04118,0c47.49292,0,86.0124,46.80674,86.01244,104.55211,0,57.7329-38.5194,104.52657-86.01231,104.5266C38.51622,209.07874,0,162.28511,0,104.55221"/><path class="cls-2" d="M86.0413,202.80183c-44.67225,0-80.87334-43.98543-80.87337-98.24962,0-54.27339,36.201-98.2753,80.87326-98.27532,44.63942,0,80.84381,44.00183,80.84385,98.27522,0,54.2642-36.20431,98.24969-80.84374,98.24972M86.04119,4.45619c-45.49887,0-82.37358,44.80953-82.37355,100.096,0,55.27073,36.8748,100.07362,82.37366,100.07359,45.46345,0,82.3447-44.803,82.34467-100.07369C168.38594,49.26562,131.50464,4.45617,86.04119,4.45619Z"/><path class="cls-3" d="M84.80029,62.23046a12.97929,12.97929,0,0,0-2.57772,5.43712,21.34161,21.34161,0,0,1-.33945,3.2737,2.68011,2.68011,0,0,1-.20223.52264c-.08338-.70583-.26263-1.45892-.48061-2.50747-.24425-1.21467.35586-2.61581.631-3.63219a7.0041,7.0041,0,0,0-.33288-3.77007l-3.88561,6.62027,1.89158-7.313.02562-.11228c-.0033,0-.0033,0-.0033.01642v-.01642l-.06762.04531a12.97458,12.97458,0,0,0-4.39513,3.9782,19.5893,19.5893,0,0,1-1.55476,2.908,2.451,2.451,0,0,1-.40119.39132c.20223-.6638.3145-1.43988.51937-2.48515.23766-1.22123,1.33415-2.2954,1.975-3.10955a6.78662,6.78662,0,0,0,1.12537-3.61972l-6.11339,4.62954,4.54548-6.05891.06435-.06762h0l-.06435.00984A12.63268,12.63268,0,0,0,69.569,59.377a21.18578,21.18578,0,0,1-2.55212,2.06166,2.48005,2.48005,0,0,1-.5292.22455,22.82035,22.82035,0,0,0,1.43659-2.09646c.67956-1.03608,2.10959-1.61321,3.01369-2.13519a6.52721,6.52721,0,0,0,2.40439-2.89223L65.946,56.46637,72.41591,52.632l.11492-.06106h-.01249l.01249-.02232h-.067a13.26453,13.26453,0,0,0-5.91839-.29152,19.99161,19.99161,0,0,1-3.15419.95861c-.16679.01247-.36573.00591-.56139,0,.6185-.33355,1.23767-.80169,2.12534-1.40443,1.01967-.6894,2.562-.66708,3.59083-.805a6.55254,6.55254,0,0,0,3.33738-1.76292l-7.57888-1.05511,7.57888-1.0676a13.00542,13.00542,0,0,0-5.40823-2.59676,20.25424,20.25424,0,0,1-3.28289-.33945,2.08843,2.08843,0,0,1-.52592-.2088c.71175-.07025,1.47139-.25606,2.49764-.46485,1.20874-.25279,2.62235.34667,3.63217.6349a6.82692,6.82692,0,0,0,3.751-.346L65.95583,39.914l7.2808,1.87518.12805.03874c-.02235,0-.02235-.00656-.02235-.00656h.02235l-.05124-.05778a12.857,12.857,0,0,0-3.97886-4.39185,20.89746,20.89746,0,0,1-2.885-1.57776,2.52453,2.52453,0,0,1-.4038-.38738c.673.1891,1.45169.30728,2.4904.51936a7.8694,7.8694,0,0,1,3.09051,1.97761,6.8324,6.8324,0,0,0,3.61972,1.11618l-4.60984-6.13309,6.02082,4.5619.08339.06106v-.01313l-.01313-.04793a12.9348,12.9348,0,0,0-1.994-5.60061,22.75921,22.75921,0,0,1-2.07742-2.55869,5.36339,5.36339,0,0,1-.2147-.51935c.55153.436,1.20876.84305,2.09974,1.44316,1.03214.66314,1.60271,2.09645,2.10632,3.00975a6.809,6.809,0,0,0,2.91388,2.40176l-1.92969-7.40882,3.8154,6.4883.06367.11555V34.8098l.00985.00984.00656-.07025a12.813,12.813,0,0,0,.29808-5.93415,20.40121,20.40121,0,0,1-.933-3.15157,2.41053,2.41053,0,0,1,0-.56729c.33026.60865.78856,1.24356,1.37816,2.11878.69926,1.03214.66711,2.57116.81812,3.61315a6.48429,6.48429,0,0,0,1.74057,3.33081l1.061-7.59463,1.05512,7.59463a6.48819,6.48819,0,0,0,1.78852-3.33082c.13788-1.042.1254-2.581.81415-3.61315.59355-.87521,1.04856-1.51013,1.392-2.11877.00591.19237.00591.38409,0,.56728a22.77555,22.77555,0,0,1-.94285,3.15157,13.23229,13.23229,0,0,0,.279,5.93416l.01248.07025.01641-.00985v.00985l.06106-.11556,3.81144-6.4883L92.257,35.6246a6.76984,6.76984,0,0,0,2.91126-2.40176c.50951-.9133,1.08336-2.33676,2.103-3.00976.88507-.60011,1.55806-.99406,2.10959-1.44316a3.74279,3.74279,0,0,1-.22127.51936,22.40129,22.40129,0,0,1-2.084,2.55868,12.97457,12.97457,0,0,0-1.98746,5.60061l-.00656.04793v.01314l.07682-.06107,6.03066-4.5619-4.61639,6.13309a6.73094,6.73094,0,0,0,3.6-1.11618c.824-.65986,1.89487-1.74715,3.10954-1.97761,1.042-.21208,1.81806-.33026,2.49107-.51936a3.01822,3.01822,0,0,1-.40381.38738,20.75532,20.75532,0,0,1-2.89157,1.57776,12.97493,12.97493,0,0,0-3.98805,4.39185l-.02889.05778h.00919v.00985l.109-.042,7.29064-1.87519-6.59795,3.88563a6.8621,6.8621,0,0,0,3.76088.346c.99669-.28823,2.40439-.88769,3.61578-.63491,1.02951.20879,1.799.3946,2.48514.46486a2.00292,2.00292,0,0,1-.50359.20879,20.46571,20.46571,0,0,1-3.273.33945,12.87436,12.87436,0,0,0-5.41217,2.59677l7.57559,1.06759-7.57559,1.05841a6.42761,6.42761,0,0,0,3.32819,1.75963c1.0479.13788,2.5646.11555,3.58426.805.8877.60274,1.51933,1.07088,2.12863,1.40442-.19892.00591-.38475.01247-.57057,0a20.4749,20.4749,0,0,1-3.145-.9586,13.1954,13.1954,0,0,0-5.90524.29152h-.0834v.02233h-.00985l.11556.06106,6.48239,3.83441L98.47024,54.5393a6.64338,6.64338,0,0,0,2.3985,2.89222c.91656.522,2.34331,1.09911,3.03271,2.13519a23.77331,23.77331,0,0,0,1.42347,2.09645,2.45724,2.45724,0,0,1-.51936-.22455A20.05111,20.05111,0,0,1,102.26,59.377a12.73647,12.73647,0,0,0-5.598-2.0065l-.067-.00985h-.00328l.07025.06763,4.54615,6.0589-6.12-4.62953a6.7867,6.7867,0,0,0,1.12539,3.61972c.6349.81415,1.75042,1.88831,1.975,3.1194a20.5339,20.5339,0,0,0,.51936,2.47529,2.64807,2.64807,0,0,1-.40446-.39132,23.45173,23.45173,0,0,1-1.56134-2.908,12.80661,12.80661,0,0,0-4.382-3.9782l-.06435-.04531v.01642c0-.01642,0-.01642-.01313-.01642l.03217.11228,1.88833,7.313-3.879-6.62027a6.87011,6.87011,0,0,0-.35588,3.77007c.29152,1.01638.89427,2.41752.6441,3.63219-.20485,1.04855-.39723,1.80165-.47076,2.50747a2.56974,2.56974,0,0,1-.21208-.52263,21.26791,21.26791,0,0,1-.33289-3.2737A13.16079,13.16079,0,0,0,87.009,62.23046Z"/><path class="cls-4" d="M84.80029,62.23046a12.97929,12.97929,0,0,0-2.57772,5.43712,21.34161,21.34161,0,0,1-.33945,3.2737,2.68011,2.68011,0,0,1-.20223.52264c-.08338-.70583-.26263-1.45892-.48061-2.50747-.24425-1.21467.35586-2.61581.631-3.63219a7.0041,7.0041,0,0,0-.33288-3.77007l-3.88561,6.62027,1.89158-7.313.02562-.11228c-.0033,0-.0033,0-.0033.01642v-.01642l-.06762.04531a12.97458,12.97458,0,0,0-4.39513,3.9782,19.5893,19.5893,0,0,1-1.55476,2.908,2.451,2.451,0,0,1-.40119.39132c.20223-.6638.3145-1.43988.51937-2.48515.23766-1.22123,1.33415-2.2954,1.975-3.10955a6.78662,6.78662,0,0,0,1.12537-3.61972l-6.11339,4.62954,4.54548-6.05891.06435-.06762h0l-.06435.00984A12.63268,12.63268,0,0,0,69.569,59.377a21.4479,21.4479,0,0,1-2.55212,2.06166,2.48005,2.48005,0,0,1-.5292.22455,22.82035,22.82035,0,0,0,1.43659-2.09646c.67956-1.03608,2.10959-1.61321,3.01369-2.13519a6.52721,6.52721,0,0,0,2.40439-2.89223L65.946,56.46637,72.41591,52.632l.11492-.06106h-.01249l.01249-.02232h-.067a13.26453,13.26453,0,0,0-5.91839-.29152,19.99161,19.99161,0,0,1-3.15419.95861c-.16679.01247-.36573.00591-.56139,0,.6185-.33355,1.23767-.80169,2.12534-1.40443,1.01967-.6894,2.562-.66708,3.59083-.805a6.55254,6.55254,0,0,0,3.33738-1.76292l-7.57888-1.05511,7.57888-1.0676a13.00542,13.00542,0,0,0-5.40823-2.59676,20.25424,20.25424,0,0,1-3.28289-.33945,2.08843,2.08843,0,0,1-.52592-.2088c.71175-.07025,1.47139-.25606,2.49764-.46485,1.20874-.25279,2.62235.34667,3.63217.6349a6.82692,6.82692,0,0,0,3.751-.346L65.95583,39.914l7.2808,1.87518.12805.03874c-.02235,0-.02235-.00656-.02235-.00656h.02235l-.05124-.05778a12.857,12.857,0,0,0-3.97886-4.39185,20.89746,20.89746,0,0,1-2.885-1.57776,2.52453,2.52453,0,0,1-.4038-.38738c.673.1891,1.45169.30728,2.4904.51936a7.8694,7.8694,0,0,1,3.09051,1.97761,6.8324,6.8324,0,0,0,3.61972,1.11618l-4.60984-6.13309,6.02082,4.5619.08339.06106v-.01313l-.01313-.04793a12.9348,12.9348,0,0,0-1.994-5.60061,22.75921,22.75921,0,0,1-2.07742-2.55869,5.36339,5.36339,0,0,1-.2147-.51935c.55153.436,1.20876.84305,2.09974,1.44316,1.03214.66314,1.60271,2.09645,2.10632,3.00975a6.79026,6.79026,0,0,0,2.91388,2.40176l-1.92969-7.40882,3.8154,6.4883.06367.11555V34.8098l.00985.00984.00656-.07025a12.813,12.813,0,0,0,.29808-5.93415,20.40121,20.40121,0,0,1-.933-3.15157,2.41053,2.41053,0,0,1,0-.56729c.33026.60865.78856,1.24356,1.37816,2.11878.696,1.03214.66711,2.57116.81812,3.61315a6.48429,6.48429,0,0,0,1.74057,3.33081l1.061-7.59463,1.05512,7.59463a6.48819,6.48819,0,0,0,1.78852-3.33082c.13788-1.042.1254-2.581.81415-3.61315.59355-.87521,1.04856-1.51013,1.392-2.11877.00591.19237.00591.38409,0,.56728a22.77555,22.77555,0,0,1-.94285,3.15157,13.23229,13.23229,0,0,0,.279,5.93416l.01248.07025.01641-.00985v.00985l.06106-.11556,3.81144-6.4883L92.257,35.6246a6.76984,6.76984,0,0,0,2.91126-2.40176c.50951-.9133,1.08336-2.33676,2.103-3.00976.88507-.60011,1.55806-.99406,2.10959-1.44316a3.74279,3.74279,0,0,1-.22127.51936,22.40129,22.40129,0,0,1-2.084,2.55868,12.97457,12.97457,0,0,0-1.98746,5.60061l-.00656.04793v.01314l.07682-.06107,6.03066-4.5619-4.61639,6.13309a6.73094,6.73094,0,0,0,3.6-1.11618c.824-.65986,1.89487-1.74715,3.10954-1.97761,1.042-.21208,1.81806-.33026,2.49107-.51936a3.01822,3.01822,0,0,1-.40381.38738,20.75532,20.75532,0,0,1-2.89157,1.57776,12.97493,12.97493,0,0,0-3.98805,4.39185l-.02889.05778h.00919v.00985l.109-.042,7.29064-1.87519-6.59795,3.88563a6.8621,6.8621,0,0,0,3.76088.346c.99669-.28823,2.40439-.88769,3.61578-.63491,1.02951.20879,1.799.3946,2.48514.46486a2.00292,2.00292,0,0,1-.50359.20879,20.46571,20.46571,0,0,1-3.273.33945,12.87436,12.87436,0,0,0-5.41217,2.59677l7.57559,1.06759-7.57559,1.05841a6.42761,6.42761,0,0,0,3.32819,1.75963c1.0479.13788,2.5646.11555,3.58426.805.8877.60274,1.51933,1.07088,2.12863,1.40442-.19892.00591-.38475.01247-.57057,0a20.4749,20.4749,0,0,1-3.145-.9586,13.1954,13.1954,0,0,0-5.90524.29152h-.0834v.02233h-.00985l.11556.06106,6.48239,3.83441L98.47024,54.5393a6.64338,6.64338,0,0,0,2.3985,2.89222c.91656.522,2.34331,1.09911,3.03271,2.13519a23.77331,23.77331,0,0,0,1.42347,2.09645,2.45724,2.45724,0,0,1-.51936-.22455A20.05111,20.05111,0,0,1,102.26,59.377a12.73647,12.73647,0,0,0-5.598-2.0065l-.067-.00985h-.00328l.07025.06763,4.54615,6.0589-6.12-4.62953a6.7867,6.7867,0,0,0,1.12539,3.61972c.6349.81415,1.75042,1.88831,1.975,3.1194a20.5339,20.5339,0,0,0,.51936,2.47529,2.64807,2.64807,0,0,1-.40446-.39132,23.45173,23.45173,0,0,1-1.56134-2.908,12.80661,12.80661,0,0,0-4.382-3.9782l-.06435-.04531v.01642c0-.01642,0-.01642-.01313-.01642l.03217.11228,1.88833,7.313-3.879-6.62027a6.87011,6.87011,0,0,0-.35588,3.77007c.29152,1.01638.89427,2.41752.6441,3.63219-.20485,1.04855-.39723,1.80165-.47076,2.50747a2.56974,2.56974,0,0,1-.21208-.52263,21.26791,21.26791,0,0,1-.33289-3.2737A13.16079,13.16079,0,0,0,87.009,62.23046Z"/><path class="cls-2" d="M70.95371,57.42169a6.46224,6.46224,0,0,0,2.39784-2.88829l-7.39243,1.92312,6.46926-3.82785.11228-.06106h-.00327l.00327-.02233h-.06435a13.19507,13.19507,0,0,0-5.91445-.28823,21.62289,21.62289,0,0,1-3.15486.95532c-.16018.00919-.36243.00657-.55481,0,.61587-.33682,1.23765-.80825,2.126-1.40114,1.00982-.6894,2.55475-.673,3.58426-.81087a6.54259,6.54259,0,0,0,3.3341-1.757l-7.573-1.05511,7.573-1.0676a12.97981,12.97981,0,0,0-5.40889-2.59348,21.1515,21.1515,0,0,1-3.27961-.33617,2.13392,2.13392,0,0,1-.52263-.21207,25.44263,25.44263,0,0,0,2.50419-.46486c1.19891-.25016,2.6158.34995,3.62562.63819a6.7088,6.7088,0,0,0,3.74118-.35258l-6.58154-3.87906,7.27095,1.8719.12542.042c-.0197,0-.0197-.00657-.0197-.00657h.0197l-.0486-.05449A12.84513,12.84513,0,0,0,69.351,37.37834a20.08118,20.08118,0,0,1-2.88237-1.57119,2.69129,2.69129,0,0,1-.40708-.388c.66971.18581,1.45235.30793,2.49105.51607a7.87663,7.87663,0,0,1,3.08067,1.975,6.85836,6.85836,0,0,0,3.623,1.11881l-4.59737-6.12981,6.011,4.55927.07682.06369v-.01247l-.00919-.05122a13.00693,13.00693,0,0,0-1.99141-5.60126,22.19062,22.19062,0,0,1-2.08-2.54555c-.07091-.16021-.151-.33617-.21207-.522.54824.43859,1.20547.83976,2.09711,1.43593,1.02557.6638,1.60271,2.09974,2.103,3.01041a6.80819,6.80819,0,0,0,2.91387,2.4011l-1.9264-7.40554,3.81144,6.489.06434.109v-.00656l.00657.00656.00591-.06762a12.91876,12.91876,0,0,0,.30136-5.93087,19.487,19.487,0,0,1-.9356-3.14829,2.37974,2.37974,0,0,1,0-.564c.33352.60864.78853,1.237,1.37814,2.11877.696,1.02623.67038,2.56525.81744,3.60658a6.46719,6.46719,0,0,0,1.74124,3.3282l1.05775-7.58873,1.061,7.58873a6.56823,6.56823,0,0,0,1.78261-3.3282c.13788-1.04133.11884-2.58035.81415-3.60658.59027-.8785,1.04529-1.51013,1.392-2.11878.00591.19566.00591.38147,0,.564A22.76128,22.76128,0,0,1,89.9938,28.831a13.21568,13.21568,0,0,0,.27905,5.93087l.01248.06763.01641-.00657v.00657l.05778-.109,3.81143-6.489-1.9172,7.40555a6.78542,6.78542,0,0,0,2.908-2.40111c.51016-.91067,1.084-2.34,2.103-3.01041.8785-.59617,1.55477-.98749,2.103-1.43594a4.16125,4.16125,0,0,1-.218.522,20.99877,20.99877,0,0,1-2.08332,2.54556,13.04684,13.04684,0,0,0-1.98483,5.60126l-.00657.05122v.01247l.0742-.06369,6.02672-4.55928L96.56615,39.029a6.74671,6.74671,0,0,0,3.59674-1.11881c.82072-.654,1.8916-1.74388,3.10364-1.975,1.03871-.20814,1.81806-.33026,2.48777-.51607a2.83979,2.83979,0,0,1-.40379.388,20.1034,20.1034,0,0,1-2.88566,1.5712,12.97058,12.97058,0,0,0-3.98477,4.39513l-.02889.0545h.01313v.01247l.10243-.04793,7.28079-1.87191-6.58876,3.87907a6.77141,6.77141,0,0,0,3.7576.35258c1.00325-.28824,2.40767-.88835,3.61643-.6382,1.03214.21208,1.79837.39789,2.48121.46486a1.91861,1.91861,0,0,1-.50294.21208,21.19582,21.19582,0,0,1-3.26713.33617,12.85239,12.85239,0,0,0-5.4148,2.59348l7.57231,1.06759-7.57231,1.05841A6.46091,6.46091,0,0,0,103.26,51.00034c1.042.13788,2.5646.12146,3.581.81087.88178.59289,1.51669,1.06431,2.12272,1.40114-.19566.00656-.388.00919-.5581,0a22.26386,22.26386,0,0,1-3.15485-.95532,13.10152,13.10152,0,0,0-5.89542.28824h-.08338v.02232h-.01313l.11884.06106,6.47583,3.82785-7.38913-1.9172a6.5753,6.5753,0,0,0,2.39128,2.88237c.91722.5292,2.34068,1.09649,3.02943,2.13519l.42021-.545c-.67037-1.0387-2.09974-1.606-3.00713-2.12862a3.79113,3.79113,0,0,1-1.369-1.26l8.05622,2.08988,2.37615.606v-.00328l-2.10039-1.24684L101.176,52.88866a11.42558,11.42558,0,0,1,4.20013.13459,20.54771,20.54771,0,0,0,3.13518.93628,5.04034,5.04034,0,0,0,1.85022-.24687c.82663-.24425,1.57382-.54562,1.57382-.54562a6.2876,6.2876,0,0,1-1.72812-.21142,11.27106,11.27106,0,0,1-3.16733-1.83053c-1.02886-.68613-2.55212-.65724-3.59081-.7787a4.1004,4.1004,0,0,1-1.74717-.65724l8.2394-1.16411,2.43328-.33683-2.43328-.33945-8.14617-1.151a11.739,11.739,0,0,1,3.93684-1.51341,19.192,19.192,0,0,0,3.27305-.34274,4.90034,4.90034,0,0,0,1.59351-.91724,15.12291,15.12291,0,0,0,1.25012-1.109,6.497,6.497,0,0,1-1.67622.47143,11.98241,11.98241,0,0,1-3.623-.47142c-1.20547-.24688-2.60989.365-3.61315.62834a4.17528,4.17528,0,0,1-1.87518.08667l7.181-4.23493,2.09643-1.2475-2.35906.59618L100.025,40.71242a11.62333,11.62333,0,0,1,3.06818-2.88894,20.69433,20.69433,0,0,0,2.8791-1.57054,4.9447,4.9447,0,0,0,1.12537-1.47467,16.458,16.458,0,0,0,.72749-1.49438,6.30625,6.30625,0,0,1-1.37488,1.06432,10.944,10.944,0,0,1-3.52713.96517c-1.20811.22783-2.25338,1.33679-3.09642,1.975a3.90168,3.90168,0,0,1-1.69266.78855l5.00115-6.66164,1.47467-1.9461v-.01642l-1.95922,1.47468-6.53952,4.96307a11.54875,11.54875,0,0,1,1.70513-3.841,21.80764,21.80764,0,0,0,2.07085-2.56788,5.05607,5.05607,0,0,0,.478-1.7826c.09914-.87522.09914-1.673.09914-1.673a6.039,6.039,0,0,1-.84959,1.5062,11.13389,11.13389,0,0,1-2.89487,2.24155c-1.02558.67956-1.58367,2.1155-2.10959,3.01961a4.01213,4.01213,0,0,1-1.2626,1.37881l2.08-8.07919.606-2.37222-1.25012,2.11287-4.15483,7.08776a11.48644,11.48644,0,0,1,.12147-4.206,21.09116,21.09116,0,0,0,.92708-3.15748,5.00619,5.00619,0,0,0-.23111-1.83711,16.54155,16.54155,0,0,0-.55153-1.58038A6.05372,6.05372,0,0,1,90.6832,23.862a11.802,11.802,0,0,1-1.81149,3.18309c-.69269,1.0328-.6638,2.562-.7984,3.59083a4.08058,4.08058,0,0,1-.66642,1.757v.01576L86.2362,24.13777l-.34273-2.43065h-.00329l-.33354,2.43066-1.16345,8.25515a4.01276,4.01276,0,0,1-.64476-1.757c-.13458-1.02886-.11227-2.558-.80429-3.59083a11.82657,11.82657,0,0,1-1.8148-3.18308,6.603,6.603,0,0,1-.20157-1.72155,13.87,13.87,0,0,0-.55153,1.58038,5.1764,5.1764,0,0,0-.24687,1.83711,23.112,23.112,0,0,0,.92972,3.15748,11.07094,11.07094,0,0,1,.12147,4.206l-4.15812-7.08776-1.23436-2.11287.60274,2.37222,2.08726,8.07919a4.08577,4.08577,0,0,1-1.27573-1.37881c-.51607-.90411-1.07744-2.34005-2.10959-3.0196a11.56869,11.56869,0,0,1-2.89157-2.24156,6.16492,6.16492,0,0,1-.8437-1.50619,15.26541,15.26541,0,0,0,.09654,1.673,5.07008,5.07008,0,0,0,.47731,1.78261A21.53778,21.53778,0,0,0,73.993,32.04955a11.42114,11.42114,0,0,1,1.72155,3.841l-6.55594-4.96307L67.206,29.45278l-.00657.01642,1.48122,1.9461,5.01429,6.66163a3.97962,3.97962,0,0,1-1.715-.78855c-.82072-.63819-1.88569-1.74715-3.09379-1.975a10.95952,10.95952,0,0,1-3.52649-.96517,6.26733,6.26733,0,0,1-1.36305-1.06431,12.58667,12.58667,0,0,0,.72814,1.49437A4.97249,4.97249,0,0,0,65.84029,36.253a21.13757,21.13757,0,0,0,2.89483,1.57054A11.95193,11.95193,0,0,1,71.8,40.71244l-7.94722-2.06822-2.37616-.59617,2.1004,1.2475,7.17771,4.23492a4.17921,4.17921,0,0,1-1.87519-.08667c-1.00653-.26328-2.41095-.87521-3.61643-.62834a11.93442,11.93442,0,0,1-3.63547.47142,6.277,6.277,0,0,1-1.65129-.47142,12.76652,12.76652,0,0,0,1.2475,1.109,5.00089,5.00089,0,0,0,1.58366.91724,19.42226,19.42226,0,0,0,3.27633.34273,11.71305,11.71305,0,0,1,3.93684,1.51341l-8.13631,1.151-2.43657.33945,2.43657.33682,8.22954,1.16411a4.01413,4.01413,0,0,1-1.74715.65724c-1.03542.12146-2.57116.09258-3.581.7787a11.50533,11.50533,0,0,1-3.18375,1.83054,6.44591,6.44591,0,0,1-1.70907.21142,16.45212,16.45212,0,0,0,1.57449.54562,4.96392,4.96392,0,0,0,1.83052.24687,20.50875,20.50875,0,0,0,3.14829-.94285,11.63663,11.63663,0,0,1,4.21261-.128l-7.095,4.18043-2.103,1.24684.00656.00329,2.3722-.606,8.05687-2.08989a3.98037,3.98037,0,0,1-1.37882,1.26Z"/><path class="cls-2" d="M87.57959,43.713l.21534-1.7918a25.18474,25.18474,0,0,1,4.62559,0,7.07442,7.07442,0,0,1,2.99465,2.39125c.17006.57713-1.28558-.66643-2.34332-.99406a11.28955,11.28955,0,0,0-5.49226.39461"/><path class="cls-2" d="M92.46583,44.91518a10.509,10.509,0,0,0-3.31835-.09323c-.53183.14773-1.60927,1.61321-1.60927,1.74124a.52171.52171,0,0,0,.90082-.09,1.755,1.755,0,0,1,1.08007-.63163,1.147,1.147,0,0,0-.05712.39461,1.42348,1.42348,0,0,0,2.84692,0,1.44375,1.44375,0,0,0-.05515-.42678,3.43424,3.43424,0,0,1,1.39786.6638c.539.40051,1.04855.72814,1.04855.388a6.24646,6.24646,0,0,0-2.23433-1.9461"/><path class="cls-2" d="M83.97627,43.68082l-.22783-1.78852a24.69718,24.69718,0,0,0-4.61312-.00328A7.08005,7.08005,0,0,0,76.144,44.277c-.18579.56465,1.27639-.66315,2.3499-.99669a11.396,11.396,0,0,1,5.48242.40051"/><path class="cls-2" d="M79.09068,44.883a10.98767,10.98767,0,0,1,3.31768-.10572c.52922.151,1.60993,1.63817,1.60993,1.76357a.53132.53132,0,0,1-.90739-.10571,1.77413,1.77413,0,0,0-1.06759-.62571,1.20969,1.20969,0,0,1,.03808.37228,1.4297,1.4297,0,1,1-2.8594,0,1.78713,1.78713,0,0,1,.07026-.41693,3.63544,3.63544,0,0,0-1.39458.67037c-.54167.41036-1.02885.73733-1.02885.41036A5.97369,5.97369,0,0,1,79.09068,44.883"/><path class="cls-1" d="M46.0307,104.55218c0,29.54929,17.92132,53.53276,40.0677,53.53275,22.12142,0,40.03942-23.9835,40.03941-53.53279v-.74062l-80.10383,0c0,.60274-.00328.66709-.00328.74062"/><path class="cls-5" d="M86.09834,51.00035c-22.09188,0-39.99084,23.86138-40.06108,52.85914l80.10711,0c-.08012-28.99777-17.98567-52.85911-40.046-52.8591"/><path class="cls-6" d="M97.121,90.74432a78.9308,78.9308,0,0,0-.70845-8.27157c-.51673-1.97761.51606-7.59792.218-8.75875-.41035-1.63816-2.31838-8.28076-9.00891-8.56308-6.97943-.27248-8.14026,3.4339-8.14026,4.65514,0,1.25078,3.62957,2.74121,4.70964,2.68671A18.54772,18.54772,0,0,0,72.44744,87.06356c-.60208,2.66767,9.22033,4.92433,11.064,5.26115,1.83383.33682,13.79867,2.0774,13.60955-1.58039"/><path class="cls-7" d="M46.58223,114.779s19.01121-1.55807,21.56333-2.40112c1.63488-.53839,6.43446-2.28227,8.04964-2.78915a38.01782,38.01782,0,0,1,6.90261-.6185c.58041,0,1.39785,1.16674,1.39785,1.16674l2.85021-2.68343s3.43324.0801,4.44963.0801,7.01161,3.47854,8.63728,3.89219c0,0,8.49547,1.44577,10.089,2.02291,1.5771.57056,13.91026,3.33737,14.41716,3.33737,0,0-3.67422,13.34627-4.09115,13.991-.43266.631-20.58175-9.43239-21.19434-10.041-.6185-.61259-.43923,2.51338-3.02026,2.51338,0,0-1.87518,2.09317-3.82128,1.59286,0,0-1.79508,1.66115-3.30848,1.66115,0,0,.42348,1.69266-4.60066.57385-.36506,0-3.52319,3.39845-5.61965-.14116,0,0-3.08788,1.72811-3.80553-1.15426,0,0-2.27307,1.42018-2.6-2.17065a2.82325,2.82325,0,0,1-3.29273-1.50356S53.02327,127.34,50.33327,129.05239a82.24711,82.24711,0,0,1-3.751-14.27335"/><path class="cls-8" d="M71.05027,126.75041c-1.8568-.952-11.58335.8621-17.11042,10.198a47.28092,47.28092,0,0,0,2.6447,4.21589,45.46614,45.46614,0,0,0,4.0557-6.87044c3.11281-6.79952,10.8775-7.07857,10.41-7.54343"/><path class="cls-8" d="M67.51395,149.52842c-1.99731-7.181,3.77335-12.4067,3.11612-12.47761-1.587.37819-5.81531,5.17121-6.70366,12.39751a40.6726,40.6726,0,0,0,4.27039,3.2796c-.17991-1.0932-.41365-2.17-.68285-3.1995"/><path class="cls-8" d="M61.96456,147.60793a35.717,35.717,0,0,0,.83319-5.28611c.59945-7.44757,7.81-10.37788,7.21053-10.6602-1.82134-.22718-8.66879,3.67093-11.63783,11.907a43.32052,43.32052,0,0,0,3.59411,4.03927"/><path class="cls-8" d="M101.4518,133.03384c-.59615.28233,6.598,3.22511,7.19413,10.66283a38.24878,38.24878,0,0,0,.66052,4.447,46.79614,46.79614,0,0,0,3.53633-3.82194c-3.078-7.82247-9.62413-11.50259-11.391-11.28789"/><path class="cls-8" d="M74.40015,154.68386c-4.31174-6.08844-.68285-12.98448-1.30135-12.80786-1.28558.83057-3.363,5.96961-2.38206,12.3522a33.91963,33.91963,0,0,0,4.81863,2.1864c-.36243-.59945-.7439-1.1825-1.13522-1.73074"/><path class="cls-8" d="M100.82346,138.43617c-.673.05778,5.10424,5.27691,3.11941,12.48023-.1602.61915-.30793,1.23108-.44516,1.87913a35.07556,35.07556,0,0,0,3.885-2.91456c-1.12472-6.70956-5.036-11.0955-6.55922-11.4448"/><path class="cls-8" d="M98.36786,143.26727c-.63491-.17662,3.00057,6.70366-1.31774,12.8013-.02231.019-.03217.04793-.06106.07091a32.61955,32.61955,0,0,0,3.91123-1.80231c.54233-5.77394-1.34927-10.307-2.53243-11.0699"/><path class="cls-9" d="M101.47149,117.49461c-1.00062-.52263-.77279-.35586-1.54887-1.41689-.61521,1.34336-1.24025,1.00982-1.23765.99669,0,0-5.94334-2.33348-6.684-7.30574,0,0-1.31775,3.946-3.16732-.43925,0,0-2.32758,4.57766-4.74182,4.145-2.40767-.41036-2.72545-.09323-2.72545-.09323l1.212.66051-1.34336.20551s2.15489,2.73793,5.12,2.23433c2.9303-.50031,3.14174-1.30462,3.37612-1.51341.20157-.22718,5.96961,4.101,5.96961,4.53038,0,.25016-.65723.57385-1.43659.57385a34.46316,34.46316,0,0,1-4.33145-2.43984l6.69776,5.62359,2.87254-1.59023.15034-1.39195c3.45623,2.04589,14.09017,8.21706,20.287,10.31089,0,0,1.39786-1.39786,2.99465-6.45088a66.47463,66.47463,0,0,1-21.46354-6.63931"/><path class="cls-9" d="M87.20143,119.35077s4.03336,3.25728,5.10095,3.25728c1.23109,0,1.46483-1.65392,1.10568-2.06428-.37162-.42021,2.23171,2.81146,2.23171,2.81146l-1.91064,1.04528-2.00059-.35915Z"/><path class="cls-9" d="M85.47,122.31982l3.41815,3.41748s.673,1.05118,2.558.109c1.847-.92643.97436-1.68675.62506-1.74387-.34273-.05778-.83648-.99078-.83648-.99078s-1.57776,1.648-2.52,1.151c-.93956-.5036-3.24481-1.94281-3.24481-1.94281"/><path class="cls-9" d="M48.39045,122.31984s20.826-3.38861,24.13777-4.19358c1.50947-.22455,5.03924.436,8.20066,2.03276a26.05924,26.05924,0,0,0,4.50085,1.90736l4.85408,3.42733-.82729,1.60927s-1.98746.176-3.34986.176c-1.35321,0-3.09708,1.23765-4.60721,1.23765a2.30314,2.30314,0,0,1-2.01635-1.58038s-2.29539,1.7314-3.80553-1.151c0,0-2.6,1.08335-2.6-2.17656,0,0-3.07475.79184-3.07475-1.65785,0,0-17.25749,5.617-19.47279,7.10746,0,0-1.93953-5.36358-1.93953-6.73845"/><path class="cls-7" d="M82.81288,123.10837s-1.2856,1.24684-2.07743,1.24684c-.79249,0-2.17063-.38475-1.302-1.45235.60273-.76885,2.38534-1.17659,2.80227-.72749.4294.4294.57715.13788.57715.933"/><path class="cls-7" d="M79.00734,121.38026s-1.3821,1.23765-2.08727,1.23765c-.715,0-2.15423-.36243-1.30462-1.46548.61522-.74653,2.37878-1.14442,2.818-.70845.42282.41692.57383.13788.57384.93628"/><path class="cls-10" d="M96.74871,91.34377c-.25344,1.60271-5.89869,2.06495-12.6122,1.01311-6.726-1.06431-11.9773-3.22182-11.70811-4.81862.2344-1.625,5.89279-2.07741,12.61878-1.03215,6.71613,1.05775,11.95825,3.22511,11.70153,4.83766"/><polygon class="cls-8" points="87.528 87.429 84.182 86.82 84.182 108.97 87.528 107.402 87.528 87.429"/><polygon class="cls-11" points="85.192 108.169 86.127 108.169 86.127 90.132 85.192 89.847 85.192 108.169"/><polygon class="cls-8" points="94.191 136.118 88.705 136.118 88.705 130.616 83.207 130.616 83.207 136.118 77.68 136.118 77.68 141.623 83.207 141.623 83.207 156.63 88.705 156.63 88.705 141.623 94.191 141.623 94.191 136.118"/><rect class="cls-11" x="83.20683" y="131.16195" width="5.49817" height="0.43859"/><polygon class="cls-11" points="88.179 136.637 88.618 137.096 93.681 137.096 93.681 136.637 88.179 136.637"/><rect class="cls-11" x="78.02313" y="136.64701" width="6.06875" height="0.45829"/><rect class="cls-11" x="83.72945" y="131.28014" width="0.44582" height="5.82516"/><polygon class="cls-11" points="83.729 151.817 84.175 151.817 84.175 141.539 83.729 141.093 83.729 151.817"/><path class="cls-12" d="M89.88484,77.21225a7.53113,7.53113,0,0,0-.824.10243s.32369-.03217.824-.10243"/><path class="cls-2" d="M89.88484,77.21225a7.53113,7.53113,0,0,0-.824.10243s.32369-.03217.824-.10243"/><path class="cls-2" d="M87.52839,93.21306c5.56909.52526,9.8165-.07748,10.05748-1.59024,1.23368-7.58545-.46488-9.00891-.46488-9.00891a8.63248,8.63248,0,0,0,0-5.53692,10.19257,10.19257,0,0,0-8.50269-12.27866c-6.60058-1.08335-9.50854,2.82132-9.762,4.33145-.49046,2.98152,2.20611,3.4687,3.751,3.41749C72.54067,76.63513,71.75869,86.4037,71.59851,87.37149c-.29876,1.80822,5.2769,4.21917,12.46446,5.39575l.24689-.696c-6.37342-1.042-11.35224-3.02288-11.10866-4.43649.22126-1.41427,5.57172-1.70579,11.94512-.66709,6.36749,1.04855,11.349,3.036,11.10208,4.44043-.176,1.16346-3.81144,1.55806-8.62678,1.08664ZM73.37127,86.07935s2.07082-11.61487,13.75659-13.48087c0,0-6.75159-.60274-6.98927-2.67686-.237-2.09055,3.71885-4.7254,8.29717-3.97887,2.45889.40117,7.9794,3.38268,7.09171,8.83556-.25016,1.50094-3.95326,2.19626-5.63935,2.43394,3.08066-.13526,5.4148.23374,5.24475,1.29477-.24688,1.478-3.036,2.70576-5.98537,2.126,4.11018,2.20216,4.3472-.86274,6.37341,1.971.72486.98158.17333,1.37881-4.37281-.019-6.90918-2.10958-8.98921-1.11224-8.98921-1.11224s7.13963.31056,12.5446,4.28613c1.13192.824,1.321,3.30193.63161,3.4884A36.25913,36.25913,0,0,0,85.13058,86.2205C80.1583,85.40635,75.72442,85.39322,73.37127,86.07935Z"/><polygon class="cls-13" points="87.557 87.397 84.153 86.791 84.153 109.018 87.557 107.447 87.557 87.397"/><path class="cls-2" d="M121.30672,129.793s-18.09135-7.08249-20.91595-9.48688c-.46158-.38475-1.05775-.82072-1.69266-1.31447a54.36258,54.36258,0,0,0-7.768-5.97222,10.90948,10.90948,0,0,1-1.94282-2.90142c.74391,2.7504-1.58038,2.497-2.908,3.837-1.08662,1.07088-3.254.10637-3.75694-.40379-.49112-.50294,2.03211-1.85943,4.17388-4.50741.51606-.6441.59944-1.52261,3.05176-1.16674,2.44641.35258,3.43062.24687,4.37018.97107.81088.61259,6.30578,3.45294,7.32545,3.45294,1.00653,0,5.97289.33026,8.61758,1.4878,2.17065.94876,14.30487,3.69587,14.863,3.69587.56072,0-2.23827,9.07325-3.41748,12.30821m-24.16995-7.28734c-.64148,0-7.38979-4.94009-7.38979-4.94009.26591.28167,1.3624,1.37488,1.3624,1.37488a57.15908,57.15908,0,0,1,4.08786,4.20931c.29152.73734-1.25013,1.05184-1.90145,1.05184-.64411,0-5.00444-3.66436-5.00444-3.66436.87522,1.20548,4.07474,3.96245,3.74775,4.74772-.24359.61915-1.109.61915-1.7662.61915-.59945,0-3.69325-2.4208-3.69325-2.4208,1.25669,1.74124,1.67362,2.254,1.81478,2.78586.2239.757-1.32431.50031-1.866.46158a1.52066,1.52066,0,0,1-.41365-.14051,1.96113,1.96113,0,0,0,.36836-1.2475c0-.6441-.72422-1.734-2.93295-1.734,0,0,.70516-3.08789-3.53961-2.22842-1.07745-1.4714-1.87847-2.09055-4.95651-.85946a2.65509,2.65509,0,0,0-3.9723-.57976,4.914,4.914,0,0,0-1.34927,1.43922c-4.63281.952-19.77415,6.816-19.77415,6.816-1.539-2.84364-3.25466-12.65685-3.25466-12.65685,9.21113-.57123,21.14049-2.1641,22.72416-2.671,1.58366-.497,5.82844-2.30787,7.48564-2.87253,1.65131-.58632,4.66827-.44582,6.18431-.44582,0,0,.37228.25672.824.587-1.52258,1.53574-3.145,3.0393-3.145,3.60987,0,.47471.91724,1.279,3.08066,1.63159,3.67093.59683,4.01106-1.94872,5.30909-1.94872a4.97981,4.97981,0,0,0,1.06169.455,2.75286,2.75286,0,0,1,.583.33682c.04793.03808.48718.36177,1.17987.86209,1.956,1.49108,4.94666,3.95325,6.19744,5.19024C99.32645,121.419,97.775,122.50562,97.13677,122.50562Zm-15.72833,5.72931c-.57713,0-1.76947-.757-1.3276-1.193a17.83372,17.83372,0,0,0,3.20279-2.34333c.63819,0,2.98152.73077,1.65129,1.70513C83.24883,127.61249,81.98886,128.23493,81.40844,128.23493Zm-4.57175-1.369c-1.00653-.50688-.15036-1.87585,1.52917-3.14239,1.497-.90673,2.44969-2.31772,4.26053-.97436.43335.61259-1.01309,1.94938-2.07084,2.7445C79.331,126.44247,77.513,127.19294,76.83669,126.866ZM73.823,125.34271a2.51226,2.51226,0,0,1,.53248-3.11612c.41036-.327,2.51995-2.28555,4.06159-1.27245.75375.48389-.48061,1.70185-1.55149,2.78586C75.78814,124.82664,74.1375,125.6664,73.823,125.34271Zm-3.06163-2.33348c-.64738-.29874-.46814-1.59023.5384-2.35318.606-.45566,1.84367-.96845,2.24155-.57385a1.36922,1.36922,0,0,1-.17,1.776C72.75212,122.47674,71.76791,123.47409,70.76137,123.00923Zm54.27339-6.74243c-1.45826,0-13.92337-2.85348-15.66726-3.71885-2.1352-1.03542-6.54346-.85617-8.35824-1.39785-3.49431-1.08335-7.33792-4.254-8.60446-3.9979-1.62569.327-5.45945-.79183-6.13966.31779a12.3409,12.3409,0,0,1-1.32038,1.61518,2.98079,2.98079,0,0,0-2.13189-.75637H76.98769c-1.37224,0-6.69446,3.09052-8.48955,3.52977-1.79574.44253-15.95287,2.254-22.07938,1.98747,0,0,1.68608,11.40673,4.10688,15.95287,0,0,10.48358-5.11343,18.95672-7.03393a1.033,1.033,0,0,0,.24031.4235c.42677.42021,1.5423,1.4077,2.70576,1.042,0,.78855.13131,2.8791,2.82788,2.42015,0,.79183,1.76619,2.33413,4.10033,1.07744.28233,1.15755,1.9717,2.28555,4.55273.70188.41034-.25278.76621-.49637,1.05773-.715a.639.639,0,0,0,.14707.08076c1.23767.65066,4.54286,1.44578,5.40232-.57386a2.29842,2.29842,0,0,0,2.7793-1.60336s2.69656.67365,3.405-1.64473c0,0,3.15814.28889,3.42077-2.29868,2.83051,2.29211,20.53054,9.6983,20.53054,9.6983,1.7767-5.38,2.33085-7.39964,4.059-13.31737C124.93892,117.26677,125.195,116.2668,125.03476,116.2668Z"/><path class="cls-2" d="M70.678,131.39242c-1.48452-.70188-9.4127,2.30525-12.97725,11.29774.22061.29481.43859.59617.66971.8785,2.969-8.24268,9.81977-12.13422,11.64112-11.907.59617.28232-6.61437,3.2192-7.21382,10.66611a36.654,36.654,0,0,1-.82728,5.28348c.24687.2344.49374.48127.757.72815a31.41986,31.41986,0,0,0,.66971-4.74181c.62834-9.69831,8.50267-11.63785,7.28078-12.20513"/><path class="cls-2" d="M71.17833,136.56691c-1.46222-.128-6.76146,4.28943-8.06017,12.14407.26329.26591.539.50031.80825.73734.88835-7.2263,5.11671-12.016,6.70039-12.4008.6605.0742-5.11016,5.2999-3.10956,12.4809.26263,1.02951.49965,2.1063.67956,3.1995.32041.20551.65068.41693.98092.606-.19892-.933-.39723-1.87519-.696-2.81147-2.69263-9.307,4.0235-13.84329,2.69658-13.95556"/><path class="cls-2" d="M73.42249,141.23452c-1.3079.35258-4.36689,5.4693-3.67748,12.44544.31778.18646.64148.37228.97173.545-.98421-6.37931,1.09648-11.52163,2.38206-12.34892.6185-.18253-3.01039,6.71942,1.29478,12.80786.39789.54824.77936,1.13129,1.14179,1.73074.38738.13526.79512.27248,1.19235.38475-.33683-.50622-.68941-1.02229-1.0676-1.51932-5.70632-7.829-.93957-14.3784-2.23763-14.04551"/><path class="cls-2" d="M108.64593,143.69667c-.59617-7.43772-7.79028-10.37721-7.19413-10.66283,1.76685-.2147,8.31294,3.472,11.391,11.28789.22455-.27248.4491-.55744.66708-.849-3.67093-8.53157-11.29183-11.39425-12.74418-10.71469-1.20548.57714,6.66558,2.52323,7.30312,12.215a28.5474,28.5474,0,0,0,.48456,3.87578c.25016-.23374.50622-.46485.75309-.70516a38.24878,38.24878,0,0,1-.66052-4.447"/><path class="cls-2" d="M100.2785,137.9549c-1.33023.11227,5.3892,4.63609,2.68673,13.95556-.14117.49046-.27248.98421-.39723,1.46811.32041-.19238.61851-.37819.92971-.583.1346-.64805.285-1.26.44516-1.87913,1.98483-7.20332-3.7924-12.42245-3.11941-12.48023,1.52326.3493,5.4345,4.74114,6.55922,11.4448.27576-.23374.52592-.44253.78921-.68284-1.539-7.29655-6.48238-11.39687-7.89339-11.24323"/><path class="cls-2" d="M98.02513,142.6166c-1.27965-.3493,3.4431,6.15214-2.17392,13.94244.3946-.1346.77279-.27248,1.14113-.41956.02561-.0197.03547-.05187.06434-.07091,4.31175-6.09764.67627-12.97792,1.31118-12.8013,1.18316.76294,3.07476,5.296,2.53243,11.0699.29546-.15364.59026-.31384.89492-.49965.25606-6.33532-2.53637-10.88409-3.77008-11.22092"/><path class="cls-2" d="M71.76791,126.72152c-1.29806-1.3079-11.8775-1.01637-18.36972,9.265.17267.3145.35585.64739.54166.96189,5.508-8.7233,13.13156-10.54137,15.75393-10.03121.478.46158-5.94072.57714-9.05353,7.37666a45.30483,45.30483,0,0,1-4.0557,6.87044c.17662.26591.369.52263.56138.782a33.29223,33.29223,0,0,0,3.61642-6.25456c3.90139-8.88351,11.96088-8.01486,11.00556-8.97018"/><path class="cls-2" d="M88.17908,131.1521v5.4949h5.48243v4.44634H88.17908v15.00412H83.7426V141.09335H78.21551V136.647h5.52707v-5.4949Zm-5.51394-1.06759v5.51066H77.1512V142.161h5.51394v15.00411h6.56908V142.16094H94.716v-6.56578H89.23422V130.0845Z"/><path class="cls-2" d="M89.08057,144.24164c1.30462,1.26654,3.36562,1.79245,2.89815,4.53367.68873-1.94938,1.05773-3.0393,5.28609-3.92437-1.39128,4.5015-2.41095,3.273-2.41095,7.265a6.44338,6.44338,0,0,1-3.23758,5.1003c-2.35974,1.20876-9.24265,1.23437-12.01275.33027-4.59734-1.478-6.50472-8.41207-3.193-11.05743,1.88833,5.4601.48719,1.84039,2.69592,3.88235-1.30134-3.52648-.03546-6.47255,2.27306-9.03124,0,5.29662,1.28559,4.60064,2.757,9.72392,0-2.29539,1.629-1.94938,1.05183-7.75812,3.80553,4.23492,2.76026,5.4949,3.145,7.20331.96779-4.33735,1.59351-2.80162.74718-6.26769"/><path class="cls-12" d="M89.73124,145.40247c1.14443,1.62831,2.09317,2.04852,1.63816,6.181.8877-2.15423,1.0164-5.12,4.8764-5.84749-.96516,3.43653-2.2061,3.16406-2.20609,6.49816,0,2.14832-2.04853,3.83113-2.994,4.25791-2.17393.9934-8.53091,1.02558-11.10273.25607-4.23821-1.21138-5.32485-7.15867-3.7123-8.77451,1.98484,5.38591.55153-.933,4.665,6.02082-1.36308-2.88238-2.27638-8.46985-.08669-11.62143,0,4.41418,2.58364,6.28673,3.44638,12.24977,0-3.86,1.50356-5.53364,1.50356-9.38381,3.51663,3.52976,1.73731,6.33466,2.07742,8.07591.89754-3.60658,2.68015-4.00775,1.89488-7.91242"/><path class="cls-3" d="M78.39805,156.02065a3.97708,3.97708,0,0,1-.99406-2.98808s1.76029,2.62237,3.72543,2.41751c.38147-.03545-.48062-2.18968-.16021-3.84754,0,0,.53248,3.24809,2.87253,4.56518,0,0,3.22183-1.7918,2.39454-5.26378a8.86989,8.86989,0,0,1,.715,2.5902c.05778.53576.03546,1.56462.03546,1.56462s.64738.27576,1.68346-1.53574c.673-1.21467,1.25669-2.16408,1.25669-2.16408a5.13759,5.13759,0,0,1,.54826,2.60662s1.00652-2.57116,2.31116-3.21855c-.61261.97764-.25937,3.81143-2.07415,5.88294-2.43.86209-8.31948.84962-10.76919.11819a5.23655,5.23655,0,0,1-1.54493-.72749"/><path class="cls-2" d="M46.7201,104.6835c0-29.0457,17.58773-52.66676,39.18652-52.66677,21.60141,0,39.18918,23.621,39.1892,52.66672,0,29.03322-17.58773,52.65822-39.18914,52.65823-21.59879,0-39.18656-23.625-39.18658-52.65818m-1.75372,0c0,30.00167,18.36386,54.41454,40.9403,54.41453,22.57578,0,40.93633-24.41291,40.93631-54.41458,0-30.0043-18.3606-54.43358-40.93637-54.43357C63.33018,50.24989,44.96637,74.6792,44.96638,104.6835Z"/><path class="cls-14" d="M65.93614,57.82221c-.95794-.61522-3.3144.32106-5.187,1.11618a7.35293,7.35293,0,0,0-.44582-6.45088s-2.56131,2.69329-2.05771,4.3413c.49048,1.6572,1.11552,3.472.38147,4.33735a11.49382,11.49382,0,0,1,3.3722-.564,5.53118,5.53118,0,0,0,3.93682-2.77995"/><path class="cls-15" d="M60.27775,52.99439a8.529,8.529,0,0,1,.866,5.07141c-.52592,2.4753-1.11881-2.0807-.91722-3.00713a10.735,10.735,0,0,0,.05119-2.06428"/><path class="cls-15" d="M66.16069,57.54973s-1.82725,3.27369-4.28612,2.73136c-2.4589-.52854,4.28612-2.73136,4.28612-2.73136"/><path class="cls-2" d="M61.99932,60.60216a11.69771,11.69771,0,0,0-3.36892.564c.73077-.86537.10573-2.68015-.38475-4.33735-.5036-1.648,2.05508-4.33145,2.05508-4.33145a7.343,7.343,0,0,1,.44845,6.441c1.87256-.78921,4.229-1.7314,5.187-1.11618a5.537,5.537,0,0,1-3.93682,2.77995M67.31824,57.316s-2.2409-.81415-3.54552-.30793a13.56806,13.56806,0,0,0-2.17065.9586c1.54493-2.56459-1.26982-6.86714-1.62569-6.84154a17.90431,17.90431,0,0,0-2.08332,2.78915c-.80825,1.09648-.98486,2.70576-.04858,4.92433.83385,1.96186-1.35583,4.58489-1.35583,4.58489,1.696-1.5968,2.14175-1.52655,5.16136-1.76357C64.64794,61.4196,67.31824,57.316,67.31824,57.316Z"/><path class="cls-14" d="M60.81024,61.93567c-.96189-.61259-3.30848.33683-5.19025,1.11553A7.2801,7.2801,0,0,0,55.17091,56.62s-2.55805,2.671-2.05839,4.31831c.49047,1.65129,1.12866,3.47527.39461,4.3472a11.818,11.818,0,0,1,3.35971-.56072,5.545,5.545,0,0,0,3.9434-2.78914"/><path class="cls-15" d="M55.13872,57.1072a8.55828,8.55828,0,0,1,.88179,5.07534c-.53511,2.47793-1.1221-2.08069-.914-3.00056a10.4106,10.4106,0,0,0,.03217-2.07478"/><path class="cls-15" d="M61.02823,61.67566s-1.80822,3.26057-4.28614,2.732c-2.44641-.53577,4.28614-2.732,4.28614-2.732"/><path class="cls-2" d="M56.86684,64.72481a11.78077,11.78077,0,0,0-3.35643.56072c.73077-.87193.09586-2.69591-.39459-4.34392C52.61286,59.291,55.16761,56.62,55.16761,56.62A7.27674,7.27674,0,0,1,55.62,63.0512c1.88177-.7787,4.22836-1.72483,5.187-1.11553a5.54069,5.54069,0,0,1-3.94012,2.78914M62.195,61.43207s-2.2409-.81744-3.54552-.30465a15.04223,15.04223,0,0,0-2.17064.95861c1.5423-2.58364-1.26-6.86387-1.62832-6.84745a19.85272,19.85272,0,0,0-2.08069,2.77929c-.81416,1.103-.98421,2.73465-.05121,4.94075.83319,1.96186-1.37225,4.58423-1.37225,4.58423,1.71826-1.5968,2.16408-1.52589,5.17121-1.7662C59.528,65.54225,62.195,61.43207,62.195,61.43207Z"/><path class="cls-14" d="M57.12356,66.34722c-1.00717-.5292-3.27961.58632-5.07535,1.52261a7.39893,7.39893,0,0,0-.96189-6.39245s-2.33085,2.87844-1.70185,4.47852c.62507,1.606,1.388,3.37613.72423,4.29927a11.66463,11.66463,0,0,1,3.30191-.81744,5.47944,5.47944,0,0,0,3.71295-3.09051"/><path class="cls-15" d="M51.106,61.9836a8.50479,8.50479,0,0,1,1.2626,4.992c-.32041,2.50025-1.2823-1.99075-1.1477-2.93359a11.84068,11.84068,0,0,0-.1149-2.05838"/><path class="cls-15" d="M57.34154,66.07146s-1.57119,3.39844-4.07209,3.05834c-2.50025-.346,4.07209-3.05834,4.07209-3.05834"/><path class="cls-2" d="M53.41061,69.441a11.53162,11.53162,0,0,0-3.30191.81415c.66378-.92314-.09916-2.69328-.72423-4.29927-.629-1.60008,1.69857-4.47852,1.69857-4.47852a7.37836,7.37836,0,0,1,.96517,6.39573c1.79574-.93957,4.06818-2.06166,5.07535-1.52589a5.496,5.496,0,0,1-3.71295,3.0938m5.05893-3.70311s-2.3013-.63162-3.56782-.02888a13.46859,13.46859,0,0,0-2.07415,1.12209c1.32694-2.69-1.81479-6.745-2.17392-6.6879a20.64934,20.64934,0,0,0-1.83383,2.93031c-.74391,1.16739-.78527,2.80555.30793,4.92105.99669,1.89488-.9842,4.69059-.9842,4.69059,1.58038-1.73731,2.02619-1.70251,5.00771-2.16408C56.12622,70.04375,58.46954,65.73791,58.46954,65.73791Z"/><path class="cls-14" d="M54.11906,70.94786c-1.0735-.38213-3.17981,1.03871-4.84357,2.18313a7.413,7.413,0,0,0-1.77014-6.22961s-1.952,3.15814-1.12209,4.67155c.82729,1.51932,1.8115,3.16733,1.27311,4.17058A11.648,11.648,0,0,1,50.83026,74.5a5.53322,5.53322,0,0,0,3.2888-3.55209"/><path class="cls-15" d="M47.57954,67.42073a8.50645,8.50645,0,0,1,1.90408,4.78054c-.01641,2.52-1.52-1.80821-1.50356-2.75106a11.89671,11.89671,0,0,0-.40052-2.02948"/><path class="cls-15" d="M54.27992,70.659s-1.10961,3.56193-3.62956,3.55209c-2.51666-.01248,3.62956-3.55209,3.62956-3.55209"/><path class="cls-2" d="M50.83026,74.50586a11.27587,11.27587,0,0,0-3.17389,1.23765c.53839-1.00325-.44254-2.65126-1.27311-4.16467-.824-1.516,1.12209-4.67746,1.12209-4.67746A7.41754,7.41754,0,0,1,49.27549,73.131c1.66376-1.151,3.77007-2.562,4.84357-2.18313a5.5626,5.5626,0,0,1-3.2888,3.558m4.533-4.32423s-2.35646-.3401-3.52977.4386a14.76816,14.76816,0,0,0-1.93624,1.36634c.9934-2.82788-2.63223-6.44431-2.99138-6.35436a20.02941,20.02941,0,0,0-1.45563,3.16405c-.57976,1.25341-.41364,2.85677.95534,4.83176,1.22516,1.75043-.37492,4.77-.37492,4.77,1.321-1.91393,1.77933-1.933,4.68074-2.78587C53.603,74.7501,55.36328,70.18163,55.36328,70.18163Z"/><path class="cls-14" d="M51.52886,75.89124c-1.12865-.27248-3.10955,1.4425-4.67746,2.82132a7.50026,7.50026,0,0,0-2.55474-6.11406s-1.5968,3.44967-.57713,4.88626c1.03542,1.43922,2.24418,3.01041,1.82726,4.10033a11.80811,11.80811,0,0,1,3.06162-1.66377,5.68331,5.68331,0,0,0,2.92045-4.03008"/><path class="cls-15" d="M44.43125,73.09225a8.65583,8.65583,0,0,1,2.51931,4.63938c.321,2.57378-1.77606-1.65458-1.86535-2.62565a13.18677,13.18677,0,0,0-.654-2.01373"/><path class="cls-15" d="M51.66675,75.56755s-.6986,3.77992-3.27633,4.08063c-2.55868.29874,3.27633-4.08063,3.27633-4.08063"/><path class="cls-2" d="M48.60841,79.918a11.93519,11.93519,0,0,0-3.06162,1.66706c.41692-1.08992-.79184-2.6644-1.82726-4.10033-1.01967-1.43659.57056-4.88954.57056-4.88954a7.50884,7.50884,0,0,1,2.56131,6.11734c1.56791-1.38538,3.54881-3.078,4.67746-2.82132A5.64614,5.64614,0,0,1,48.60841,79.918m4.10034-4.96964s-2.4589-.04793-3.53963.866a16.94938,16.94938,0,0,0-1.81084,1.66049c.66643-3.01041-3.48184-6.25456-3.82785-6.10749a21.6992,21.6992,0,0,0-1.10633,3.39517c-.436,1.34664-.06435,2.98808,1.58038,4.81534,1.44909,1.63488.19567,4.90857.19567,4.90857,1.1221-2.12928,1.58366-2.19953,4.42073-3.43062C51.47439,79.82151,52.70875,74.94839,52.70875,74.94839Z"/><path class="cls-14" d="M49.221,81.44392c-1.16738-.0998-2.8988,1.83382-4.27367,3.42406a7.51654,7.51654,0,0,0-3.3341-5.73587s-1.13194,3.623.07025,4.91843c1.21795,1.29805,2.62894,2.68934,2.34661,3.82456a11.33074,11.33074,0,0,1,2.8246-2.04852A5.70635,5.70635,0,0,0,49.221,81.44392"/><path class="cls-15" d="M41.81479,79.60025A8.7548,8.7548,0,0,1,44.9342,83.8772c.63491,2.5101-2.00059-1.411-2.21856-2.34661a11.36582,11.36582,0,0,0-.90085-1.93034"/><path class="cls-15" d="M49.31686,81.11694s-.20551,3.83442-2.70576,4.46867c-2.50681.62835,2.70576-4.46867,2.70576-4.46867"/><path class="cls-2" d="M46.85141,85.82658a11.2054,11.2054,0,0,0-2.82132,2.04852c.28233-1.13522-1.12866-2.52651-2.34-3.82456-1.20548-1.29543-.07682-4.91514-.07682-4.91514a7.47974,7.47974,0,0,1,3.3341,5.726c1.37225-1.58038,3.10955-3.51729,4.27367-3.41421a5.67028,5.67028,0,0,1-2.36959,4.37938m3.39844-5.4693s-2.4208.27577-3.382,1.3368a16.70156,16.70156,0,0,0-1.57447,1.87518c.25672-3.07409-4.27958-5.74505-4.59737-5.55267a20.20962,20.20962,0,0,0-.6349,3.514c-.27839,1.388.30793,2.95592,2.17065,4.56191,1.65457,1.42674.83385,4.84751.83385,4.84751.849-2.26651,1.30134-2.38535,3.9526-3.99462C49.66944,85.35515,50.24985,80.35728,50.24985,80.35728Z"/><path class="cls-14" d="M47.34844,87.10559c-1.17.05122-2.65455,2.25995-3.818,4.03927a7.68389,7.68389,0,0,0-4.168-5.30908s-.62834,3.83769.782,4.96635c1.38538,1.13457,3.00713,2.33348,2.87581,3.51006a11.26869,11.26869,0,0,1,2.57774-2.4556,5.78811,5.78811,0,0,0,1.75042-4.751"/><path class="cls-15" d="M39.64153,86.29735a8.88536,8.88536,0,0,1,3.7379,3.87315c.98749,2.43-2.20545-1.14441-2.54227-2.06494a14.0166,14.0166,0,0,0-1.19563-1.80821"/><path class="cls-15" d="M47.39637,86.753s.34667,3.91123-2.08724,4.88888c-2.44577.99078,2.08724-4.88888,2.08724-4.88888"/><path class="cls-2" d="M45.598,91.85659a11.39075,11.39075,0,0,0-2.57774,2.46217c.13132-1.18315-1.478-2.38535-2.87581-3.51663-1.41033-1.12866-.77214-4.96307-.77214-4.96307a7.68725,7.68725,0,0,1,4.15811,5.3058c1.16345-1.77932,2.648-3.98805,3.818-4.03927a5.78811,5.78811,0,0,1-1.75042,4.751m2.65453-5.98865s-2.40111.62178-3.21855,1.82135a16.79212,16.79212,0,0,0-1.33416,2.10893c-.1694-3.13188-5.11344-5.18368-5.40824-4.93681a20.67043,20.67043,0,0,0-.17662,3.60987c-.05121,1.43594.757,2.94016,2.84693,4.296,1.87584,1.212,1.52,4.7766,1.52,4.7766.55743-2.38469.97108-2.59677,3.43-4.57766C48.37139,90.98465,48.25255,85.86794,48.25255,85.86794Z"/><path class="cls-14" d="M46.18761,93.23869c-1.18906.18909-2.40767,2.52914-3.37546,4.42074a7.61567,7.61567,0,0,0-4.71292-4.80549s-.22455,3.87249,1.29215,4.841c1.52588.97436,3.25728,1.9973,3.25728,3.18308a12.13709,12.13709,0,0,1,2.28555-2.73464,5.75762,5.75762,0,0,0,1.2534-4.90464"/><path class="cls-15" d="M38.4262,93.27086A8.82552,8.82552,0,0,1,42.543,96.70739c1.24028,2.32757-2.29277-.89754-2.75763-1.776a11.52739,11.52739,0,0,0-1.35912-1.66049"/><path class="cls-15" d="M46.18761,92.88611s.757,3.84032-1.57381,5.08454c-2.30853,1.25012,1.57381-5.08454,1.57381-5.08454"/><path class="cls-2" d="M44.93421,98.14989A12.25787,12.25787,0,0,0,42.6421,100.878c0-1.18578-1.72484-2.212-3.25072-3.18308-1.50357-.96846-1.29544-4.84752-1.29544-4.84752A7.64328,7.64328,0,0,1,42.81215,97.666c.97107-1.89816,2.1864-4.24149,3.37546-4.4273a5.78141,5.78141,0,0,1-1.2534,4.9112m2.01044-6.24209s-2.33086.87851-3.02026,2.17722a16.174,16.174,0,0,0-1.08992,2.22777c-.5036-3.10627-5.63607-4.59736-5.91183-4.33735a20.16439,20.16439,0,0,0,.22783,3.62562c.08932,1.44644,1.05449,2.84364,3.28618,3.96573,1.98746.99077,2.02294,4.5816,2.02294,4.5816.27246-2.44641.692-2.68672,2.91387-4.91449C47.61436,96.98315,46.94465,91.9078,46.94465,91.9078Z"/><path class="cls-14" d="M45.50806,99.00279c-1.16018.25344-2.25075,2.67358-3.09708,4.61311a7.65691,7.65691,0,0,0-4.98146-4.514s.00591,3.86659,1.57382,4.74509c1.56791.88178,3.35643,1.80165,3.42406,2.99137a12.86673,12.86673,0,0,1,2.12862-2.87581,5.76394,5.76394,0,0,0,.952-4.95979"/><path class="cls-15" d="M37.75912,99.49654a8.94664,8.94664,0,0,1,4.33473,3.17061c1.37882,2.25731-2.36893-.74062-2.866-1.5968a12.60754,12.60754,0,0,0-1.46877-1.57381"/><path class="cls-15" d="M45.489,98.64364s1,3.78648-1.23765,5.16792c-2.26322,1.38538,1.23765-5.16792,1.23765-5.16792"/><path class="cls-2" d="M44.56259,103.96258a12.86438,12.86438,0,0,0-2.13848,2.87581c-.06434-1.18972-1.85286-2.10368-3.42077-2.99137-1.56791-.8785-1.57382-4.74509-1.57382-4.74509a7.66669,7.66669,0,0,1,4.98474,4.514c.843-1.93953,1.93362-4.35967,3.0938-4.61311a5.78363,5.78363,0,0,1-.94547,4.95979M46.1909,97.624s-2.27636,1.01048-2.885,2.344a13.73764,13.73764,0,0,0-.94613,2.29539c-.70517-3.06162-5.92431-4.25134-6.1876-3.95916a24.37748,24.37748,0,0,0,.45567,3.59674c.18581,1.43,1.22124,2.77338,3.52977,3.76416,2.042.86208,2.302,4.44306,2.302,4.44306.11818-2.44576.5062-2.71561,2.59674-5.08454C47.15279,102.65467,46.1909,97.624,46.1909,97.624Z"/><path class="cls-14" d="M45.24215,104.75769c-1.17.25278-2.24417,2.66046-3.0938,4.623a7.68813,7.68813,0,0,0-4.99459-4.53367s.01248,3.87644,1.58039,4.75494c1.56134.88112,3.35971,1.7918,3.42405,2.98152a13.26885,13.26885,0,0,1,2.1155-2.86334,5.74719,5.74719,0,0,0,.96845-4.96242"/><path class="cls-15" d="M37.4965,105.25144a8.91811,8.91811,0,0,1,4.33144,3.17981c1.39129,2.23827-2.35646-.74653-2.87253-1.59614a11.03146,11.03146,0,0,0-1.45891-1.58367"/><path class="cls-15" d="M45.22311,104.39854s.9934,3.7832-1.25078,5.17778c-2.2409,1.37816,1.25078-5.17778,1.25078-5.17778"/><path class="cls-2" d="M44.2737,109.72011a13.26885,13.26885,0,0,0-2.1155,2.86334c-.06434-1.18644-1.86271-2.1004-3.42405-2.98152-1.57119-.8785-1.58039-4.75494-1.58039-4.75494a7.68813,7.68813,0,0,1,4.99459,4.53367c.84963-1.96251,1.92377-4.37019,3.0938-4.623a5.70391,5.70391,0,0,1-.96845,4.96242m1.648-6.3281s-2.27307.9934-2.88237,2.34a15.658,15.658,0,0,0-.96451,2.29212c-.67956-3.06491-5.90264-4.25068-6.15871-3.96245a20.99695,20.99695,0,0,0,.45173,3.60068c.17662,1.4228,1.22518,2.77273,3.514,3.75365,2.0518.86274,2.302,4.42731,2.302,4.42731.128-2.43.52262-2.70905,2.60922-5.06222C46.89016,108.39973,45.9217,103.392,45.9217,103.392Z"/><path class="cls-14" d="M45.43124,110.34254c-1.15426.35259-2.05508,2.87844-2.757,4.92106a7.75923,7.75923,0,0,0-5.39905-4.16467s.31779,3.90466,1.975,4.66761c1.64145.76951,3.5232,1.55477,3.69654,2.75106a12.2487,12.2487,0,0,1,1.92377-3.078,5.86308,5.86308,0,0,0,.56071-5.097"/><path class="cls-15" d="M37.6311,111.4804a9.00206,9.00206,0,0,1,4.63281,2.84692c1.58367,2.16736-2.42671-.56138-3.01041-1.37553a12.29072,12.29072,0,0,0-1.6224-1.47139"/><path class="cls-15" d="M45.37347,109.99587s1.302,3.751-.84961,5.31566c-2.14176,1.58366.84961-5.31566.84961-5.31566"/><path class="cls-2" d="M44.86725,115.43956a12.63275,12.63275,0,0,0-1.92706,3.078c-.16677-1.19629-2.04852-1.98155-3.69-2.75106-1.6572-.763-1.98484-4.66761-1.98484-4.66761a7.75227,7.75227,0,0,1,5.4089,4.16467c.70188-2.04262,1.6027-4.56847,2.757-4.92106a5.83822,5.83822,0,0,1-.564,5.097m1.13786-6.53033s-2.22188,1.20876-2.7281,2.60334a16.18452,16.18452,0,0,0-.77935,2.38206c-.94548-3.02682-6.3025-3.799-6.53033-3.50087a20.212,20.212,0,0,0,.73407,3.60658c.29479,1.43,1.45562,2.69,3.86,3.50416,2.13519.715,2.68344,4.30846,2.68344,4.30846-.08667-2.48777.28561-2.79242,2.20874-5.35045C47.38719,113.90382,46.00511,108.90923,46.00511,108.90923Z"/><path class="cls-14" d="M46.25854,116.41458c-1.13194.44187-1.87913,3.036-2.44969,5.14494a7.77409,7.77409,0,0,0-5.72274-3.84032s.587,3.91452,2.29606,4.58423c1.72483.65132,3.66764,1.3079,3.92371,2.50418a12.30006,12.30006,0,0,1,1.72811-3.2192,5.93727,5.93727,0,0,0,.22455-5.17383"/><path class="cls-15" d="M38.49647,118.06522A8.97736,8.97736,0,0,1,43.344,120.6587c1.72155,2.0518-2.50025-.42284-3.145-1.2022a12.36965,12.36965,0,0,0-1.70251-1.39128"/><path class="cls-15" d="M46.19091,116.0679s1.55215,3.68078-.50622,5.42793c-2.05837,1.7117.50622-5.42793.50622-5.42793"/><path class="cls-2" d="M46.034,121.58578a12.88742,12.88742,0,0,0-1.72811,3.22183c-.25607-1.19891-2.19888-1.85286-3.9145-2.50418-1.71829-.66971-2.30527-4.59079-2.30527-4.59079a7.81113,7.81113,0,0,1,5.71683,3.84688c.57386-2.103,1.32366-4.70569,2.45231-5.14494a5.92285,5.92285,0,0,1-.22126,5.1712m.715-6.659s-2.15161,1.369-2.57772,2.79571a16.12332,16.12332,0,0,0-.6185,2.47464c-1.16083-2.994-6.62028-3.42076-6.82907-3.11611a22.20478,22.20478,0,0,0,.975,3.58754c.40051,1.41689,1.65064,2.62237,4.12922,3.273,2.20216.587,2.96511,4.17452,2.96511,4.17452-.22389-2.50419.12871-2.83707,1.90146-5.53692C48.46072,119.87671,46.749,114.92677,46.749,114.92677Z"/><path class="cls-14" d="M47.45745,122.18524c-1.12209.52526-1.66377,3.19294-2.084,5.3406a7.79838,7.79838,0,0,0-6.03-3.42076s.87522,3.87315,2.6447,4.41154c1.77933.52264,3.76351,1.05512,4.11018,2.235a12.42384,12.42384,0,0,1,1.50028-3.3538,5.97484,5.97484,0,0,0-.14117-5.21257"/><path class="cls-15" d="M39.77615,124.413a9.12454,9.12454,0,0,1,5.0458,2.23762c1.89817,1.94018-2.51666-.22718-3.21526-.97436a12.37321,12.37321,0,0,0-1.83054-1.26326"/><path class="cls-15" d="M47.34846,121.84513s1.84039,3.58426-.09914,5.4693c-1.9461,1.89816.09914-5.4693.09914-5.4693"/><path class="cls-2" d="M47.59862,127.39781a12.99082,12.99082,0,0,0-1.50685,3.3538c-.32369-1.17987-2.32428-1.71235-4.10361-2.235-1.76948-.53839-2.6447-4.41154-2.6447-4.41154a7.79838,7.79838,0,0,1,6.03,3.42076c.4202-2.14766.96188-4.81534,2.084-5.34717a5.97471,5.97471,0,0,1,.14117,5.21914m.23045-6.73912s-2.05509,1.52-2.37548,3.00122a15.33538,15.33538,0,0,0-.44583,2.52c-1.37488-2.92374-6.89276-2.95919-7.07855-2.59676A23.45287,23.45287,0,0,0,39.18,127.08988c.50294,1.40114,1.84959,2.52323,4.37282,2.97824,2.25009.43925,3.29865,3.96638,3.29865,3.96638-.41693-2.49434-.09587-2.841,1.4911-5.68793C49.90977,125.49373,47.82907,120.65869,47.82907,120.65869Z"/><path class="cls-14" d="M48.70429,126.92639c-1.061.63819-1.346,3.35708-1.53835,5.56909a7.89507,7.89507,0,0,0-6.38982-2.82459s1.2823,3.80552,3.126,4.17124c1.81741.35258,3.88236.65985,4.34064,1.79836a13.10386,13.10386,0,0,1,1.151-3.52057,5.95629,5.95629,0,0,0-.68941-5.19353"/><path class="cls-15" d="M41.241,129.96569a9.18352,9.18352,0,0,1,5.30911,1.69594c2.0774,1.76357-2.55476.03546-3.33084-.62506a12.00821,12.00821,0,0,0-1.97827-1.07088"/><path class="cls-15" d="M48.58283,126.59022s2.20545,3.3886.44255,5.48833c-1.75045,2.103-.44255-5.48833-.44255-5.48833"/><path class="cls-2" d="M49.3937,132.11992a12.98845,12.98845,0,0,0-1.151,3.52057c-.45828-1.14113-2.52323-1.44578-4.34393-1.79836-1.824-.36572-3.1194-4.17124-3.1194-4.17124a7.87452,7.87452,0,0,1,6.38325,2.82131c.21142-2.20282.48062-4.92762,1.54821-5.56581a5.95961,5.95961,0,0,1,.68284,5.19353m-.47142-6.76735s-1.90736,1.74059-2.06756,3.25728a17.69819,17.69819,0,0,0-.18581,2.56788c-1.68019-2.78914-7.19741-2.24418-7.35432-1.87584a20.42284,20.42284,0,0,0,1.61254,3.38926c.64082,1.35255,2.10631,2.33347,4.70635,2.54226,2.279.18581,3.69917,3.61315,3.69917,3.61315-.67628-2.44969-.38476-2.85021.89819-5.84157C51.51905,129.97882,48.92228,125.35257,48.92228,125.35257Z"/><path class="cls-14" d="M50.96818,132.34775c-.99733.76294-.94941,3.51992-.89491,5.74834a7.95522,7.95522,0,0,0-6.70695-2.07084s1.72812,3.65451,3.58428,3.80552c1.87254.12147,3.9723.20157,4.57174,1.28558a12.86447,12.86447,0,0,1,.72486-3.642,6.02108,6.02108,0,0,0-1.279-5.12656"/><path class="cls-15" d="M43.87648,136.259a9.21063,9.21063,0,0,1,5.49162,1.084c2.2954,1.50356-2.56787.327-3.42077-.2344a12.09282,12.09282,0,0,0-2.07085-.84961"/><path class="cls-15" d="M50.78828,132.03982s2.60335,3.1194,1.09322,5.42792c-1.497,2.302-1.09322-5.42792-1.09322-5.42792"/><path class="cls-2" d="M52.2472,137.47431a12.6994,12.6994,0,0,0-.72486,3.63547c-.60274-1.07744-2.6992-1.15426-4.57174-1.279-1.85616-.151-3.58428-3.80552-3.58428-3.80552a7.95522,7.95522,0,0,1,6.70695,2.07084c-.05122-2.22842-.109-4.9854.89491-5.74834a5.98951,5.98951,0,0,1,1.279,5.12656m-1.25013-6.7227s-1.69593,1.96186-1.68018,3.491a17.36178,17.36178,0,0,0,.10571,2.59348c-2.01636-2.581-7.46333-1.388-7.569-1.00653a22.50733,22.50733,0,0,0,1.994,3.19622c.80431,1.27573,2.40111,2.084,5.00116,1.99074,2.31444-.08339,4.1325,3.18046,4.1325,3.18046-.96517-2.37878-.72158-2.78914.20551-5.96961C54.12566,135.07911,50.99707,130.75161,50.99707,130.75161Z"/><path class="cls-14" d="M53.52951,137.16966c-.86867.89754-.388,3.64532.019,5.83829a8.01422,8.01422,0,0,0-7.00175-.98486s2.302,3.35379,4.17124,3.20015c1.88832-.16677,3.95917-.43334,4.732.55744a13.15885,13.15885,0,0,1,.15692-3.74775,6.03668,6.03668,0,0,0-2.0774-4.86327"/><path class="cls-15" d="M47.08256,142.17082a9.32774,9.32774,0,0,1,5.63606.20222c2.50353,1.13785-2.50419.74062-3.4339.30137a13.14693,13.14693,0,0,0-2.20216-.50359"/><path class="cls-15" d="M53.27934,136.87157s3.09379,2.69919,1.96842,5.23227c-1.12866,2.51929-1.96842-5.23227-1.96842-5.23227"/><path class="cls-2" d="M55.60691,142.03293a13.16581,13.16581,0,0,0-.15692,3.74775c-.75375-.99078-2.84364-.7183-4.71948-.55744-1.88176.15364-4.18042-3.19359-4.18042-3.19359a7.97468,7.97468,0,0,1,6.99845.9783c-.4038-2.193-.8877-4.92762-.019-5.83829a6.02573,6.02573,0,0,1,2.0774,4.86327m-2.302-6.4535s-1.38472,2.21529-1.13785,3.732a18.42254,18.42254,0,0,0,.53183,2.558c-2.39125-2.25075-7.63337-.19237-7.66489.20552a21.49291,21.49291,0,0,0,2.4878,2.84035c.99995,1.13128,2.68932,1.69594,5.25129,1.17987,2.302-.44582,4.60984,2.51338,4.60984,2.51338-1.321-2.20282-1.151-2.66768-.72093-5.944C57.08486,139.37838,53.30494,135.57943,53.30494,135.57943Z"/><path class="cls-14" d="M56.838,142.38879c-.79183.97765-.07682,3.69.545,5.84749a8.10978,8.10978,0,0,0-7.13307-.36834s2.61581,3.16733,4.48837,2.84364c1.85943-.33683,3.94932-.77608,4.78974.15035a13.19758,13.19758,0,0,1-.16678-3.75366,6.04451,6.04451,0,0,0-2.52323-4.71948"/><path class="cls-15" d="M50.81061,147.97365a9.33662,9.33662,0,0,1,5.66824-.28824c2.63222.91986-2.43.958-3.41421.60274a11.97527,11.97527,0,0,0-2.254-.3145"/><path class="cls-15" d="M56.58455,142.10384s3.35052,2.44575,2.42739,5.06484c-.9271,2.65454-2.42739-5.06484-2.42739-5.06484"/><path class="cls-2" d="M59.36122,147.10827a13.19758,13.19758,0,0,0,.16678,3.75366c-.84042-.92971-2.93031-.48718-4.78974-.15035-1.87256.32369-4.466-2.84364-4.466-2.84364a8.04272,8.04272,0,0,1,7.11074.36834c-.62179-2.15095-1.321-4.86328-.545-5.84749a6.0488,6.0488,0,0,1,2.52323,4.71948m-2.87253-6.30643s-1.18315,2.3499-.81153,3.85018a19.646,19.646,0,0,0,.738,2.51075c-2.59086-2.03933-7.6754.46815-7.68787.87194a20.50084,20.50084,0,0,0,2.76354,2.65783c1.08992,1.05446,2.85941,1.455,5.38262.7242,2.26651-.64739,4.85016,2.10958,4.85016,2.10958-1.53247-2.09973-1.39131-2.56131-1.24686-5.90854C60.61791,144.287,56.48869,140.80184,56.48869,140.80184Z"/><path class="cls-14" d="M61.06964,147.30984c-.68284,1.0676.32107,3.68406,1.16412,5.7838a7.98525,7.98525,0,0,0-7.10746.37491s2.89814,2.87252,4.71883,2.3466c1.8371-.52263,3.8633-1.19234,4.793-.3493a13.83617,13.83617,0,0,1-.564-3.73461,6.05943,6.05943,0,0,0-3.00452-4.4214"/><path class="cls-15" d="M55.67717,153.51319a9.29915,9.29915,0,0,1,5.60783-.89754c2.715.63819-2.33085,1.21533-3.34723.96517a13.33548,13.33548,0,0,0-2.2606-.06763"/><path class="cls-15" d="M60.7847,147.07282s3.56783,2.05508,2.93949,4.77332c-.63754,2.72874-2.93949-4.77332-2.93949-4.77332"/><path class="cls-2" d="M64.07416,151.73124a13.79759,13.79759,0,0,0,.564,3.73133c-.92644-.83976-2.95592-.17005-4.793.35258-1.81741.52592-4.71883-2.34332-4.71883-2.34332a7.97074,7.97074,0,0,1,7.10746-.37819c-.83977-2.09974-1.847-4.7162-1.16412-5.7838a6.054,6.054,0,0,1,3.00452,4.4214m-3.51731-5.95057s-.94875,2.4556-.39394,3.92437a17.90443,17.90443,0,0,0,.99668,2.411c-2.8049-1.74124-7.58872,1.2915-7.55327,1.68282a19.42773,19.42773,0,0,0,3.03274,2.3407c1.20219.94218,2.97561,1.15032,5.41217.15363,2.1956-.88835,5.0458,1.58366,5.0458,1.58366-1.7314-1.92705-1.63816-2.411-1.866-5.74833C65.0229,148.80093,60.55685,145.78067,60.55685,145.78067Z"/><path class="cls-14" d="M65.64139,151.34976c-.48061,1.18907,1.01969,3.581,2.25076,5.49819a8.12352,8.12352,0,0,0-6.96956,1.76291s3.44308,2.27636,5.16134,1.40442c1.71236-.85946,3.59411-1.92378,4.6742-1.28558a13.01741,13.01741,0,0,1-1.2856-3.58754,6.15989,6.15989,0,0,0-3.83114-3.7924"/><path class="cls-15" d="M61.47672,158.55637a9.4514,9.4514,0,0,1,5.39248-1.9809c2.81475.09914-2.07085,1.65064-3.11612,1.60927a13.33957,13.33957,0,0,0-2.27636.37163"/><path class="cls-15" d="M65.302,151.1633s3.9526,1.3532,3.84031,4.16467c-.08667,2.83444-3.84031-4.16467-3.84031-4.16467"/><path class="cls-2" d="M69.47253,155.14544a13.03877,13.03877,0,0,0,1.2856,3.58426c-1.08009-.6382-2.96184.42612-4.6742,1.28558-1.71826.87194-5.16134-1.4077-5.16134-1.4077a8.137,8.137,0,0,1,6.963-1.76292c-1.2245-1.91392-2.7248-4.30583-2.24419-5.4949a6.16439,6.16439,0,0,1,3.83114,3.79568m-4.65777-5.21914s-.4491,2.62238.36506,3.95917a16.55578,16.55578,0,0,0,1.48126,2.20216c-3.13518-1.17921-7.27753,2.76354-7.15868,3.16143a21.07825,21.07825,0,0,0,3.44637,1.74058c1.37225.67365,3.19623.55481,5.41808-.92315,1.9842-1.29871,5.30253.56728,5.30253.56728-2.09709-1.55149-2.09709-2.05509-2.96577-5.32484C69.84152,152.04508,64.81476,149.9263,64.81476,149.9263Z"/><path class="cls-14" d="M71.23938,155.04564c-.25344,1.2731,1.69923,3.38269,3.27961,5.06221a8.32767,8.32767,0,0,0-6.62684,3.05572s3.87578,1.64144,5.41152.44844c1.52917-1.19891,3.20608-2.606,4.42732-2.17328a13.08472,13.08472,0,0,1-1.95859-3.32491,6.21939,6.21939,0,0,0-4.533-3.06818"/><path class="cls-15" d="M68.44368,163.00336a9.53968,9.53968,0,0,1,4.99458-2.98152c2.82788-.42349-1.74387,2.04524-2.80161,2.17984a13.35207,13.35207,0,0,0-2.193.80168"/><path class="cls-15" d="M70.88352,154.92417s4.18043.61259,4.60983,3.43062c.40708,2.83051-4.60983-3.43062-4.60983-3.43062"/><path class="cls-2" d="M75.7724,158.11711A13.46933,13.46933,0,0,0,77.731,161.4453c-1.22124-.43925-2.89815.9678-4.42732,2.16671-1.53574,1.19957-5.41152-.44844-5.41152-.44844a8.34515,8.34515,0,0,1,6.62684-3.06163c-1.58038-1.6769-3.53305-3.77663-3.27961-5.0563a6.20356,6.20356,0,0,1,4.533,3.07147m-5.617-4.32488s.05123,2.69,1.10962,3.87906a17.97112,17.97112,0,0,0,1.88832,1.92706c-3.34722-.6185-6.73912,4.10361-6.56578,4.47261.38147.33945,2.16408.62834,3.76352,1.07679,1.50683.43,3.28616-.04137,5.2421-1.92641,1.72746-1.6769,5.38263-.41364,5.38263-.41364-2.3755-1.16411-2.48187-1.67362-3.94013-4.76413C75.55771,154.95962,70.15537,153.79223,70.15537,153.79223Z"/><path class="cls-14" d="M105.908,57.76769c.99078-.60274,3.32492.3401,5.20667,1.12208a7.33164,7.33164,0,0,1,.44909-6.44365s2.53571,2.68671,2.0551,4.33407c-.51673,1.64473-1.11618,3.47527-.3946,4.34129a11.14082,11.14082,0,0,0-3.363-.56465,5.53332,5.53332,0,0,1-3.95326-2.78914"/><path class="cls-15" d="M111.58276,52.95562a8.42371,8.42371,0,0,0-.87522,5.06222c.53249,2.472,1.11881-2.061.91395-3.00056a12.56408,12.56408,0,0,1-.03873-2.06166"/><path class="cls-15" d="M105.69325,57.50505s1.81479,3.273,4.28943,2.72808c2.453-.53183-4.28943-2.72808-4.28943-2.72808"/><path class="cls-2" d="M105.908,57.77425c.99078-.6093,3.32492.34011,5.20667,1.12209a7.34285,7.34285,0,0,1,.44909-6.45022s2.53571,2.68671,2.0551,4.33735c-.51673,1.64145-1.11618,3.472-.3946,4.338a12.2833,12.2833,0,0,0-3.363-.56794,5.49708,5.49708,0,0,1-3.95326-2.77929m4.30585,3.84689c3.01041.23111,3.44637.16349,5.14888,1.76356,0,0-2.17721-2.61317-1.33679-4.59407.91988-2.20873.75965-3.82128-.05779-4.9309a21.6679,21.6679,0,0,0-2.07741-2.77273c-.3657-.03545-3.187,4.25069-1.629,6.8317a15.32779,15.32779,0,0,0-2.18968-.94285c-1.29806-.51935-3.533.29809-3.533.29809S107.21,61.37755,110.2138,61.62114Z"/><path class="cls-14" d="M111.04437,61.891c.97436-.606,3.3341.33945,5.20009,1.12472a7.3763,7.3763,0,0,1,.44188-6.45022s2.54884,2.69328,2.06166,4.33472c-.50621,1.65064-1.11881,3.47527-.37819,4.33407a11.994,11.994,0,0,0-3.37613-.55415,5.56869,5.56869,0,0,1-3.94931-2.78914"/><path class="cls-15" d="M116.70932,57.06908a8.62677,8.62677,0,0,0-.88178,5.07469c.53839,2.46217,1.13785-2.07741.9133-3.00056a12.194,12.194,0,0,1-.03152-2.07413"/><path class="cls-15" d="M110.8231,61.62442s1.83382,3.2737,4.27369,2.74121c2.47462-.54168-4.27369-2.74121-4.27369-2.74121"/><path class="cls-2" d="M111.04437,61.891c.97436-.606,3.3341.33945,5.20009,1.12472a7.3763,7.3763,0,0,1,.44188-6.45022s2.54884,2.69,2.06494,4.33472c-.50949,1.6572-1.12209,3.472-.40708,4.33079a11.79939,11.79939,0,0,0-3.35052-.55087,5.5402,5.5402,0,0,1-3.94931-2.78914m4.30192,3.84689c2.99791.24031,3.43716.1602,5.15543,1.77276,0,0-2.18969-2.63222-1.34664-4.59408.91723-2.19625.75374-3.82456-.0545-4.9309a19.8508,19.8508,0,0,0-2.09972-2.78914c-.34932-.01576-3.16407,4.25791-1.6257,6.835a16.6595,16.6595,0,0,0-2.16409-.94547c-1.31709-.50031-3.54223.30465-3.54223.30465S112.34242,65.49429,115.34629,65.73788Z"/><path class="cls-14" d="M114.7409,66.30516c.99669-.52854,3.26976.59617,5.05894,1.52589a7.431,7.431,0,0,1,.96779-6.399s2.344,2.88237,1.71827,4.49165c-.62835,1.5968-1.39455,3.36627-.74325,4.28614a12.26924,12.26924,0,0,0-3.29274-.82663,5.446,5.446,0,0,1-3.709-3.078"/><path class="cls-15" d="M120.76763,61.93892a8.57882,8.57882,0,0,0-1.28558,5.00115c.3237,2.50091,1.28558-2.00387,1.13851-2.93359a11.89819,11.89819,0,0,1,.14707-2.06756"/><path class="cls-15" d="M114.53213,66.01693s1.56461,3.42077,4.05238,3.06162c2.49762-.33355-4.05238-3.06162-4.05238-3.06162"/><path class="cls-2" d="M114.7409,66.30516c.99669-.52854,3.26976.59617,5.05894,1.52589a7.38516,7.38516,0,0,1,.96779-6.399s2.344,2.88237,1.71827,4.49165c-.62835,1.5968-1.39455,3.36627-.74325,4.28614a12.26924,12.26924,0,0,0-3.29274-.82663,5.43675,5.43675,0,0,1-3.709-3.078m3.97493,4.168c2.98152.4747,3.41749.43268,5.00444,2.16736,0,0-1.99075-2.79571-.99341-4.68074,1.09911-2.12863,1.05446-3.76088.32369-4.9309a19.17707,19.17707,0,0,0-1.866-2.927c-.346-.04793-3.48512,3.99462-2.15752,6.69382a12.18172,12.18172,0,0,0-2.07741-1.12538c-1.2731-.61849-3.5685.023-3.5685.023S115.72512,69.99841,118.71583,70.47312Z"/><path class="cls-14" d="M117.73818,70.9058c1.08336-.38475,3.18047,1.02623,4.84752,2.18641a7.36284,7.36284,0,0,1,1.76947-6.21649s1.9461,3.145,1.12538,4.65842c-.83385,1.5167-1.82725,3.16405-1.26653,4.17124a11.5763,11.5763,0,0,0-3.19294-1.25077,5.49878,5.49878,0,0,1-3.2829-3.54881"/><path class="cls-15" d="M124.27836,67.36028a8.54482,8.54482,0,0,0-1.89817,4.79236c0,2.52651,1.5167-1.80756,1.50685-2.75369a12.45653,12.45653,0,0,1,.39132-2.03867"/><path class="cls-15" d="M117.56485,70.611s1.12866,3.58754,3.63547,3.55865c2.51995-.0197-3.63547-3.55865-3.63547-3.55865"/><path class="cls-2" d="M117.73818,70.9058c1.08336-.38475,3.18047,1.02623,4.8508,2.18641a7.36618,7.36618,0,0,1,1.76291-6.21649s1.94612,3.145,1.1254,4.65842c-.83059,1.51013-1.82071,3.16405-1.26656,4.17124a11.52263,11.52263,0,0,0-3.18965-1.25077,5.48369,5.48369,0,0,1-3.2829-3.54881m3.41421,4.66171c2.91127.8588,3.34724.86865,4.684,2.78585,0,0-1.60006-3.02025-.38147-4.774,1.35255-1.95529,1.53573-3.581.94875-4.83438a18.95115,18.95115,0,0,0-1.46481-3.13516c-.33356-.10571-3.97229,3.51007-2.9881,6.33467a18.15329,18.15329,0,0,0-1.92967-1.37553c-1.1766-.76623-3.52978-.42612-3.52978-.42612S118.26082,74.71133,121.15239,75.56751Z"/><path class="cls-14" d="M120.3251,75.8367c1.1221-.25015,3.10693,1.44579,4.67156,2.82722a7.59727,7.59727,0,0,1,2.56459-6.11668s1.59944,3.45623.5837,4.89873c-1.03608,1.43594-2.24156,2.99728-1.82463,4.08457a12.05477,12.05477,0,0,0-3.084-1.65457,5.74167,5.74167,0,0,1-2.91127-4.03927"/><path class="cls-15" d="M127.42008,73.05084a8.74757,8.74757,0,0,0-2.51337,4.642c-.3145,2.57444,1.78261-1.66377,1.87518-2.63223a11.62441,11.62441,0,0,1,.63819-2.00978"/><path class="cls-15" d="M120.18722,75.51892s.70911,3.79305,3.27042,4.08129c2.56461.29808-3.27042-4.08129-3.27042-4.08129"/><path class="cls-2" d="M120.3251,75.8367c1.1221-.25015,3.10693,1.45235,4.67156,2.82722a7.5973,7.5973,0,0,1,2.56459-6.11668s1.59944,3.45623.564,4.89873c-1.01638,1.43594-2.22186,2.99728-1.80493,4.08457a12.05477,12.05477,0,0,0-3.084-1.65457,5.724,5.724,0,0,1-2.91127-4.03927m2.91127,5.16793c2.84036,1.24093,3.30522,1.32431,4.41812,3.44309,0,0-1.25078-3.273.20813-4.9112,1.62241-1.84039,1.99074-3.46936,1.57384-4.81535a22.8392,22.8392,0,0,0-1.09323-3.39188c-.3493-.151-4.50738,3.084-3.85673,6.10092a16.34491,16.34491,0,0,0-1.79181-1.648c-1.103-.92053-3.53633-.88179-3.53633-.88179S120.38617,79.786,123.23637,81.00463Z"/><path class="cls-14" d="M122.63364,81.40842c1.16345-.11884,2.90142,1.824,4.2671,3.41092a7.4948,7.4948,0,0,1,3.35051-5.73521s1.12472,3.642-.08666,4.92434c-1.2022,1.29214-2.61975,2.68015-2.32429,3.81865a11.65125,11.65125,0,0,0-2.84364-2.0518,5.71306,5.71306,0,0,1-2.363-4.3669"/><path class="cls-15" d="M130.03918,79.55227a8.76062,8.76062,0,0,0-3.11284,4.28024c-.62832,2.50681,1.98486-1.40114,2.2153-2.35975a12.041,12.041,0,0,1,.89754-1.92049"/><path class="cls-15" d="M122.5404,81.07488s.19566,3.81866,2.70314,4.466c2.50353.6185-2.70314-4.466-2.70314-4.466"/><path class="cls-2" d="M122.63364,81.40842c1.16345-.11884,2.90142,1.83054,4.2671,3.41092a7.50878,7.50878,0,0,1,3.35051-5.73521s1.12472,3.642-.08666,4.92434c-1.2022,1.29214-2.61975,2.68015-2.32429,3.81865a11.65125,11.65125,0,0,0-2.84364-2.0518,5.71963,5.71963,0,0,1-2.363-4.3669m2.20544,5.49818c2.6644,1.5968,3.10039,1.7314,3.96311,3.97886,0,0-.83714-3.41748.81744-4.83175,1.85943-1.606,2.45232-3.18309,2.1864-4.581a18.94594,18.94594,0,0,0-.64148-3.49759c-.31056-.19566-4.8567,2.47465-4.6039,5.5494a16.953,16.953,0,0,0-1.57384-1.86928c-.97108-1.06431-3.39516-1.34664-3.39516-1.34664S122.18454,85.31309,124.83908,86.9066Z"/><path class="cls-14" d="M124.49963,87.06353c1.19235.04858,2.66112,2.26059,3.82129,4.03335a7.61469,7.61469,0,0,1,4.18043-5.30252s.62508,3.83769-.78855,4.94994c-1.39457,1.13785-2.994,2.35318-2.87252,3.52648a11.70962,11.70962,0,0,0-2.57773-2.4556,5.794,5.794,0,0,1-1.76292-4.75165"/><path class="cls-15" d="M132.21639,86.25265a8.86031,8.86031,0,0,0-3.74446,3.86659c-.98421,2.44247,2.212-1.1477,2.56459-2.06494a11.79729,11.79729,0,0,1,1.17987-1.80165"/><path class="cls-15" d="M124.46418,86.71423s-.346,3.90795,2.09055,4.883c2.43656.99077-2.09055-4.883-2.09055-4.883"/><path class="cls-2" d="M124.4865,87.06353c1.20548.04858,2.67425,2.26059,3.83442,4.03664a7.61492,7.61492,0,0,1,4.18043-5.30581s.62508,3.83769-.78855,4.94994c-1.39129,1.1477-3.00384,2.35318-2.87252,3.52648a11.63221,11.63221,0,0,0-2.57773-2.4556,5.85008,5.85008,0,0,1-1.776-4.75165m1.45892,5.87046c2.449,1.975,2.89486,2.17327,3.42406,4.57175,0,0-.3493-3.57178,1.51932-4.76741,2.09382-1.36569,2.89485-2.86925,2.83772-4.29928a20.05333,20.05333,0,0,0-.15429-3.61643c-.30792-.24687-5.25131,1.80822-5.40823,4.93747a18.03317,18.03317,0,0,0-1.3368-2.11615c-.81744-1.20876-3.24481-1.81741-3.24481-1.81741S123.49638,90.93668,125.94542,92.934Z"/><path class="cls-14" d="M125.67294,93.19662c1.17.18319,2.40768,2.53308,3.36958,4.4273a7.68479,7.68479,0,0,1,4.70961-4.818s.22129,3.87906-1.28557,4.83767c-1.52326.97764-3.24809,1.99731-3.24809,3.19622a11.74672,11.74672,0,0,0-2.29212-2.72808,5.82586,5.82586,0,0,1-1.25341-4.91514"/><path class="cls-15" d="M133.43763,93.213a8.83338,8.83338,0,0,0-4.12591,3.45557c-1.25343,2.3151,2.29209-.90082,2.76023-1.77933a10.64967,10.64967,0,0,1,1.36568-1.67624"/><path class="cls-15" d="M125.67294,92.85389s-.76622,3.83113,1.56463,5.078c2.31772,1.24421-1.56463-5.078-1.56463-5.078"/><path class="cls-2" d="M125.67623,93.19662c1.16675.18319,2.40439,2.53308,3.37286,4.4273a7.6742,7.6742,0,0,1,4.703-4.818s.2239,3.87906-1.28557,4.841c-1.52326.97436-3.24809,1.994-3.24809,3.19294a11.763,11.763,0,0,0-2.29212-2.73136,5.80015,5.80015,0,0,1-1.25012-4.91186m.80759,5.98536c2.235,2.235,2.64207,2.48843,2.91127,4.90858,0,0,.04138-3.57441,2.0262-4.56519,2.22776-1.12209,3.19293-2.5357,3.2796-3.97886a18.73328,18.73328,0,0,0,.22127-3.60987c-.26329-.27576-5.38591,1.23765-5.902,4.32488a16.92264,16.92264,0,0,0-1.08728-2.22776c-.69862-1.28558-3.02619-2.17065-3.02619-2.17065S124.2462,96.94437,126.48382,99.182Z"/><path class="cls-14" d="M126.34922,98.96137c1.1674.24031,2.254,2.67031,3.10365,4.62559a7.67552,7.67552,0,0,1,4.99458-4.52973s-.02232,3.8725-1.59021,4.75428c-1.564.87194-3.35972,1.78918-3.42077,2.98809a12.7185,12.7185,0,0,0-2.14112-2.87909,5.77615,5.77615,0,0,1-.94613-4.95914"/><path class="cls-15" d="M134.09487,99.461a8.74142,8.74142,0,0,0-4.32816,3.1739c-1.37815,2.23761,2.34727-.75638,2.84364-1.59352a12.6191,12.6191,0,0,1,1.48452-1.58038"/><path class="cls-15" d="M126.36564,98.60551s-.99734,3.79239,1.25012,5.16136c2.23762,1.39457-1.25012-5.16136-1.25012-5.16136"/><path class="cls-2" d="M126.34266,98.96137c1.174.24688,2.26388,2.67031,3.11021,4.62559a7.63884,7.63884,0,0,1,4.988-4.52973s-.01576,3.8725-1.58365,4.75756c-1.564.86275-3.35972,1.7859-3.42077,2.98481a12.52567,12.52567,0,0,0-2.14768-2.87909,5.821,5.821,0,0,1-.94613-4.95914m.45566,6.02017c2.08727,2.36959,2.47793,2.62565,2.60662,5.08519,0,0,.25606-3.581,2.2954-4.44372,2.3013-.98749,3.33738-2.34,3.52319-3.76088a20.90151,20.90151,0,0,0,.45172-3.6033c-.26919-.28824-5.47257.914-6.1646,3.96574a16.03945,16.03945,0,0,0-.94285-2.29868c-.62833-1.32366-2.89486-2.34333-2.89486-2.34333S124.71106,102.61261,126.79832,104.98154Z"/><path class="cls-14" d="M126.6217,104.71234c1.16083.24687,2.24747,2.68015,3.0938,4.61705a7.6351,7.6351,0,0,1,4.9854-4.5271s-.01313,3.86987-1.5771,4.74771c-1.57447.89164-3.36037,1.80559-3.44047,2.99137a12.27956,12.27956,0,0,0-2.10958-2.85939,5.71446,5.71446,0,0,1-.952-4.96964"/><path class="cls-15" d="M134.35751,105.20017a8.89572,8.89572,0,0,0-4.31832,3.1831c-1.38472,2.25731,2.34727-.74719,2.86334-1.5968a11.34371,11.34371,0,0,1,1.455-1.5863"/><path class="cls-15" d="M126.6414,104.363s-1.0039,3.77992,1.24356,5.15217c2.25075,1.39128-1.24356-5.15217-1.24356-5.15217"/><path class="cls-2" d="M126.6217,104.71234c1.15755.24687,2.24747,2.68015,3.0938,4.61705a7.62841,7.62841,0,0,1,4.9854-4.5271s-.00985,3.86987-1.57446,4.74771c-1.57711.89164-3.363,1.80559-3.43983,2.99794a12.28715,12.28715,0,0,0-2.11286-2.866,5.72844,5.72844,0,0,1-.952-4.96964m.43269,6.0241c2.10633,2.34661,2.50091,2.62566,2.61647,5.07535,0,0,.26919-3.57507,2.302-4.447,2.28883-.98422,3.3341-2.321,3.52976-3.7576a21.04328,21.04328,0,0,0,.4294-3.59674c-.24687-.28233-5.47586.914-6.16855,3.96245a14.29185,14.29185,0,0,0-.94875-2.30787c-.60274-1.33416-2.87582-2.33413-2.87582-2.33413S124.977,108.36423,127.05439,110.73644Z"/><path class="cls-14" d="M126.42342,110.30048c1.15033.35586,2.04853,2.89156,2.74713,4.93089a7.77228,7.77228,0,0,1,5.41151-4.18043s-.32041,3.91714-1.98418,4.67746c-1.65127.76623-3.52648,1.53837-3.69323,2.73137a12.55662,12.55662,0,0,0-1.90147-3.06162,5.81066,5.81066,0,0,1-.57976-5.09767"/><path class="cls-15" d="M134.21372,111.42585a9.10954,9.10954,0,0,0-4.623,2.866c-1.57448,2.15161,2.43327-.57713,3.01042-1.38472a12.119,12.119,0,0,1,1.61254-1.48124"/><path class="cls-15" d="M126.48383,109.94789s-1.30791,3.751.843,5.31894c2.14505,1.58038-.843-5.31894-.843-5.31894"/><path class="cls-2" d="M126.42342,110.30048c1.15033.35586,2.05445,2.89156,2.74713,4.93089a7.84275,7.84275,0,0,1,5.41151-4.187s-.32041,3.92371-1.98087,4.684c-1.65788.763-3.52979,1.53837-3.69,2.73137a12.65868,12.65868,0,0,0-1.908-3.05834,5.80969,5.80969,0,0,1-.57976-5.101m-.01969,6.11405c1.91721,2.56131,2.27964,2.86268,2.22186,5.33732,0,0,.53513-3.56784,2.66767-4.296,2.40441-.801,3.57441-2.07742,3.86265-3.50088a20.06434,20.06434,0,0,0,.74062-3.60986c-.23374-.29809-5.60061.49046-6.54017,3.51072a15.85137,15.85137,0,0,0-.77871-2.39782c-.50686-1.38866-2.71889-2.57772-2.71889-2.57772S124.46748,113.86569,126.40373,116.41453Z"/><path class="cls-14" d="M125.58629,116.37579c1.14113.44582,1.89488,3.04587,2.45888,5.14232a7.85612,7.85612,0,0,1,5.73587-3.85346s-.59683,3.92108-2.31509,4.59408c-1.7117.6441-3.66108,1.32432-3.91124,2.5009a12.953,12.953,0,0,0-1.71826-3.20606,5.96816,5.96816,0,0,1-.25016-5.17778"/><path class="cls-15" d="M133.37068,118.0238a8.99373,8.99373,0,0,0-4.84752,2.5902c-1.74124,2.05509,2.49434-.42284,3.11612-1.19891a11.2089,11.2089,0,0,1,1.7314-1.39129"/><path class="cls-15" d="M125.673,116.01008s-1.55476,3.68734.497,5.42793c2.07413,1.72483-.497-5.42793-.497-5.42793"/><path class="cls-2" d="M125.58629,116.37579c1.14113.43925,1.8916,3.04587,2.45888,5.14232a7.89613,7.89613,0,0,1,5.73587-3.85346s-.59683,3.92108-2.31509,4.59079c-1.7117.64739-3.66108,1.321-3.92109,2.50682a12.53955,12.53955,0,0,0-1.70841-3.20541,5.96415,5.96415,0,0,1-.25016-5.18106m-.42021,6.15542c1.77014,2.709,2.1063,3.04586,1.88832,5.53036,0,0,.78592-3.57442,2.9848-4.16468,2.46217-.64739,3.713-1.85943,4.12-3.273a20.74651,20.74651,0,0,0,.97108-3.56851c-.20814-.346-5.67743.10572-6.82841,3.10037a16.59682,16.59682,0,0,0-.61916-2.46873c-.42284-1.43-2.56459-2.80228-2.56459-2.80228S123.3966,119.8353,125.16608,122.53121Z"/><path class="cls-14" d="M124.39723,122.14974c1.12472.50622,1.67033,3.18046,2.09645,5.338a7.84858,7.84858,0,0,1,6.02411-3.43982s-.88507,3.88563-2.6644,4.424c-1.757.5384-3.77663,1.05447-4.097,2.24419a12.573,12.573,0,0,0-1.50026-3.36627,6.01614,6.01614,0,0,1,.14114-5.2001"/><path class="cls-15" d="M132.072,124.37488a9.00709,9.00709,0,0,0-5.03989,2.22777c-1.90736,1.93953,2.52323-.237,3.21592-.96517a11.73189,11.73189,0,0,1,1.824-1.2626"/><path class="cls-15" d="M124.49965,121.79716s-1.824,3.58426.10572,5.47914c1.95531,1.88832-.10572-5.47914-.10572-5.47914"/><path class="cls-2" d="M124.39723,122.14974c1.12472.50622,1.67033,3.18046,2.103,5.338a7.87391,7.87391,0,0,1,6.01754-3.4431s-.88177,3.88891-2.6644,4.4273c-1.757.5384-3.77663,1.05447-4.097,2.24091a12.586,12.586,0,0,0-1.50026-3.363,6.00433,6.00433,0,0,1,.14114-5.2001m-.88178,6.14229c1.58038,2.85677,1.91064,3.20935,1.497,5.69384,0,0,1.042-3.52976,3.28945-3.946,2.53571-.48455,3.87578-1.60008,4.37281-2.99793a19.80222,19.80222,0,0,0,1.25012-3.50744c-.19566-.346-5.69975-.32369-7.08183,2.60661a15.63766,15.63766,0,0,0-.43927-2.52979c-.327-1.46154-2.388-2.99728-2.388-2.99728S121.93769,125.45167,123.51545,128.292Z"/><path class="cls-14" d="M123.1563,126.88826c1.05446.62835,1.33023,3.363,1.52589,5.556a7.89493,7.89493,0,0,1,6.40557-2.81212s-1.28886,3.79961-3.12925,4.16467c-1.81412.34668-3.88562.64476-4.33735,1.79837a13.0415,13.0415,0,0,0-1.16083-3.51663,5.98116,5.98116,0,0,1,.696-5.19025"/><path class="cls-15" d="M130.61306,129.91771a9.15984,9.15984,0,0,0-5.29924,1.69923c-2.103,1.76028,2.5554.03217,3.34066-.6382a11.65391,11.65391,0,0,1,1.95858-1.061"/><path class="cls-15" d="M123.28105,126.54159s-2.2212,3.39845-.44844,5.49818c1.75044,2.09383.44844-5.49818.44844-5.49818"/><path class="cls-2" d="M123.1563,126.88826c1.05446.62835,1.33023,3.36628,1.52589,5.556a7.917,7.917,0,0,1,6.40557-2.81212s-1.28886,3.79961-3.12925,4.16467c-1.81412.34668-3.88562.64476-4.33735,1.79837a13.08155,13.08155,0,0,0-1.16083-3.51663,5.98078,5.98078,0,0,1,.696-5.19025m-1.53245,6.06875c1.28886,3.00713,1.5771,3.39517.90739,5.8442,0,0,1.40376-3.43,3.70573-3.61643,2.57772-.20485,4.04583-1.18907,4.69387-2.53242a22.71811,22.71811,0,0,0,1.61256-3.39517c-.15693-.36243-5.68137-.91067-7.3609,1.86928a15.9835,15.9835,0,0,0-.18581-2.56787c-.17006-1.51342-2.06166-3.25072-2.06166-3.25072S120.35074,129.93085,121.62385,132.957Z"/><path class="cls-14" d="M120.89636,132.31554c.98684.757.93563,3.514.88443,5.73586a7.89826,7.89826,0,0,1,6.72006-2.05509s-1.738,3.65451-3.59411,3.77335c-1.87584.14117-3.95323.20814-4.556,1.30791a13.11937,13.11937,0,0,0-.7531-3.64532,6.13127,6.13127,0,0,1,1.29871-5.11671"/><path class="cls-15" d="M128.00054,136.21758a9.20207,9.20207,0,0,0-5.49819,1.08007c-2.29539,1.50356,2.55477.34011,3.41421-.23374a11.99366,11.99366,0,0,1,2.084-.84633"/><path class="cls-15" d="M121.05985,131.99184s-2.6,3.12926-1.09058,5.42465c1.51014,2.302,1.09058-5.42465,1.09058-5.42465"/><path class="cls-2" d="M120.89636,132.31554c.98684.757.93563,3.514.88443,5.73586a7.89826,7.89826,0,0,1,6.72006-2.05509s-1.738,3.65451-3.59411,3.77335c-1.87584.14117-3.95323.20814-4.556,1.30791a12.85947,12.85947,0,0,0-.7531-3.64532,6.13127,6.13127,0,0,1,1.29871-5.11671m-2.23827,5.87965c.92643,3.15814,1.18315,3.59083.20879,5.95714,0,0,1.83382-3.25072,4.15155-3.18047,2.60335.09586,4.187-.715,4.98211-1.98484a19.01655,19.01655,0,0,0,1.994-3.20213c-.10573-.37228-5.54941-1.58432-7.56576,1.00654a17.83907,17.83907,0,0,0,.11161-2.59086c.02889-1.52589-1.67953-3.47789-1.67953-3.47789S117.73822,135.0213,118.65809,138.19519Z"/><path class="cls-14" d="M118.34753,137.13088c.86208.90083.37162,3.63876-.03545,5.835a8.04317,8.04317,0,0,1,7.00174-.99735s-2.29539,3.36628-4.17058,3.21264c-1.88241-.1602-3.969-.43268-4.73524.57057a13.0824,13.0824,0,0,0-.16349-3.75694,6.08706,6.08706,0,0,1,2.103-4.86393"/><path class="cls-15" d="M124.76886,142.13269a9.22093,9.22093,0,0,0-5.61046.2147c-2.52651,1.1221,2.46545.72092,3.41093.285a11.97342,11.97342,0,0,1,2.19953-.49966"/><path class="cls-15" d="M118.5747,136.82951s-3.09379,2.69657-1.95528,5.22242c1.11881,2.52323,1.95528-5.22242,1.95528-5.22242"/><path class="cls-2" d="M118.34424,137.13088c.86537.90083.37163,3.63876-.03216,5.835a8.04341,8.04341,0,0,1,7.00174-.99735s-2.31115,3.36628-4.17058,3.21264c-1.88241-.1602-3.969-.43925-4.73524.57057a13.33738,13.33738,0,0,0-.16349-3.75694,6.08337,6.08337,0,0,1,2.09973-4.86393m-3.15157,5.48571c.42943,3.28617.61588,3.74447-.72157,5.94663,0,0,2.31837-2.95854,4.60392-2.5101,2.56133.51607,4.2671-.03218,5.25459-1.17a21.44227,21.44227,0,0,0,2.49762-2.85349c-.0453-.40707-5.25787-2.449-7.66883-.21141a19.1743,19.1743,0,0,0,.53511-2.54883c.24425-1.50357-1.13785-3.7379-1.13785-3.7379S114.77574,139.32714,115.19267,142.61659Z"/><path class="cls-14" d="M115.02262,142.35068c.78592.98093.06108,3.6834-.53839,5.85667a8.02,8.02,0,0,1,7.10746-.37162s-2.59349,3.16076-4.472,2.82788c-1.85023-.31778-3.9401-.76951-4.78052.1694a14.01312,14.01312,0,0,0,.16347-3.78255,6.03721,6.03721,0,0,1,2.51994-4.69978"/><path class="cls-15" d="M121.04673,147.929a9.35591,9.35591,0,0,0-5.67743-.29808c-2.63551.92315,2.43327.97436,3.4142.60536a13.07411,13.07411,0,0,1,2.26323-.30728"/><path class="cls-15" d="M115.26949,142.07492s-3.32753,2.43656-2.40767,5.05236c.92315,2.6447,2.40767-5.05236,2.40767-5.05236"/><path class="cls-2" d="M115.02262,142.3474c.78592.98421.05121,3.68668-.53839,5.854a8.03387,8.03387,0,0,1,7.10746-.36571s-2.59349,3.16076-4.472,2.82788c-1.86927-.327-3.9401-.76951-4.78052.1694a14.01312,14.01312,0,0,0,.16347-3.78255,6.0676,6.0676,0,0,1,2.51994-4.70306m-3.63219,5.22242c.13789,3.34986.2692,3.82785-1.26,5.91511,0,0,2.59348-2.76682,4.83767-2.10631,2.55212.73077,4.30584.3237,5.39247-.72814a22.14414,22.14414,0,0,0,2.77339-2.6447c-.01313-.41364-5.08783-2.92374-7.68788-.88835a18.70855,18.70855,0,0,0,.73077-2.50681c.38476-1.497-.80759-3.84689-.80759-3.84689S111.24007,144.24162,111.39043,147.56982Z"/><path class="cls-14" d="M110.79426,147.26517c.66971,1.07416-.34339,3.69-1.15426,5.78051a7.96713,7.96713,0,0,1,7.10746.39394s-2.92046,2.85677-4.74115,2.33414c-1.83381-.51607-3.84755-1.18972-4.78974-.35258a13.49945,13.49945,0,0,0,.56728-3.751,6.07445,6.07445,0,0,1,3.01041-4.405"/><path class="cls-15" d="M116.19265,153.45866a9.294,9.294,0,0,0-5.594-.87193c-2.7156.62572,2.302,1.20548,3.31835.95532a11.78811,11.78811,0,0,1,2.2757-.08339"/><path class="cls-15" d="M111.06674,147.03077s-3.56522,2.07807-2.93687,4.77726c.63163,2.71823,2.93687-4.77726,2.93687-4.77726"/><path class="cls-2" d="M110.79426,147.26517c.66971,1.07416-.34667,3.69-1.16739,5.78051a8.07381,8.07381,0,0,1,7.114.3749s-2.91717,2.88238-4.73458,2.34661c-1.83711-.5095-3.84755-1.17658-4.78974-.346a13.6459,13.6459,0,0,0,.57057-3.751,6.06755,6.06755,0,0,1,3.00712-4.405m-4.187,4.82782c-.20224,3.33738-.12542,3.82785-1.847,5.73915,0,0,2.85021-2.46874,5.03333-1.57776,2.44313,1.0039,4.229.77935,5.447-.15693a21.83311,21.83311,0,0,0,3.017-2.34333c.02888-.3946-4.74772-3.44309-7.56313-1.67361a16.13553,16.13553,0,0,0,1.02623-2.43328c.5292-1.44578-.41693-3.91123-.41693-3.91123S106.8351,148.7556,106.60728,152.093Z"/><path class="cls-14" d="M106.24155,151.29787c.45567,1.19629-1.0479,3.59083-2.279,5.50147a8.16061,8.16061,0,0,1,6.97877,1.77932s-3.4687,2.27964-5.16134,1.39786c-1.715-.86209-3.58756-1.933-4.68076-1.29214a13.02472,13.02472,0,0,0,1.279-3.59017,6.17828,6.17828,0,0,1,3.8633-3.79634"/><path class="cls-15" d="M110.38062,158.515a9.44349,9.44349,0,0,0-5.39576-1.98811c-2.799.09323,2.0807,1.65786,3.11943,1.60008a14.1666,14.1666,0,0,1,2.27633.388"/><path class="cls-15" d="M106.54949,151.10878s-3.93685,1.36568-3.8377,4.17124c.09324,2.83707,3.8377-4.17124,3.8377-4.17124"/><path class="cls-2" d="M106.24155,151.29787c.45567,1.18315-1.05118,3.59083-2.279,5.50147a8.16061,8.16061,0,0,1,6.97877,1.77932s-3.472,2.27964-5.16134,1.39786c-1.71828-.86865-3.58756-1.933-4.68076-1.29214a13.02472,13.02472,0,0,0,1.279-3.59017,6.196,6.196,0,0,1,3.8633-3.79634m-5.0911,3.97558c-.86209,3.26385-.87194,3.75432-2.975,5.31894,0,0,3.31177-1.87913,5.31565-.57713,2.22449,1.4681,4.04255,1.60927,5.424.91986a22.61034,22.61034,0,0,0,3.45951-1.72811c.09323-.39395-4.04255-4.34064-7.16524-3.16077a20.36462,20.36462,0,0,0,1.47139-2.20544c.81153-1.32432.369-3.95982.369-3.95982S102.01975,151.98728,101.15045,155.27345Z"/><path class="cls-14" d="M100.62518,155.00754c.23048,1.279-1.71235,3.37284-3.29273,5.05893a8.22976,8.22976,0,0,1,6.62684,3.07476s-3.87315,1.62174-5.4056.42283c-1.53574-1.19891-3.20608-2.60661-4.424-2.16736a13.84677,13.84677,0,0,0,1.94938-3.31178,6.16618,6.16618,0,0,1,4.54614-3.07738"/><path class="cls-15" d="M103.40448,162.96132a9.57756,9.57756,0,0,0-4.99785-2.9848c-2.81214-.42611,1.74385,2.04262,2.818,2.18641a12.98227,12.98227,0,0,1,2.17984.79839"/><path class="cls-15" d="M100.97777,154.88213s-4.187.61259-4.59736,3.42734c-.43595,2.8246,4.59736-3.42734,4.59736-3.42734"/><path class="cls-2" d="M100.62518,155.00754c.23048,1.279-1.71235,3.37284-3.28945,5.05893a8.2559,8.2559,0,0,1,6.62685,3.06819s-3.87644,1.62831-5.40889.4294c-1.53574-1.19891-3.19951-2.60661-4.424-2.16736A13.63089,13.63089,0,0,0,96.079,158.079a6.16854,6.16854,0,0,1,4.54614-3.07147m-5.80283,3.00056c-1.45891,3.09708-1.56462,3.58755-3.95323,4.75429,0,0,3.66434-1.26,5.399.40116,1.95857,1.89423,3.73461,2.37222,5.21914,1.93625a21.07876,21.07876,0,0,0,3.7635-1.0676c.18319-.38475-3.19951-5.0911-6.53033-4.4818a19.28958,19.28958,0,0,0,1.885-1.92705c1.04855-1.18907,1.09648-3.87578,1.09648-3.87578S96.297,154.91431,94.82235,158.0081Z"/><path class="cls-2" d="M79.84384,162.18526a76.36917,76.36917,0,0,0,15.01,3.38268l.3145,1.93625s-16.26409-4.10688-18.373-5.01756c-.67037-.28495-1.15755-.9389,3.04849-.30137"/><path class="cls-2" d="M92.69307,161.67575s-9.14285,3.31507-15.92068,3.8922l-.15366,1.83711s16.06187-4.3505,18.25484-5.00773c.5128-.151,2.0098-1.35978-2.1805-.72158"/><path class="cls-5" d="M87.923,163.939s3.61315,4.96307,7.2263,4.09113c-.78592,2.51666-3.11021,4.14826-4.29008,3.50744-1.53245-.81744-4.11937-3.25728-3.91386-5.271.22719-2.0006.97764-2.32757.97764-2.32757"/><path class="cls-1" d="M94.2774,169.76151a15.30105,15.30105,0,0,1-7.00832-4.86065,4.32,4.32,0,0,0-.279,1.14179,18.42681,18.42681,0,0,0,6.03,5.00444,5.408,5.408,0,0,0,1.25735-1.28558"/><path class="cls-5" d="M83.96649,163.962s-3.60986,4.95323-7.22892,4.07144c.77542,2.51995,3.09052,4.145,4.28615,3.51007,1.53245-.81088,4.1325-3.25072,3.91123-5.27036-.22784-1.98089-.96846-2.31115-.96846-2.31115"/><path class="cls-1" d="M77.59311,169.78712a15.60389,15.60389,0,0,0,7.02143-4.86984,4.90848,4.90848,0,0,1,.28495,1.12537,19.01155,19.01155,0,0,1-6.04314,5.04253,7.06141,7.06141,0,0,1-1.26324-1.29806"/><path class="cls-5" d="M85.96117,158.85116c-2.405,0-8.75875.12869-5.92495,3.50416,1.93626,2.29867,5.33469,3.14172,5.925,3.3597.583-.218,3.7379-1.01573,5.66429-3.321,2.8246-3.36628-3.26319-3.5429-5.6643-3.54289"/><path class="cls-1" d="M85.84562,159.62066c-1.17,0-3.55537.93957-2.16737,3.18047a5.72491,5.72491,0,0,0,2.23434,2.20873h.00985a5.6216,5.6216,0,0,0,2.0643-2.17656c1.39194-2.254-.94878-3.21264-2.14112-3.21264"/><path class="cls-5" d="M85.73334,162.71118h0c-2.103.00328-3.3794,1.03542-2.61646,2.18969.914,1.37224,1.799,1.95922,2.60662,1.97826h.02232c.7984-.019,1.696-.606,2.61646-1.97827.75966-1.15426-.50359-2.1864-2.62894-2.18968"/><path class="cls-1" d="M85.73334,163.60281h0c-1.08072.00919-1.71826.54824-1.32431,1.16017.46486.7183.90411,1.02623,1.32432,1.04528.40051-.019.85617-.327,1.33022-1.04528.40117-.61193-.25935-1.151-1.33023-1.16017"/><path class="cls-1" d="M82.56929,159.74936c-1.03936,1.17-.49374,2.84954.48062,3.8981-1.10633-.782-4.81534-3.08723-.48062-3.8981"/><path class="cls-1" d="M88.93285,159.74935c1.02295,1.17.49046,2.84955-.478,3.89811,1.0932-.782,4.80287-3.08724.478-3.89811"/><path class="cls-2" d="M12.74681,112.23679a9.69017,9.69017,0,0,1-.67693-3.21526,5.50581,5.50581,0,0,1,1.50421-4.26382c1.327-1.34664,3.667-2.20282,6.60386-2.2606,6.271-.12147,8.72987,3.21263,8.82309,6.46991a5.74946,5.74946,0,0,1-.42021,2.57773l-2.28555-.45238a3.92224,3.92224,0,0,0,.34273-1.91065c-.06434-2.14832-1.69592-4.078-6.40556-3.9434-4.49165.12541-5.9696,1.89489-5.921,3.65189a2.07592,2.07592,0,0,0,.14708.85552l4.63938-.13132-.0545-1.77932,2.17327-.05778.11885,4.21917Z"/><path class="cls-2" d="M21.49243,119.274c-3.57112.61259-6.011,1.7314-5.72929,3.382.28889,1.68347,3.32491,1.71236,6.6045,1.14507,2.97167-.5036,5.95056-1.5167,5.64919-3.26713-.27576-1.63488-3.09379-1.84958-6.5244-1.26m1.46547,7.20725c-6.17838,1.061-8.98328-.68612-9.4836-3.58425-.55743-3.254,2.61646-5.47586,7.57888-6.32548,4.91184-.84633,8.6852.41364,9.2492,3.71885C30.892,123.7177,27.3596,125.72749,22.9579,126.48124Z"/><path class="cls-2" d="M26.13771,133.43768l.24031.72815a2.46976,2.46976,0,0,0,3.22579,1.50684,2.12167,2.12167,0,0,0,1.58693-2.91455,3.25793,3.25793,0,0,0-.388-.85617Zm-7.30638,2.411a3.64058,3.64058,0,0,0,.18647.82072,2.611,2.611,0,0,0,3.59345,1.75044,2.743,2.743,0,0,0,1.8883-3.63547l-.237-.72749Zm12.84-6.98534a13.98753,13.98753,0,0,1,1.33353,3.013,5.78,5.78,0,0,1,.13132,4.11674,3.81963,3.81963,0,0,1-2.43921,2.05181,3.89806,3.89806,0,0,1-4.2323-1.17659l-.07025.02233a4.008,4.008,0,0,1-2.9559,4.11674,4.62492,4.62492,0,0,1-3.49759-.12212c-1.33088-.57385-2.33413-1.95857-3.08132-4.23164a17.39978,17.39978,0,0,1-.6986-2.68344Z"/><polygon class="cls-2" points="37.529 143.338 22.496 150.452 21.371 148.064 36.397 140.953 37.529 143.338"/><polygon class="cls-2" points="35.569 157.97 33.47 154.629 29.001 157.444 31.396 161.246 29.456 162.471 25.651 156.434 39.718 147.563 43.366 153.347 41.421 154.568 39.186 151.023 35.323 153.459 37.435 156.799 35.569 157.97"/><path class="cls-2" d="M41.72227,163.63172l.45829.51607c1.05446,1.17659,2.62894,1.08664,3.90467-.04793,1.212-1.084,1.59679-2.31838.478-3.60395a2.87862,2.87862,0,0,0-.67038-.59618Zm3.81143-6.91245a13.86015,13.86015,0,0,1,2.34661,2.14176,5.78953,5.78953,0,0,1,1.84367,3.87249,4.33676,4.33676,0,0,1-1.67952,3.19031,4.39234,4.39234,0,0,1-4.87312.84634l-.03874.03545c.48061,1.16017.04465,2.33676-1.19891,3.91452a25.57257,25.57257,0,0,0-2.57772,3.66108l-1.824-2.03933a23.40845,23.40845,0,0,1,2.4556-3.321c1.40442-1.69,1.50686-2.60662.62506-3.60068l-.394-.43925-5.15544,4.60065-1.74059-1.9461Z"/><path class="cls-2" d="M44.31247,178.85645l9.804-13.4395,1.952,1.42675-1.91721,7.39963c-.40707,1.56725-.9934,3.79568-1.5226,5.39248l.04137.03479c1.12867-1.80493,2.52322-3.97164,4.28681-6.37931l2.76351-3.78977,1.86863,1.369L51.78893,184.3067l-1.95266-1.42346,1.87846-7.39307a48.68421,48.68421,0,0,1,1.64144-5.34717l-.04464-.0256c-1.03542,1.62831-2.35318,3.56784-4.39185,6.357l-2.732,3.74774Z"/><path class="cls-2" d="M63.82072,181.25426c-1.34992,3.36628-1.67031,6.03067-.109,6.65245,1.57712.63819,3.18966-1.93625,4.42731-5.02676,1.1221-2.79243,1.82068-5.86062.17333-6.52113-1.539-.6185-3.19951,1.667-4.49165,4.89544m6.90523,2.52979c-2.32756,5.8186-5.28019,7.29065-8.00827,6.20336-3.0741-1.2278-3.30194-5.1003-1.43266-9.77185,1.85614-4.62559,4.89806-7.181,8.01156-5.93744C72.525,175.57355,72.38381,179.6417,70.726,183.78405Z"/><path class="cls-2" d="M85.2232,185.72358a5.04745,5.04745,0,0,0,.63819.00985c1.72811-.03218,2.66439-1.23765,2.62894-3.13582-.02889-1.5515-.69532-2.84692-2.472-2.81475a3.33087,3.33087,0,0,0-.9133.14116Zm-2.76945-7.69772a14.328,14.328,0,0,1,3.07409-.37819,5.73247,5.73247,0,0,1,4.17453,1.17987,4.7934,4.7934,0,0,1,1.40114,3.52057,5.36468,5.36468,0,0,1-1.16411,3.728,5.17715,5.17715,0,0,1-3.93684,1.80165,5.12288,5.12288,0,0,1-.74061-.00919l.128,6.48567-2.6158.06041Z"/><path class="cls-2" d="M98.6791,183.88318l.66645-.18581c1.51669-.41693,2.145-1.866,1.69264-3.50744-.43269-1.57053-1.36569-2.46545-3.01632-2.03867a2.99783,2.99783,0,0,0-.82729.33354Zm-4.49493-6.4883a14.00881,14.00881,0,0,1,2.95591-1.151,5.80009,5.80009,0,0,1,4.296.07682,4.85341,4.85341,0,0,1,.69532,7.66226l.01642.04793c1.2534.08995,2.11615,1.00325,2.97167,2.818a24.02394,24.02394,0,0,0,2.13519,3.94012l-2.64469.73078a23.555,23.555,0,0,1-1.87847-3.68012c-.88507-2.01044-1.66771-2.51338-2.95-2.1608l-.57057.16021,1.83055,6.65835-2.52.68941Z"/><path class="cls-2" d="M111.35171,179.74805c1.80231,3.145,3.68735,5.04908,5.14232,4.22507,1.48124-.85618.46814-3.71229-1.1825-6.60451-1.50356-2.60924-3.472-5.06484-5.01427-4.18043-1.43923.81481-.673,3.53633,1.05445,6.55987m6.271-3.84427c3.11021,5.43712,2.43328,8.67208-.11555,10.12771-2.866,1.64473-6.04315-.57384-8.54668-4.94337-2.47859-4.32487-2.59021-8.29717.32368-9.96751C112.3044,169.39578,115.40083,172.028,117.62269,175.90378Z"/><path class="cls-2" d="M129.296,177.35941l-13.98446-9.75609,2.13519-1.94544,6.04315,4.57109c1.47139,1.13523,3.26056,2.472,4.80877,3.79962l.05452-.04859c-1.21863-1.66377-2.37552-3.47789-3.42077-5.13575l-4.00778-6.36355,2.11287-1.93034,8.393,14.85966Z"/><rect class="cls-2" x="131.02196" y="153.84302" width="2.63714" height="16.63387" transform="translate(-76.96323 163.50217) rotate(-51.14916)"/><path class="cls-2" d="M143.828,160.70464l-14.33048-8.43505,1.22452-2.084,7.55327,1.17659c1.59352.25344,3.86987.62506,5.5146.99077l.02563-.04465c-1.908-.94941-4.19359-2.12271-6.75818-3.63612l-4.04253-2.37878,1.17919-1.99731,14.33113,8.43176-1.2278,2.084L139.75,153.66744a49.22284,49.22284,0,0,1-5.47521-1.10633l-.023.0453c1.72155.87194,3.77664,1.99075,6.75816,3.74118l3.99463,2.35646Z"/><path class="cls-2" d="M154.08113,139.04479a5.77323,5.77323,0,0,1-.50031,2.42736c-1.388,3.53305-5.07535,4.42075-9.85524,2.54556-5.94728-2.33741-6.85139-6.32218-5.76738-9.07653a4.59836,4.59836,0,0,1,1.18643-1.86862l1.91065,1.27573a3.11238,3.11238,0,0,0-.90083,1.34993c-.66052,1.67361.20486,4.00053,4.42731,5.665,4.15813,1.62831,6.26441.654,6.99846-1.20548a4.40811,4.40811,0,0,0,.31713-1.62569Z"/><polygon class="cls-2" points="140.548 126.936 156.607 131.264 155.915 133.816 139.853 129.478 140.548 126.936"/><path class="cls-2" d="M152.59988,118.5044l-3.88235.11228c-1.10305.03545-2.65126.02889-3.82194.02889l-.00919.07025c1.11881.369,2.667.8529,3.66108,1.19957l3.64795,1.26916Zm1.60273,3.28289,4.13576,1.5423-.38147,2.51338-15.88525-6.12652.44844-3.02617,16.94693-.9271-.37227,2.53965-4.405.24359Z"/><polygon class="cls-2" points="143.213 109.557 143.264 106.915 157.668 107.213 157.765 102.776 159.983 102.821 159.835 109.9 143.213 109.557"/></g></g></svg>