<svg id="Capa_1" data-name="Capa 1" xmlns="http://www.w3.org/2000/svg" xmlns:xlink="http://www.w3.org/1999/xlink" viewBox="0 0 456.87792 363.33206"><defs><style>.cls-1,.cls-16,.cls-5,.cls-8{fill:none;}.cls-13,.cls-2{fill:#fe0070;}.cls-3,.cls-9{fill:#fff;}.cls-3{opacity:0.7;}.cls-12,.cls-3{isolation:isolate;}.cls-15,.cls-4{fill:#263238;}.cls-10,.cls-13,.cls-16,.cls-4,.cls-8,.cls-9{stroke:#263238;stroke-linecap:round;stroke-linejoin:round;}.cls-5{stroke:#616161;stroke-miterlimit:10;}.cls-6{clip-path:url(#clip-path);}.cls-12,.cls-7{opacity:0.2;}.cls-10{fill:#ffc58a;}.cls-11{clip-path:url(#clip-path-2);}.cls-14{clip-path:url(#clip-path-3);}.cls-16{stroke-width:2px;}.cls-17{clip-path:url(#clip-path-4);}.cls-18{clip-path:url(#clip-path-5);}</style><clipPath id="clip-path" transform="translate(-4.75294 -1.65668)"><path class="cls-1" d="M208.9094,364.48874s1.45742-20.48228-7.32779-40.97291-10.76371-21.96737-10.76371-27.966,5.87852-12.99853,6.85557-26.48932.48852-20.02341.48852-20.02341,20.96562,33.97306,35.59677,35.9754,23.40821-11.989,18.04265-30.9779-28.77378-34.47366-38.03122-46.97159-30.23932-12.51464-40.96233-12.51464-16.08856-3.99633-18.04265-11.48844-1.94593-22.52634-1.94593-22.52634-12.68522,7.99268-34.13936-1.00117c0,0,1.95407,27.48214-.48853,31.47848s-5.82967,8.06777-20.46083,8.06777-26.8197,3.00351-33.64269,10.0117-35.10825,34.97423-42.41975,45.97044-3.41963,22.9852,5.35743,27.48214,17.55412.49224,23.89673-5.49809,26.33119-24.98757,26.33119-24.98757,0,11.49678,5.36557,27.98274,9.77038,14.49194,5.84594,26.481-11.7,15.49312-14.13449,30.9779a150.78464,150.78464,0,0,0-1.95407,26.98155"/></clipPath><clipPath id="clip-path-2" transform="translate(-4.75294 -1.65668)"><path class="cls-1" d="M131.86177,232.58447c24.32826,4.80563,33.716-19.089,36.98091-38.18633-8.10128-.91774-12.36768-4.78059-14.06122-11.27986-1.94593-7.50878-1.94593-22.52635-1.94593-22.52635s-12.68522,7.99269-34.13936-1.00116c0,0,1.95407,27.48214-.48853,31.47847-1.69353,2.78659-3.87558,5.57318-9.98207,6.99986C108.00575,206.64581,109.69115,228.196,131.86177,232.58447Z"/></clipPath><clipPath id="clip-path-3" transform="translate(-4.75294 -1.65668)"><path class="cls-1" d="M105.64458,133.38512s.8142,22.35113,16.87019,33.314,27.984,4.63876,34.57089-4.63875,10.70671-18.555,10.70671-32.04582,1.62839-19.406-2.88226-27.84089S144.7424,89.52549,144.7424,89.52549a251.05755,251.05755,0,0,1-20.99,23.61929C111.401,125.3674,105.64458,133.38512,105.64458,133.38512Z"/></clipPath><clipPath id="clip-path-4" transform="translate(-4.75294 -1.65668)"><path class="cls-1" d="M21.66812,255.06909s-8.77706,10.0117-8.77706,20.48227,5.846,20.02342,21.98337,34.97422,31.20009,25.9804,37.5427,29.48448,12.67707-1.00118,12.67707-1.00118,10.48688,10.73756,11.7,8.243-3.65576-6.249-4.63279-7.74239a20.3436,20.3436,0,0,0-2.923-3.24547s5.12131.74255,7.07539,2.50293,5.11317,4.74722,6.57873,4.49693,1.46556-1.50174-.73277-4.49693a26.35968,26.35968,0,0,0-6.33447-5.99869c-1.46556-.99283-6.3426-3.746-6.3426-3.746s7.06724-.50059,9.50983,1.00118,9.02133,5.99869,9.50984,3.99635.48852-3.24547-1.95407-5.49809-7.32779-5.00586-10.23449-5.4981a29.677,29.677,0,0,1-5.85409-1.7437s5.60983-2.00234,7.55577-2.00234,9.77038,3.99635,11.94429,3.50411.977-2.50292-.72464-3.75439-9.26558-4.24663-12.441-4.49694S75.82861,320.529,73.63841,320.529s-7.8-7.99267-13.65411-18.73858S51.94,274.30825,39.5072,268.5682"/></clipPath><clipPath id="clip-path-5" transform="translate(-4.75294 -1.65668)"><path class="cls-1" d="M215.04847,264.44674c-2.0355-4.7639-.2931-15.19276,1.74239-30.08519s4.071-30.08518,4.071-38.12792,1.29457-19.18911-1.262-22.785-11.86288-13.34894-12.555-17.8709,5.57727-11.43838,5.57727-11.43838,1.86452-3.57918,3.49292-1.66862.9282,4.28835,0,7.62559-1.86452,5.957-1.86452,5.957,8.142,2.61973,10.23448,1.19306,1.90522-9.58622,1.75867-13.58255c-.30125-7.79244-3.34634-4.46356-5.45514-.7759-1.01775,1.76873-6.97769.7175-3.49292-3.8128s6.72529-8.52664,9.98209-4.94745,5.57726,10.48726,5.57726,10.48726,2.3286-11.355,4.44552-18.02942,5.91109-9.31923,7.27894-8.852,1.21315,2.79494-.1547,6.05708-4.39667,12.26434-5.15387,15.2178-.90375,6.36579.61065,6.05708,6.81484-9.78644,8.33739-13.82449,3.786-7.75908,6.35889-9.46942,4.69792.46722,3.63947,3.26216a143.51234,143.51234,0,0,1-7.14869,14.75057,64.52294,64.52294,0,0,0-4.242,9.62793,108.07021,108.07021,0,0,1,7.88144-7.76742c3.63947-3.10363,7.58019-3.721,8.78521-2.63642s.1547,1.24313-2.87412,3.72936-7.55576,5.448-11.179,11.48845a57.68607,57.68607,0,0,0-6.51359,14.28337,48.971,48.971,0,0,1-4.39667,9.47775s2.84155,23.64432,7.76747,36.65119,13.63783,32.02912,10.98353,45.62-7.76746,20.57406-14.965,22.70989a13.64662,13.64662,0,0,1-12.31068-2.32773"/></clipPath></defs><title>Ok</title><g id="freepik--background-simple--inject-32"><path class="cls-2" d="M428,69.59571s-29.05-58.17-93.21-66.79-109,33.39-156.18,54.94c-24.72,11.28-53,6.9-79.21,12.36-83.95,17.46-115.57,126.86-80.61,189.07,30.27,53.86,83.53,81.86,164.65,88.33s138,14,210.65-38.78S461.88,146.07571,428,69.59571Z" transform="translate(-4.75294 -1.65668)"/><path class="cls-3" d="M428,69.59571s-29.05-58.17-93.21-66.79-109,33.39-156.18,54.94c-24.72,11.28-53,6.9-79.21,12.36-83.95,17.46-115.57,126.86-80.61,189.07,30.27,53.86,83.53,81.86,164.65,88.33s138,14,210.65-38.78S461.88,146.07571,428,69.59571Z" transform="translate(-4.75294 -1.65668)"/></g><g id="freepik--Character--inject-32"><path class="cls-4" d="M151.85849,71.69631s0-12.51464-20.96562-10.01171S101.14205,83.16806,94.80758,87.1644s-18.04265,7.50878-18.53116,13.49077,4.8852,8.49326-.48852,12.9902-13.61339,8.51829-11.7,14.517,7.3278,11.989,4.8852,15.99371-9.26558,7.99268-2.93111,12.51463,9.26558,5.4981,9.26558,11.48844-2.4426,10.01171,3.41963,11.99737,9.25743-2.00233,12.67707,5.48976,6.823,9.49444,12.67708,7.99268,14.13449-3.99633,17.09817-1.994,12.213,7.5088,16.08856,4.49693,7.32779-7.50878,13.16559-5.00586,10.73114,5.99869,13.1656,1.50176,0-5.49809,9.26557-7.50878,12.67708-1.49341,12.67708-9.48609-.48853-10.01171,3.9-13.49078,8.28853-2.00233,6.83114-10.49561-4.38855-10.49561-2.93112-18.98887-2.4426-11.48844-5.36557-13.99136-6.33447-6.99152-5.35742-11.48844,8.28854-5.00586.9689-12.9902-10.723-5.49809-12.213-11.49678S165.0241,63.70362,151.85849,71.69631Z" transform="translate(-4.75294 -1.65668)"/><path class="cls-5" d="M133.14007,86.7389c-3.00439,4.87237-5.32485,10.37046-10.1612,15.01757-6.98582,6.67447-24.88191,12.51463-25.75311,18.78864s2.18205,9.8365-3.92444,15.20111-15.714,6.67448-15.714,12.0808,2.61359,7.15837,1.31086,11.17973" transform="translate(-4.75294 -1.65668)"/><path class="cls-5" d="M146.1184,80.73188s-2.18205-5.84017-8.29669,0c-.47223.45052-.92005.91773-1.34342,1.39329" transform="translate(-4.75294 -1.65668)"/><path class="cls-5" d="M96.81052,106.2951c-5.37372,1.3349-9.61569,2.29435-10.05536,6.19891-.87934,7.60056.43152,12.51463-4.80377,14.75893s-12.213,5.84016-10.03907,10.287,2.61358,5.84016,2.182,7.60056" transform="translate(-4.75294 -1.65668)"/><path class="cls-5" d="M145.22278,73.5735s-12.213-8.04274-18.72657-.89271-3.49291,16.10217-13.532,25.947a25.37964,25.37964,0,0,1-8.8422,5.49809" transform="translate(-4.75294 -1.65668)"/><path class="cls-5" d="M187.69953,137.006a7.99062,7.99062,0,0,0,2.93925,2.76991" transform="translate(-4.75294 -1.65668)"/><path class="cls-5" d="M153.97541,84.77827s10.91026-3.57918,13.52384,2.67813,3.93259,17.4454,8.73635,19.23918,6.97769,4.47189,6.97769,14.30839a32.23963,32.23963,0,0,0,1.36785,9.35261" transform="translate(-4.75294 -1.65668)"/><path class="cls-5" d="M83.26225,164.37135c3.49291-5.84016,8.28854-3.57084,8.72821-9.83649s-3.05324-8.05108.43152-12.07246,9.16788-5.84016,9.16788-5.84016" transform="translate(-4.75294 -1.65668)"/><path class="cls-5" d="M88.05788,176.90268a20.99066,20.99066,0,0,1-4.15242-4.78059" transform="translate(-4.75294 -1.65668)"/><path class="cls-2" d="M208.9094,364.48874s1.45742-20.48228-7.32779-40.97291-10.76371-21.96737-10.76371-27.966,5.87852-12.99853,6.85557-26.48932.48852-20.02341.48852-20.02341,20.96562,33.97306,35.59677,35.9754,23.40821-11.989,18.04265-30.9779-28.77378-34.47366-38.03122-46.97159-30.23932-12.51464-40.96233-12.51464-16.08856-3.99633-18.04265-11.48844-1.94593-22.52634-1.94593-22.52634-12.68522,7.99268-34.13936-1.00117c0,0,1.95407,27.48214-.48853,31.47848s-5.82967,8.06777-20.46083,8.06777-26.8197,3.00351-33.64269,10.0117-35.10825,34.97423-42.41975,45.97044-3.41963,22.9852,5.35743,27.48214,17.55412.49224,23.89673-5.49809,26.33119-24.98757,26.33119-24.98757,0,11.49678,5.36557,27.98274,9.77038,14.49194,5.84594,26.481-11.7,15.49312-14.13449,30.9779a150.78464,150.78464,0,0,0-1.95407,26.98155" transform="translate(-4.75294 -1.65668)"/><g class="cls-6"><g class="cls-7"><path d="M176.9114,210.21665c-.33382,0-1.55512.83431,0,3.26215C178.4665,211.06763,177.2452,210.21665,176.9114,210.21665Z" transform="translate(-4.75294 -1.65668)"/><path d="M215.99294,210.21665c-.33382,0-1.55512.83431,0,3.26215C217.548,211.06763,216.32674,210.21665,215.99294,210.21665Z" transform="translate(-4.75294 -1.65668)"/><path d="M215.99294,230.24006c-.33382,0-1.55512.83431,0,3.26216C217.548,231.09105,216.32674,230.24006,215.99294,230.24006Z" transform="translate(-4.75294 -1.65668)"/><path d="M176.9114,230.24006c-.33382,0-1.55512.83431,0,3.26216C178.4665,231.09105,177.2452,230.24006,176.9114,230.24006Z" transform="translate(-4.75294 -1.65668)"/><path d="M196.45217,220.22836c-.33382,0-1.55512.8343,0,3.26215C198.00727,221.07934,196.786,220.22836,196.45217,220.22836Z" transform="translate(-4.75294 -1.65668)"/><path d="M196.45217,200.20494c-.33382,0-1.55512.83431,0,3.26215C198.00727,201.05592,196.786,200.20494,196.45217,200.20494Z" transform="translate(-4.75294 -1.65668)"/><path d="M177.79073,213.97936c2.81712.15852,2.91482-1.35157,2.752-1.66861S179.00387,211.38467,177.79073,213.97936Z" transform="translate(-4.75294 -1.65668)"/><path d="M219.25786,213.40371l-1.08287-1.143a3.94779,3.94779,0,0,0-1.3353,1.71868A3.19591,3.19591,0,0,0,219.25786,213.40371Z" transform="translate(-4.75294 -1.65668)"/><path d="M197.33149,223.99107c2.81712.15852,2.91482-1.35157,2.752-1.66862S198.54464,221.39638,197.33149,223.99107Z" transform="translate(-4.75294 -1.65668)"/><path d="M197.33149,203.96765c2.81712.15853,2.91482-1.35157,2.752-1.66861S198.54464,201.373,197.33149,203.96765Z" transform="translate(-4.75294 -1.65668)"/><path d="M212.39417,212.3358c-.16285.292-.057,1.80211,2.752,1.66862C213.90044,211.38467,212.56515,212.03543,212.39417,212.3358Z" transform="translate(-4.75294 -1.65668)"/><path d="M212.39417,232.35922a1.04691,1.04691,0,0,0,.42337,1.143h0a3.35268,3.35268,0,0,0,2.3286.50059,4.68961,4.68961,0,0,0-.26055-.50059C213.72132,231.49985,212.557,232.07553,212.39417,232.35922Z" transform="translate(-4.75294 -1.65668)"/><path d="M192.8534,222.34751c-.16285.292-.057,1.80211,2.752,1.66862C194.35967,221.39638,193.02438,222.04714,192.8534,222.34751Z" transform="translate(-4.75294 -1.65668)"/><path d="M192.8534,202.32409c-.16285.292-.057,1.80211,2.752,1.66862C194.35967,201.373,193.02438,202.02373,192.8534,202.32409Z" transform="translate(-4.75294 -1.65668)"/><path d="M176.9114,270.2869c-.33382,0-1.55512.83431,0,3.26215C178.4665,271.13789,177.2452,270.2869,176.9114,270.2869Z" transform="translate(-4.75294 -1.65668)"/><path d="M215.99294,270.2869c-.24425,0-.94447.45053-.72465,1.61021.342.37545.68392.75087,1.034,1.118C217.36079,271.01274,216.30231,270.2869,215.99294,270.2869Z" transform="translate(-4.75294 -1.65668)"/><path d="M176.9114,290.31032c-.33382,0-1.55512.83431,0,3.26215C178.4665,291.1613,177.2452,290.31032,176.9114,290.31032Z" transform="translate(-4.75294 -1.65668)"/><path d="M235.53371,280.29861c-.33383,0-1.55512.83431,0,3.26215C237.08881,281.14959,235.86751,280.29861,235.53371,280.29861Z" transform="translate(-4.75294 -1.65668)"/><path d="M176.9114,250.26348c-.33382,0-1.55512.83431,0,3.26215C178.4665,251.11447,177.2452,250.26348,176.9114,250.26348Z" transform="translate(-4.75294 -1.65668)"/><path d="M215.99294,250.26348c-.33382,0-1.55512.83431,0,3.26215C217.548,251.11447,216.32674,250.26348,215.99294,250.26348Z" transform="translate(-4.75294 -1.65668)"/><path d="M196.45217,260.27519c-.33382,0-1.55512.83431,0,3.26215C198.00727,261.12618,196.786,260.27519,196.45217,260.27519Z" transform="translate(-4.75294 -1.65668)"/><path d="M235.53371,260.27519c-.33383,0-1.55512.83431,0,3.26215C237.08881,261.12618,235.86751,260.27519,235.53371,260.27519Z" transform="translate(-4.75294 -1.65668)"/><path d="M196.45217,240.25177c-.33382,0-1.55512.83431,0,3.26216C198.00727,241.10276,196.786,240.25177,196.45217,240.25177Z" transform="translate(-4.75294 -1.65668)"/><path d="M235.53371,240.25177c-.33383,0-1.55512.83431,0,3.26216C237.08881,241.10276,235.86751,240.25177,235.53371,240.25177Z" transform="translate(-4.75294 -1.65668)"/><path d="M177.79073,274.04962c2.81712.15852,2.91482-1.35158,2.752-1.66862S179.00387,271.45493,177.79073,274.04962Z" transform="translate(-4.75294 -1.65668)"/><path d="M216.99439,273.74928l.2931.30869c2.36932,0,2.44259-1.37661,2.30417-1.66862S218.19126,271.51334,216.99439,273.74928Z" transform="translate(-4.75294 -1.65668)"/><path d="M179.89135,292.12911a1.45958,1.45958,0,0,0-.977.35042,3.29229,3.29229,0,0,0-.456.45053,4.76074,4.76074,0,0,0-.43968.64241.17937.17937,0,0,1,0,.05006c-.07327.13349-.15469.28366-.228.45053a3.33664,3.33664,0,0,0,2.3286-.50059h0a1.47664,1.47664,0,0,0,.16285-.15017,1.30286,1.30286,0,0,0,.20355-.30034.6195.6195,0,0,0-.06868-.85845.58415.58415,0,0,0-.49312-.13438Z" transform="translate(-4.75294 -1.65668)"/><path d="M236.413,284.06133c2.809.15852,2.91482-1.35158,2.752-1.66862S237.62618,281.46664,236.413,284.06133Z" transform="translate(-4.75294 -1.65668)"/><path d="M177.79073,254.0262c2.81712.15852,2.91482-1.35158,2.752-1.66862S179.00387,251.43151,177.79073,254.0262Z" transform="translate(-4.75294 -1.65668)"/><path d="M219.59168,252.38263c-.171-.30033-1.50627-.95112-2.752,1.66862C219.64868,254.18472,219.75453,252.67462,219.59168,252.38263Z" transform="translate(-4.75294 -1.65668)"/><path d="M197.33149,264.03791a6.68414,6.68414,0,0,0,.70835,0c0-.41716.0407-.83431.057-1.21809A5.32428,5.32428,0,0,0,197.33149,264.03791Z" transform="translate(-4.75294 -1.65668)"/><path d="M236.413,264.03791c2.809.15852,2.91482-1.35158,2.752-1.66862S237.62618,261.44322,236.413,264.03791Z" transform="translate(-4.75294 -1.65668)"/><path d="M197.33149,244.01449c2.81712.15852,2.91482-1.35158,2.752-1.66862S198.54464,241.4198,197.33149,244.01449Z" transform="translate(-4.75294 -1.65668)"/><path d="M236.413,244.01449c2.809.15852,2.91482-1.35158,2.752-1.66862S237.62618,241.4198,236.413,244.01449Z" transform="translate(-4.75294 -1.65668)"/><path d="M194.31082,283.99459l.4478-1.24311c-.94447-1.00118-1.77494-.56732-1.90522-.33372S192.76385,283.70258,194.31082,283.99459Z" transform="translate(-4.75294 -1.65668)"/><path d="M251.47571,272.40605a1.08555,1.08555,0,0,0,.54552,1.23479c.171-.48389.31755-.98448.456-1.49342A.93705.93705,0,0,0,251.47571,272.40605Z" transform="translate(-4.75294 -1.65668)"/><path d="M231.93494,282.41776c-.171.292-.057,1.80211,2.752,1.66862C233.44121,281.46664,232.10591,282.1174,231.93494,282.41776Z" transform="translate(-4.75294 -1.65668)"/><path d="M212.39417,252.38263c-.16285.292-.057,1.80212,2.752,1.66862C213.90044,251.43151,212.56515,252.08227,212.39417,252.38263Z" transform="translate(-4.75294 -1.65668)"/><path d="M192.8534,262.39434c-.16285.292-.057,1.80211,2.752,1.66862C194.35967,261.44322,193.02438,262.094,192.8534,262.39434Z" transform="translate(-4.75294 -1.65668)"/><path d="M231.93494,262.39434c-.171.292-.057,1.80211,2.752,1.66862C233.44121,261.44322,232.10591,262.094,231.93494,262.39434Z" transform="translate(-4.75294 -1.65668)"/><path d="M192.8534,242.37093c-.16285.292-.057,1.80211,2.752,1.66861C194.35967,241.4198,193.02438,242.07056,192.8534,242.37093Z" transform="translate(-4.75294 -1.65668)"/><path d="M231.93494,242.37093c-.171.292-.057,1.80211,2.752,1.66861C233.44121,241.4198,232.10591,242.07056,231.93494,242.37093Z" transform="translate(-4.75294 -1.65668)"/><path d="M219.16831,233.50222h0a1.04689,1.04689,0,0,0,.42337-1.143c-.16285-.28367-1.32714-.83431-2.49144,1.143h0a4.68961,4.68961,0,0,0-.26055.50059A3.33659,3.33659,0,0,0,219.16831,233.50222Z" transform="translate(-4.75294 -1.65668)"/><path d="M180.08677,233.50222h0a1.04691,1.04691,0,0,0,.42338-1.143c-.16285-.28367-1.32715-.83431-2.49145,1.143h0a4.68961,4.68961,0,0,0-.26055.50059A3.33659,3.33659,0,0,0,180.08677,233.50222Z" transform="translate(-4.75294 -1.65668)"/><path d="M176.9114,330.35715c-.33382,0-1.55512.83431,0,3.26215C178.4665,331.20814,177.2452,330.35715,176.9114,330.35715Z" transform="translate(-4.75294 -1.65668)"/><path d="M176.9114,350.38057c-.33382,0-1.55512.83431,0,3.26215C178.4665,351.23156,177.2452,350.38057,176.9114,350.38057Z" transform="translate(-4.75294 -1.65668)"/><path d="M196.45217,340.36886c-.33382,0-1.55512.83431,0,3.26215C198.00727,341.21985,196.786,340.36886,196.45217,340.36886Z" transform="translate(-4.75294 -1.65668)"/><path d="M176.9114,310.33374c-.33382,0-1.55512.8343,0,3.26215C178.4665,311.18472,177.2452,310.33374,176.9114,310.33374Z" transform="translate(-4.75294 -1.65668)"/><path d="M196.45217,320.34544c-.33382,0-1.55512.83431,0,3.26216C198.00727,321.19643,196.786,320.34544,196.45217,320.34544Z" transform="translate(-4.75294 -1.65668)"/><path d="M177.79073,334.11987c2.81712.15852,2.91482-1.35158,2.752-1.66862S179.00387,331.52518,177.79073,334.11987Z" transform="translate(-4.75294 -1.65668)"/><path d="M179.89135,352.19936h-.171a1.32885,1.32885,0,0,0-.59437.1919l-.2117.15017a3.833,3.833,0,0,0-.89563,1.09294h0a4.69049,4.69049,0,0,0-.26054.50059,3.33661,3.33661,0,0,0,2.32859-.50059h0a1.0469,1.0469,0,0,0,.42338-1.143A.80618.80618,0,0,0,179.89135,352.19936Z" transform="translate(-4.75294 -1.65668)"/><path d="M197.33149,344.13158c2.81712.15852,2.91482-1.35158,2.752-1.66862S198.54464,341.53689,197.33149,344.13158Z" transform="translate(-4.75294 -1.65668)"/><path d="M177.79073,314.09645c2.81712.15852,2.91482-1.35157,2.752-1.66862S179.00387,311.50176,177.79073,314.09645Z" transform="translate(-4.75294 -1.65668)"/><path d="M197.33149,324.10816c2.81712.15852,2.91482-1.35158,2.752-1.66862S198.54464,321.51347,197.33149,324.10816Z" transform="translate(-4.75294 -1.65668)"/><path d="M192.8534,342.488c-.16285.292-.057,1.80211,2.752,1.66862C194.35967,341.53689,193.02438,342.18765,192.8534,342.488Z" transform="translate(-4.75294 -1.65668)"/><path d="M192.8534,322.4646c-.16285.292-.057,1.80211,2.752,1.66861C194.35967,321.51347,193.02438,322.16423,192.8534,322.4646Z" transform="translate(-4.75294 -1.65668)"/><path d="M196.45217,360.39228c-.33382,0-1.55512.83431,0,3.26215C198.00727,361.24327,196.786,360.39228,196.45217,360.39228Z" transform="translate(-4.75294 -1.65668)"/><path d="M197.33149,364.155c2.81712.15852,2.91482-1.35158,2.752-1.66862S198.54464,361.56031,197.33149,364.155Z" transform="translate(-4.75294 -1.65668)"/><path d="M192.8534,362.51143c-.16285.292-.057,1.80211,2.752,1.66862C194.35967,361.56031,193.02438,362.21107,192.8534,362.51143Z" transform="translate(-4.75294 -1.65668)"/><path d="M137.82985,170.16981c-.33382,0-1.55512.83431,0,3.26215C139.385,171.0208,138.16368,170.16981,137.82985,170.16981Z" transform="translate(-4.75294 -1.65668)"/><path d="M118.75318,160.43341c0,.45052.06514,1.07626.114,1.86051A1.77975,1.77975,0,0,0,118.75318,160.43341Z" transform="translate(-4.75294 -1.65668)"/><path d="M140.80982,171.9886a1.45977,1.45977,0,0,0-.977.35041,3.29382,3.29382,0,0,0-.45594.45052,4.75951,4.75951,0,0,0-.43967.64242v.05006c-.07327.13349-.1547.28366-.228.45052a3.33662,3.33662,0,0,0,2.32861-.50059h0a1.48023,1.48023,0,0,0,.16284-.15017,1.30288,1.30288,0,0,0,.20354-.30035.85264.85264,0,0,0,.057-.69248A.80593.80593,0,0,0,140.80982,171.9886Z" transform="translate(-4.75294 -1.65668)"/><path d="M119.16842,163.92083c2.81713.15852,2.91483-1.35157,2.752-1.66862S120.38158,161.32613,119.16842,163.92083Z" transform="translate(-4.75294 -1.65668)"/><path d="M99.49737,211.14272a1.13842,1.13842,0,0,0-.10585-.3671h0a1.21983,1.21983,0,0,0-.08142-.15017h0a.9852.9852,0,0,0-.18726-.21693h0a.75529.75529,0,0,0-.19542-.12514h0a.34262.34262,0,0,0-.32567,0c-.37454.16687-.98519.83431-.30125,2.38611a6.92947,6.92947,0,0,0,.4641.83431,6.92947,6.92947,0,0,0,.4641-.83431,3.0461,3.0461,0,0,0,.3094-1.25981,2.10708,2.10708,0,0,0,0-.23361Z" transform="translate(-4.75294 -1.65668)"/><path d="M137.82985,210.21665c-.33382,0-1.55512.83431,0,3.26215C139.385,211.06763,138.16368,210.21665,137.82985,210.21665Z" transform="translate(-4.75294 -1.65668)"/><path d="M137.82985,230.24006c-.33382,0-1.55512.83431,0,3.26216C139.385,231.09105,138.16368,230.24006,137.82985,230.24006Z" transform="translate(-4.75294 -1.65668)"/><path d="M99.49737,231.16614a1.13842,1.13842,0,0,0-.10585-.3671h0a1.21983,1.21983,0,0,0-.08142-.15017h0a.9852.9852,0,0,0-.18726-.21693h0a.75476.75476,0,0,0-.19542-.12514h0a.34257.34257,0,0,0-.32567,0c-.37454.16687-.98519.83431-.30125,2.38611a6.92947,6.92947,0,0,0,.4641.83431,6.92947,6.92947,0,0,0,.4641-.83431,3.04614,3.04614,0,0,0,.3094-1.25981,2.10708,2.10708,0,0,0,0-.23361Z" transform="translate(-4.75294 -1.65668)"/><path d="M118.28908,220.22836c-.33382,0-1.55512.8343,0,3.26215C119.8442,221.07934,118.62291,220.22836,118.28908,220.22836Z" transform="translate(-4.75294 -1.65668)"/><path d="M157.37062,220.22836c-.33382,0-1.55512.8343,0,3.26215C158.92574,221.07934,157.70444,220.22836,157.37062,220.22836Z" transform="translate(-4.75294 -1.65668)"/><path d="M137.82985,190.19323c-.33382,0-1.55512.83431,0,3.26215C139.385,191.04422,138.16368,190.19323,137.82985,190.19323Z" transform="translate(-4.75294 -1.65668)"/><path d="M118.28908,200.20494c-.33382,0-1.55512.83431,0,3.26215C119.8442,201.05592,118.62291,200.20494,118.28908,200.20494Z" transform="translate(-4.75294 -1.65668)"/><path d="M157.37062,200.20494c-.33382,0-1.55512.83431,0,3.26215C158.92574,201.05592,157.70444,200.20494,157.37062,200.20494Z" transform="translate(-4.75294 -1.65668)"/><path d="M99.62765,213.97936c2.81713.15852,2.91483-1.35157,2.752-1.66861S100.84081,211.38467,99.62765,213.97936Z" transform="translate(-4.75294 -1.65668)"/><path d="M138.70919,213.97936c2.809.15852,2.91483-1.35157,2.752-1.66861S139.92235,211.38467,138.70919,213.97936Z" transform="translate(-4.75294 -1.65668)"/><path d="M119.16842,223.99107c2.81713.15852,2.91483-1.35157,2.752-1.66862S120.38158,221.39638,119.16842,223.99107Z" transform="translate(-4.75294 -1.65668)"/><path d="M158.25,223.99107c2.809.15852,2.91483-1.35157,2.752-1.66862S159.46312,221.39638,158.25,223.99107Z" transform="translate(-4.75294 -1.65668)"/><path d="M138.70919,193.956c2.809.15852,2.91483-1.35158,2.752-1.66862S139.92235,191.36126,138.70919,193.956Z" transform="translate(-4.75294 -1.65668)"/><path d="M119.16842,203.96765c2.81713.15853,2.91483-1.35157,2.752-1.66861S120.38158,201.373,119.16842,203.96765Z" transform="translate(-4.75294 -1.65668)"/><path d="M158.25,203.96765c2.809.15853,2.91483-1.35157,2.752-1.66861S159.46312,201.373,158.25,203.96765Z" transform="translate(-4.75294 -1.65668)"/><path d="M121.88784,182.30066c-.16284-.28366-1.35157-.83431-2.53216,1.20975v.43384C121.94484,184.06105,122.05068,182.58432,121.88784,182.30066Z" transform="translate(-4.75294 -1.65668)"/><path d="M134.23109,212.3358c-.16283.292-.057,1.80211,2.752,1.66862C135.73737,211.38467,134.40208,212.03543,134.23109,212.3358Z" transform="translate(-4.75294 -1.65668)"/><path d="M134.23109,232.35922a1.0469,1.0469,0,0,0,.42339,1.143h0a3.35256,3.35256,0,0,0,2.32861.50059,4.68594,4.68594,0,0,0-.26055-.50059C135.55824,231.49985,134.39393,232.07553,134.23109,232.35922Z" transform="translate(-4.75294 -1.65668)"/><path d="M114.69032,222.34751c-.16283.292-.057,1.80211,2.752,1.66862C116.1966,221.39638,114.86131,222.04714,114.69032,222.34751Z" transform="translate(-4.75294 -1.65668)"/><path d="M173.31263,212.3358c-.171.292-.057,1.80211,2.752,1.66862C174.8189,211.38467,173.48361,212.03543,173.31263,212.3358Z" transform="translate(-4.75294 -1.65668)"/><path d="M175.80408,233.50222c-1.1643-2.00234-2.3286-1.42667-2.49145-1.143a1.0469,1.0469,0,0,0,.42338,1.143h0a3.33667,3.33667,0,0,0,2.32859.50059,4.68961,4.68961,0,0,0-.26055-.50059Z" transform="translate(-4.75294 -1.65668)"/><path d="M153.77186,222.34751c-.171.292-.057,1.80211,2.752,1.66862C155.27814,221.39638,153.94285,222.04714,153.77186,222.34751Z" transform="translate(-4.75294 -1.65668)"/><path d="M134.23109,192.31237c-.16283.292-.057,1.80211,2.752,1.66862C135.73737,191.36126,134.40208,192.012,134.23109,192.31237Z" transform="translate(-4.75294 -1.65668)"/><path d="M114.69032,202.32409c-.16283.292-.057,1.80211,2.752,1.66862C116.1966,201.373,114.86131,202.02373,114.69032,202.32409Z" transform="translate(-4.75294 -1.65668)"/><path d="M153.77186,202.32409c-.171.292-.057,1.80211,2.752,1.66862C155.27814,201.373,153.94285,202.02373,153.77186,202.32409Z" transform="translate(-4.75294 -1.65668)"/><path d="M154.99316,183.81911c-.07327-.23361-.14655-.45887-.21169-.70082s-.17912-.72584-.26055-1.118a.85243.85243,0,0,0-.74906.30035C153.64159,182.52593,153.6823,183.477,154.99316,183.81911Z" transform="translate(-4.75294 -1.65668)"/><path d="M136.72254,173.432a4.75852,4.75852,0,0,0-.43966-.64242,2.88249,2.88249,0,0,0-.456-.45052,1.45977,1.45977,0,0,0-.977-.35041.80666.80666,0,0,0-.61878.30035.85263.85263,0,0,0,.057.69248,1.30292,1.30292,0,0,0,.20355.30035l.16283.15017h0a3.35251,3.35251,0,0,0,2.32861.50059c-.07327-.16686-.1547-.317-.228-.45052Z" transform="translate(-4.75294 -1.65668)"/><path d="M99.49737,271.213a1.13842,1.13842,0,0,0-.10585-.3671h0a1.22055,1.22055,0,0,0-.08142-.15017h0a.98566.98566,0,0,0-.18726-.21693h0a.75529.75529,0,0,0-.19542-.12514h0a.34262.34262,0,0,0-.32567,0c-.37454.16688-.98519.83431-.30125,2.38612a6.92935,6.92935,0,0,0,.4641.8343,6.92935,6.92935,0,0,0,.4641-.8343,3.04619,3.04619,0,0,0,.3094-1.25982,2.10708,2.10708,0,0,0,0-.23361Z" transform="translate(-4.75294 -1.65668)"/><path d="M137.82985,270.2869c-.33382,0-1.55512.83431,0,3.26215C139.385,271.13789,138.16368,270.2869,137.82985,270.2869Z" transform="translate(-4.75294 -1.65668)"/><path d="M137.82985,290.31032c-.33382,0-1.55512.83431,0,3.26215C139.385,291.1613,138.16368,290.31032,137.82985,290.31032Z" transform="translate(-4.75294 -1.65668)"/><path d="M99.49737,291.23639a1.13842,1.13842,0,0,0-.10585-.3671h0a1.21983,1.21983,0,0,0-.08142-.15017h0a.9852.9852,0,0,0-.18726-.21693h0a.75529.75529,0,0,0-.19542-.12514h0a.33472.33472,0,0,0-.32567,0c-.37454.16687-.98519.83431-.30125,2.38611a6.92947,6.92947,0,0,0,.4641.83431,6.92947,6.92947,0,0,0,.4641-.83431,3.0461,3.0461,0,0,0,.3094-1.25981,2.10708,2.10708,0,0,0,0-.23361Z" transform="translate(-4.75294 -1.65668)"/><path d="M118.28908,280.29861c-.33382,0-1.55512.83431,0,3.26215C119.8442,281.14959,118.62291,280.29861,118.28908,280.29861Z" transform="translate(-4.75294 -1.65668)"/><path d="M157.37062,280.29861c-.33382,0-1.55512.83431,0,3.26215C158.92574,281.14959,157.70444,280.29861,157.37062,280.29861Z" transform="translate(-4.75294 -1.65668)"/><path d="M99.49737,251.18955a1.13843,1.13843,0,0,0-.10585-.36709h0a1.21983,1.21983,0,0,0-.08142-.15017h0a.9852.9852,0,0,0-.18726-.21693h0a.75476.75476,0,0,0-.19542-.12514h0a.34257.34257,0,0,0-.32567,0c-.37454.16687-.98519.8343-.30125,2.38611a6.92947,6.92947,0,0,0,.4641.83431,6.92947,6.92947,0,0,0,.4641-.83431,3.04615,3.04615,0,0,0,.3094-1.25982,2.1069,2.1069,0,0,0,0-.2336Z" transform="translate(-4.75294 -1.65668)"/><path d="M137.82985,250.26348c-.33382,0-1.55512.83431,0,3.26215C139.385,251.11447,138.16368,250.26348,137.82985,250.26348Z" transform="translate(-4.75294 -1.65668)"/><path d="M118.28908,260.27519c-.33382,0-1.55512.83431,0,3.26215C119.8442,261.12618,118.62291,260.27519,118.28908,260.27519Z" transform="translate(-4.75294 -1.65668)"/><path d="M157.37062,260.27519c-.33382,0-1.55512.83431,0,3.26215C158.92574,261.12618,157.70444,260.27519,157.37062,260.27519Z" transform="translate(-4.75294 -1.65668)"/><path d="M118.28908,240.25177c-.33382,0-1.55512.83431,0,3.26216C119.8442,241.10276,118.62291,240.25177,118.28908,240.25177Z" transform="translate(-4.75294 -1.65668)"/><path d="M157.37062,240.25177c-.33382,0-1.55512.83431,0,3.26216C158.92574,241.10276,157.70444,240.25177,157.37062,240.25177Z" transform="translate(-4.75294 -1.65668)"/><path d="M99.62765,274.04962c2.81713.15852,2.91483-1.35158,2.752-1.66862S100.84081,271.45493,99.62765,274.04962Z" transform="translate(-4.75294 -1.65668)"/><path d="M138.70919,274.04962c2.809.15852,2.91483-1.35158,2.752-1.66862S139.92235,271.45493,138.70919,274.04962Z" transform="translate(-4.75294 -1.65668)"/><path d="M140.80982,292.12911a1.45983,1.45983,0,0,0-.977.35042,3.29277,3.29277,0,0,0-.45594.45053,4.76067,4.76067,0,0,0-.43967.64241v.05006c-.07327.13349-.1547.28366-.228.45053a3.33667,3.33667,0,0,0,2.32861-.50059h0a1.47925,1.47925,0,0,0,.16284-.15017,1.30282,1.30282,0,0,0,.20354-.30034.85259.85259,0,0,0,.057-.69246A.806.806,0,0,0,140.80982,292.12911Z" transform="translate(-4.75294 -1.65668)"/><path d="M101.72828,292.12911a1.4598,1.4598,0,0,0-.977.35042,3.29229,3.29229,0,0,0-.456.45053,4.75968,4.75968,0,0,0-.43966.64241v.05006c-.07328.13349-.1547.28366-.228.45053a3.33667,3.33667,0,0,0,2.32861-.50059h0a1.47925,1.47925,0,0,0,.16284-.15017,1.30286,1.30286,0,0,0,.20355-.30034.61951.61951,0,0,0-.06868-.85845.58414.58414,0,0,0-.49312-.13438Z" transform="translate(-4.75294 -1.65668)"/><path d="M119.16842,284.06133c2.81713.15852,2.91483-1.35158,2.752-1.66862S120.38158,281.46664,119.16842,284.06133Z" transform="translate(-4.75294 -1.65668)"/><path d="M158.25,284.06133c2.809.15852,2.91483-1.35158,2.752-1.66862S159.46312,281.46664,158.25,284.06133Z" transform="translate(-4.75294 -1.65668)"/><path d="M99.62765,254.0262c2.81713.15852,2.91483-1.35158,2.752-1.66862S100.84081,251.43151,99.62765,254.0262Z" transform="translate(-4.75294 -1.65668)"/><path d="M138.70919,254.0262c2.809.15852,2.91483-1.35158,2.752-1.66862S139.92235,251.43151,138.70919,254.0262Z" transform="translate(-4.75294 -1.65668)"/><path d="M119.16842,264.03791c2.81713.15852,2.91483-1.35158,2.752-1.66862S120.38158,261.44322,119.16842,264.03791Z" transform="translate(-4.75294 -1.65668)"/><path d="M158.25,264.03791c2.809.15852,2.91483-1.35158,2.752-1.66862S159.46312,261.44322,158.25,264.03791Z" transform="translate(-4.75294 -1.65668)"/><path d="M119.16842,244.01449c2.81713.15852,2.91483-1.35158,2.752-1.66862S120.38158,241.4198,119.16842,244.01449Z" transform="translate(-4.75294 -1.65668)"/><path d="M158.25,244.01449c2.809.15852,2.91483-1.35158,2.752-1.66862S159.46312,241.4198,158.25,244.01449Z" transform="translate(-4.75294 -1.65668)"/><path d="M134.23109,272.40605c-.16283.292-.057,1.80211,2.752,1.66862C135.73737,271.45493,134.40208,272.10569,134.23109,272.40605Z" transform="translate(-4.75294 -1.65668)"/><path d="M114.69032,282.41776c-.16283.292-.057,1.80211,2.752,1.66862C116.1966,281.46664,114.86131,282.1174,114.69032,282.41776Z" transform="translate(-4.75294 -1.65668)"/><path d="M173.31263,272.40605c-.171.292-.057,1.80211,2.752,1.66862C174.8189,271.45493,173.48361,272.10569,173.31263,272.40605Z" transform="translate(-4.75294 -1.65668)"/><path d="M153.77186,282.41776c-.171.292-.057,1.80211,2.752,1.66862C155.27814,281.46664,153.94285,282.1174,153.77186,282.41776Z" transform="translate(-4.75294 -1.65668)"/><path d="M103.36482,296.0754s21.16916,5.56485,47.7609-15.56821,36.91576-12.7983,35.82474,2.21926-23.88045,28.92548-33.65083,30.5941C137.23549,316.06543,122.90559,320.554,103.36482,296.0754Z" transform="translate(-4.75294 -1.65668)"/><path d="M134.23109,252.38263c-.16283.292-.057,1.80212,2.752,1.66862C135.73737,251.43151,134.40208,252.08227,134.23109,252.38263Z" transform="translate(-4.75294 -1.65668)"/><path d="M114.69032,262.39434c-.16283.292-.057,1.80211,2.752,1.66862C116.1966,261.44322,114.86131,262.094,114.69032,262.39434Z" transform="translate(-4.75294 -1.65668)"/><path d="M173.31263,252.38263c-.171.292-.057,1.80212,2.752,1.66862C174.8189,251.43151,173.48361,252.08227,173.31263,252.38263Z" transform="translate(-4.75294 -1.65668)"/><path d="M153.77186,262.39434c-.171.292-.057,1.80211,2.752,1.66862C155.27814,261.44322,153.94285,262.094,153.77186,262.39434Z" transform="translate(-4.75294 -1.65668)"/><path d="M114.69032,242.37093c-.16283.292-.057,1.80211,2.752,1.66861C116.1966,241.4198,114.86131,242.07056,114.69032,242.37093Z" transform="translate(-4.75294 -1.65668)"/><path d="M153.77186,242.37093c-.171.292-.057,1.80211,2.752,1.66861C155.27814,241.4198,153.94285,242.07056,153.77186,242.37093Z" transform="translate(-4.75294 -1.65668)"/><path d="M141.00523,233.50222h0a1.04687,1.04687,0,0,0,.42339-1.143c-.16284-.28367-1.32715-.83431-2.49145,1.143h0a4.68778,4.68778,0,0,0-.26055.50059A3.33671,3.33671,0,0,0,141.00523,233.50222Z" transform="translate(-4.75294 -1.65668)"/><path d="M101.92369,233.50222h0a1.04687,1.04687,0,0,0,.42339-1.143c-.16284-.28367-1.32715-.83431-2.49144,1.143h0a4.68412,4.68412,0,0,0-.26055.50059A3.33668,3.33668,0,0,0,101.92369,233.50222Z" transform="translate(-4.75294 -1.65668)"/><path d="M99.49737,331.28322a1.13843,1.13843,0,0,0-.10585-.36709h0a1.21983,1.21983,0,0,0-.08142-.15017h0a.9852.9852,0,0,0-.18726-.21693h0a.75476.75476,0,0,0-.19542-.12514h0a.33472.33472,0,0,0-.32567,0c-.37454.16687-.98519.83431-.30125,2.38611a6.92947,6.92947,0,0,0,.4641.83431,6.92947,6.92947,0,0,0,.4641-.83431,3.04615,3.04615,0,0,0,.3094-1.25982,2.1069,2.1069,0,0,0,0-.2336Z" transform="translate(-4.75294 -1.65668)"/><path d="M137.82985,330.35715c-.33382,0-1.55512.83431,0,3.26215C139.385,331.20814,138.16368,330.35715,137.82985,330.35715Z" transform="translate(-4.75294 -1.65668)"/><path d="M137.82985,350.38057c-.33382,0-1.55512.83431,0,3.26215C139.385,351.23156,138.16368,350.38057,137.82985,350.38057Z" transform="translate(-4.75294 -1.65668)"/><path d="M99.49737,351.30664a1.13842,1.13842,0,0,0-.10585-.3671h0a1.22055,1.22055,0,0,0-.08142-.15017h0a.98538.98538,0,0,0-.18726-.21692h0a.75506.75506,0,0,0-.19542-.12515h0a.33472.33472,0,0,0-.32567,0c-.37454.16688-.98519.83431-.30125,2.38612a6.92947,6.92947,0,0,0,.4641.83431,6.92947,6.92947,0,0,0,.4641-.83431,3.04619,3.04619,0,0,0,.3094-1.25982,2.1069,2.1069,0,0,0,0-.2336Z" transform="translate(-4.75294 -1.65668)"/><path d="M118.28908,340.36886c-.33382,0-1.55512.83431,0,3.26215C119.8442,341.21985,118.62291,340.36886,118.28908,340.36886Z" transform="translate(-4.75294 -1.65668)"/><path d="M157.37062,340.36886c-.33382,0-1.55512.83431,0,3.26215C158.92574,341.21985,157.70444,340.36886,157.37062,340.36886Z" transform="translate(-4.75294 -1.65668)"/><path d="M99.49737,311.25981a1.13842,1.13842,0,0,0-.10585-.3671h0a1.21983,1.21983,0,0,0-.08142-.15017h0a.9852.9852,0,0,0-.18726-.21693h0a.755.755,0,0,0-.19542-.12514h0a.33472.33472,0,0,0-.32567,0c-.37454.16687-.98519.83431-.30125,2.38611a6.92947,6.92947,0,0,0,.4641.83431,6.92947,6.92947,0,0,0,.4641-.83431,3.04614,3.04614,0,0,0,.3094-1.25981,2.10708,2.10708,0,0,0,0-.23361Z" transform="translate(-4.75294 -1.65668)"/><path d="M137.82985,310.33374c-.33382,0-1.55512.8343,0,3.26215C139.385,311.18472,138.16368,310.33374,137.82985,310.33374Z" transform="translate(-4.75294 -1.65668)"/><path d="M118.28908,320.34544c-.33382,0-1.55512.83431,0,3.26216C119.8442,321.19643,118.62291,320.34544,118.28908,320.34544Z" transform="translate(-4.75294 -1.65668)"/><path d="M157.37062,320.34544c-.33382,0-1.55512.83431,0,3.26216C158.92574,321.19643,157.70444,320.34544,157.37062,320.34544Z" transform="translate(-4.75294 -1.65668)"/><path d="M118.28908,300.322c-.33382,0-1.55512.83431,0,3.26215C119.8442,301.173,118.62291,300.322,118.28908,300.322Z" transform="translate(-4.75294 -1.65668)"/><path d="M157.37062,300.322c-.33382,0-1.55512.83431,0,3.26215C158.92574,301.173,157.70444,300.322,157.37062,300.322Z" transform="translate(-4.75294 -1.65668)"/><path d="M99.62765,334.11987c2.81713.15852,2.91483-1.35158,2.752-1.66862S100.84081,331.52518,99.62765,334.11987Z" transform="translate(-4.75294 -1.65668)"/><path d="M138.70919,334.11987c2.809.15852,2.91483-1.35158,2.752-1.66862S139.92235,331.52518,138.70919,334.11987Z" transform="translate(-4.75294 -1.65668)"/><path d="M140.80982,352.19936h-.171a1.32885,1.32885,0,0,0-.59436.1919l-.21169.15017a3.833,3.833,0,0,0-.89562,1.09294h0a4.6869,4.6869,0,0,0-.26055.50059,3.33667,3.33667,0,0,0,2.32861-.50059h0a1.0469,1.0469,0,0,0,.42339-1.143A.80615.80615,0,0,0,140.80982,352.19936Z" transform="translate(-4.75294 -1.65668)"/><path d="M101.72828,352.19936h-.171a1.32885,1.32885,0,0,0-.59437.1919l-.21168.15017a3.83286,3.83286,0,0,0-.89563,1.09294h0a4.6869,4.6869,0,0,0-.26055.50059,3.33667,3.33667,0,0,0,2.32861-.50059h0a1.0469,1.0469,0,0,0,.42339-1.143A.80615.80615,0,0,0,101.72828,352.19936Z" transform="translate(-4.75294 -1.65668)"/><path d="M119.16842,344.13158c2.81713.15852,2.91483-1.35158,2.752-1.66862S120.38158,341.53689,119.16842,344.13158Z" transform="translate(-4.75294 -1.65668)"/><path d="M158.25,344.13158c2.809.15852,2.91483-1.35158,2.752-1.66862S159.46312,341.53689,158.25,344.13158Z" transform="translate(-4.75294 -1.65668)"/><path d="M99.62765,314.09645c2.81713.15852,2.91483-1.35157,2.752-1.66862S100.84081,311.50176,99.62765,314.09645Z" transform="translate(-4.75294 -1.65668)"/><path d="M138.70919,314.09645c2.809.15852,2.91483-1.35157,2.752-1.66862S139.92235,311.50176,138.70919,314.09645Z" transform="translate(-4.75294 -1.65668)"/><path d="M119.16842,324.10816c2.81713.15852,2.91483-1.35158,2.752-1.66862S120.38158,321.51347,119.16842,324.10816Z" transform="translate(-4.75294 -1.65668)"/><path d="M158.25,324.10816c2.809.15852,2.91483-1.35158,2.752-1.66862S159.46312,321.51347,158.25,324.10816Z" transform="translate(-4.75294 -1.65668)"/><path d="M119.16842,304.08474c2.81713.15852,2.91483-1.35157,2.752-1.66861S120.38158,301.49005,119.16842,304.08474Z" transform="translate(-4.75294 -1.65668)"/><path d="M158.25,304.08474c2.809.15852,2.91483-1.35157,2.752-1.66861S159.46312,301.49005,158.25,304.08474Z" transform="translate(-4.75294 -1.65668)"/><path d="M134.23109,332.47631c-.16283.292-.057,1.80211,2.752,1.66861C135.73737,331.52518,134.40208,332.17594,134.23109,332.47631Z" transform="translate(-4.75294 -1.65668)"/><path d="M135.82693,352.59148l-.21169-.15016a1.29684,1.29684,0,0,0-.59436-.19191h-.171a.80671.80671,0,0,0-.61878.30034,1.04688,1.04688,0,0,0,.42338,1.143h0a3.35251,3.35251,0,0,0,2.32861.50059,4.68507,4.68507,0,0,0-.26055-.50059A3.70146,3.70146,0,0,0,135.82693,352.59148Z" transform="translate(-4.75294 -1.65668)"/><path d="M114.69032,342.488c-.16283.292-.057,1.80211,2.752,1.66862C116.1966,341.53689,114.86131,342.18765,114.69032,342.488Z" transform="translate(-4.75294 -1.65668)"/><path d="M173.31263,332.47631c-.171.292-.057,1.80211,2.752,1.66861C174.8189,331.52518,173.48361,332.17594,173.31263,332.47631Z" transform="translate(-4.75294 -1.65668)"/><path d="M175.80408,353.64272a3.833,3.833,0,0,0-.89563-1.09294l-.21169-.15017a1.32889,1.32889,0,0,0-.59438-.1919h-.171a.80666.80666,0,0,0-.6188.30034,1.04689,1.04689,0,0,0,.42337,1.143h0a3.33664,3.33664,0,0,0,2.3286.50059,4.6924,4.6924,0,0,0-.26055-.50059Z" transform="translate(-4.75294 -1.65668)"/><path d="M153.77186,342.488c-.171.292-.057,1.80211,2.752,1.66862C155.27814,341.53689,153.94285,342.18765,153.77186,342.488Z" transform="translate(-4.75294 -1.65668)"/><path d="M134.23109,312.45289c-.16283.292-.057,1.80211,2.752,1.66862C135.73737,311.50176,134.40208,312.15252,134.23109,312.45289Z" transform="translate(-4.75294 -1.65668)"/><path d="M114.69032,322.4646c-.16283.292-.057,1.80211,2.752,1.66861C116.1966,321.51347,114.86131,322.16423,114.69032,322.4646Z" transform="translate(-4.75294 -1.65668)"/><path d="M173.31263,312.45289c-.171.292-.057,1.80211,2.752,1.66862C174.8189,311.50176,173.48361,312.15252,173.31263,312.45289Z" transform="translate(-4.75294 -1.65668)"/><path d="M153.77186,322.4646c-.171.292-.057,1.80211,2.752,1.66861C155.27814,321.51347,153.94285,322.16423,153.77186,322.4646Z" transform="translate(-4.75294 -1.65668)"/><path d="M114.69032,302.44118c-.16283.292-.057,1.80211,2.752,1.66862C116.1966,301.49005,114.86131,302.14081,114.69032,302.44118Z" transform="translate(-4.75294 -1.65668)"/><path d="M153.77186,302.44118c-.171.292-.057,1.80211,2.752,1.66862C155.27814,301.49005,153.94285,302.14081,153.77186,302.44118Z" transform="translate(-4.75294 -1.65668)"/><path d="M136.72254,293.57247a4.75968,4.75968,0,0,0-.43966-.64241,2.88169,2.88169,0,0,0-.456-.45053,1.45983,1.45983,0,0,0-.977-.35042.80667.80667,0,0,0-.61878.30033.85261.85261,0,0,0,.057.69247,1.30286,1.30286,0,0,0,.20355.30034l.16283.15017h0a3.35251,3.35251,0,0,0,2.32861.50059c-.07327-.16687-.1547-.317-.228-.45054Z" transform="translate(-4.75294 -1.65668)"/><path d="M175.80408,293.57247a4.75982,4.75982,0,0,0-.43968-.64241,3.29229,3.29229,0,0,0-.456-.45053,1.45957,1.45957,0,0,0-.977-.35042.80668.80668,0,0,0-.6188.30033.85268.85268,0,0,0,.057.69247,1.30286,1.30286,0,0,0,.20355.30034,1.47761,1.47761,0,0,0,.16285.15017h0a3.33661,3.33661,0,0,0,2.32859.50059c-.07327-.16687-.1547-.317-.228-.45054A.17507.17507,0,0,1,175.80408,293.57247Z" transform="translate(-4.75294 -1.65668)"/><path d="M118.28908,360.39228c-.33382,0-1.55512.83431,0,3.26215C119.8442,361.24327,118.62291,360.39228,118.28908,360.39228Z" transform="translate(-4.75294 -1.65668)"/><path d="M157.37062,360.39228c-.33382,0-1.55512.83431,0,3.26215C158.92574,361.24327,157.70444,360.39228,157.37062,360.39228Z" transform="translate(-4.75294 -1.65668)"/><path d="M119.16842,364.155c2.81713.15852,2.91483-1.35158,2.752-1.66862S120.38158,361.56031,119.16842,364.155Z" transform="translate(-4.75294 -1.65668)"/><path d="M158.25,364.155c2.809.15852,2.91483-1.35158,2.752-1.66862S159.46312,361.56031,158.25,364.155Z" transform="translate(-4.75294 -1.65668)"/><path d="M114.69032,362.51143c-.16283.292-.057,1.80211,2.752,1.66862C116.1966,361.56031,114.86131,362.21107,114.69032,362.51143Z" transform="translate(-4.75294 -1.65668)"/><path d="M153.77186,362.51143c-.171.292-.057,1.80211,2.752,1.66862C155.27814,361.56031,153.94285,362.21107,153.77186,362.51143Z" transform="translate(-4.75294 -1.65668)"/><path d="M59.66677,230.24006c-.33382,0-1.55512.83431,0,3.26216C61.2219,231.09105,60.0006,230.24006,59.66677,230.24006Z" transform="translate(-4.75294 -1.65668)"/><path d="M79.20754,220.22836c-.33382,0-1.55512.8343,0,3.26215C80.76267,221.07934,79.54137,220.22836,79.20754,220.22836Z" transform="translate(-4.75294 -1.65668)"/><path d="M79.924,200.97249l-1.49.39212a3.93693,3.93693,0,0,0,.77348,2.10245A3.1303,3.1303,0,0,0,79.924,200.97249Z" transform="translate(-4.75294 -1.65668)"/><path d="M60.54611,213.97936c2.809.15852,2.91483-1.35157,2.752-1.66861S61.75926,211.38467,60.54611,213.97936Z" transform="translate(-4.75294 -1.65668)"/><path d="M80.08688,223.99107c2.809.15852,2.91483-1.35157,2.752-1.66862S81.3,221.39638,80.08688,223.99107Z" transform="translate(-4.75294 -1.65668)"/><path d="M80.08688,203.96765c2.809.15853,2.91483-1.35157,2.752-1.66861S81.3,201.373,80.08688,203.96765Z" transform="translate(-4.75294 -1.65668)"/><path d="M56.068,232.35922a1.04688,1.04688,0,0,0,.42338,1.143h0a3.35254,3.35254,0,0,0,2.32861.50059,4.68594,4.68594,0,0,0-.26055-.50059C57.39516,231.49985,56.23085,232.07553,56.068,232.35922Z" transform="translate(-4.75294 -1.65668)"/><path d="M95.14956,212.3358c-.171.292-.057,1.80211,2.752,1.66862C96.65583,211.38467,95.32054,212.03543,95.14956,212.3358Z" transform="translate(-4.75294 -1.65668)"/><path d="M97.641,233.50222c-1.1643-2.00234-2.32861-1.42667-2.49144-1.143a1.04688,1.04688,0,0,0,.42338,1.143h0a3.33672,3.33672,0,0,0,2.32861.50059A4.68412,4.68412,0,0,0,97.641,233.50222Z" transform="translate(-4.75294 -1.65668)"/><path d="M75.60879,222.34751c-.171.292-.057,1.80211,2.752,1.66862C77.11506,221.39638,75.77977,222.04714,75.60879,222.34751Z" transform="translate(-4.75294 -1.65668)"/><path d="M76.20315,202.03208l-.42339.13349a.54229.54229,0,0,0-.171.15852c-.171.292-.057,1.80211,2.752,1.66862C77.571,202.31574,76.74866,201.982,76.20315,202.03208Z" transform="translate(-4.75294 -1.65668)"/><path d="M20.58524,270.2869c-.33383,0-1.55513.83431,0,3.26215C22.14036,271.13789,20.91906,270.2869,20.58524,270.2869Z" transform="translate(-4.75294 -1.65668)"/><path d="M40.126,280.29861c-.33382,0-1.55512.83431,0,3.26215C41.68113,281.14959,40.45983,280.29861,40.126,280.29861Z" transform="translate(-4.75294 -1.65668)"/><path d="M59.66677,250.26348c-.33382,0-1.55512.83431,0,3.26215C61.2219,251.11447,60.0006,250.26348,59.66677,250.26348Z" transform="translate(-4.75294 -1.65668)"/><path d="M40.126,260.27519c-.33382,0-1.55512.83431,0,3.26215C41.68113,261.12618,40.45983,260.27519,40.126,260.27519Z" transform="translate(-4.75294 -1.65668)"/><path d="M79.20754,260.27519c-.33382,0-1.55512.83431,0,3.26215C80.76267,261.12618,79.54137,260.27519,79.20754,260.27519Z" transform="translate(-4.75294 -1.65668)"/><path d="M40.126,240.25177c-.33382,0-1.55512.83431,0,3.26216C41.68113,241.10276,40.45983,240.25177,40.126,240.25177Z" transform="translate(-4.75294 -1.65668)"/><path d="M79.20754,240.25177c-.33382,0-1.55512.83431,0,3.26216C80.76267,241.10276,79.54137,240.25177,79.20754,240.25177Z" transform="translate(-4.75294 -1.65668)"/><path d="M21.46457,274.04962c2.81713.15852,2.923-1.35158,2.752-1.66862S22.67773,271.45493,21.46457,274.04962Z" transform="translate(-4.75294 -1.65668)"/><path d="M41.45315,283.21034a23.02486,23.02486,0,0,0,2.13321-.93442C43.24439,282.04231,42.365,281.88379,41.45315,283.21034Z" transform="translate(-4.75294 -1.65668)"/><path d="M24.184,252.38263a.68237.68237,0,0,0-.38267-.25028c-.50481.65911-.98518,1.28485-1.40042,1.8772C24.26542,253.8093,24.33055,252.64127,24.184,252.38263Z" transform="translate(-4.75294 -1.65668)"/><path d="M60.54611,254.0262c2.809.15852,2.91483-1.35158,2.752-1.66862S61.75926,251.43151,60.54611,254.0262Z" transform="translate(-4.75294 -1.65668)"/><path d="M41.00534,264.03791c2.81713.15852,2.91483-1.35158,2.752-1.66862S42.2185,261.44322,41.00534,264.03791Z" transform="translate(-4.75294 -1.65668)"/><path d="M80.08688,264.03791c2.809.15852,2.91483-1.35158,2.752-1.66862S81.3,261.44322,80.08688,264.03791Z" transform="translate(-4.75294 -1.65668)"/><path d="M41.00534,244.01449c2.81713.15852,2.91483-1.35158,2.752-1.66862S42.2185,241.4198,41.00534,244.01449Z" transform="translate(-4.75294 -1.65668)"/><path d="M80.08688,244.01449c2.809.15852,2.91483-1.35158,2.752-1.66862S81.3,241.4198,80.08688,244.01449Z" transform="translate(-4.75294 -1.65668)"/><path d="M36.52725,282.41776c-.1547.267-.07328,1.53513,2.06806,1.66862l.61065-.14184C37.98466,281.5,36.69823,282.12575,36.52725,282.41776Z" transform="translate(-4.75294 -1.65668)"/><path d="M95.14956,272.40605c-.171.292-.057,1.80211,2.752,1.66862C96.65583,271.45493,95.32054,272.10569,95.14956,272.40605Z" transform="translate(-4.75294 -1.65668)"/><path d="M56.068,252.38263c-.16284.292-.057,1.80212,2.752,1.66862C57.57428,251.43151,56.239,252.08227,56.068,252.38263Z" transform="translate(-4.75294 -1.65668)"/><path d="M36.52725,262.39434c-.16284.292-.057,1.80211,2.752,1.66862C38.03351,261.44322,36.69823,262.094,36.52725,262.39434Z" transform="translate(-4.75294 -1.65668)"/><path d="M95.14956,252.38263c-.171.292-.057,1.80212,2.752,1.66862C96.65583,251.43151,95.32054,252.08227,95.14956,252.38263Z" transform="translate(-4.75294 -1.65668)"/><path d="M36.52725,242.37093c-.16284.292-.057,1.80211,2.752,1.66861C38.03351,241.4198,36.69823,242.07056,36.52725,242.37093Z" transform="translate(-4.75294 -1.65668)"/><path d="M75.60879,242.37093c-.171.292-.057,1.80211,2.752,1.66861C77.11506,241.4198,75.77977,242.07056,75.60879,242.37093Z" transform="translate(-4.75294 -1.65668)"/><path d="M62.84215,233.50222h0a1.04688,1.04688,0,0,0,.42338-1.143c-.16284-.28367-1.32714-.83431-2.49145,1.143h0a4.6877,4.6877,0,0,0-.26054.50059A3.33672,3.33672,0,0,0,62.84215,233.50222Z" transform="translate(-4.75294 -1.65668)"/><path d="M79.20754,340.36886c-.33382,0-1.55512.83431,0,3.26215C80.76267,341.21985,79.54137,340.36886,79.20754,340.36886Z" transform="translate(-4.75294 -1.65668)"/><path d="M79.83448,322.33943l-.68392,1.17638.057.09176A5.37428,5.37428,0,0,0,79.83448,322.33943Z" transform="translate(-4.75294 -1.65668)"/><path d="M80.08688,344.13158c2.809.15852,2.91483-1.35158,2.752-1.66862S81.3,341.53689,80.08688,344.13158Z" transform="translate(-4.75294 -1.65668)"/><path d="M80.08688,324.10816c2.809.15852,2.91483-1.35158,2.752-1.66862S81.3,321.51347,80.08688,324.10816Z" transform="translate(-4.75294 -1.65668)"/><path d="M95.14956,332.47631c-.171.292-.057,1.80211,2.752,1.66861C96.65583,331.52518,95.32054,332.17594,95.14956,332.47631Z" transform="translate(-4.75294 -1.65668)"/><path d="M97.641,353.64272a3.833,3.833,0,0,0-.89562-1.09294l-.21169-.15017a1.32881,1.32881,0,0,0-.59436-.1919h-.171a.80662.80662,0,0,0-.61878.30034,1.04688,1.04688,0,0,0,.42338,1.143h0a3.33667,3.33667,0,0,0,2.32861.50059,4.68507,4.68507,0,0,0-.26055-.50059Z" transform="translate(-4.75294 -1.65668)"/><path d="M75.60879,342.488c-.171.292-.057,1.80211,2.752,1.66862C77.11506,341.53689,75.77977,342.18765,75.60879,342.488Z" transform="translate(-4.75294 -1.65668)"/><path d="M95.14956,312.45289c-.171.292-.057,1.80211,2.752,1.66862C96.65583,311.50176,95.32054,312.15252,95.14956,312.45289Z" transform="translate(-4.75294 -1.65668)"/><path d="M97.641,293.57247a4.75968,4.75968,0,0,0-.43966-.64241,3.29229,3.29229,0,0,0-.456-.45053,1.45983,1.45983,0,0,0-.977-.35042.80667.80667,0,0,0-.61878.30033.85268.85268,0,0,0,.057.69247,1.30286,1.30286,0,0,0,.20355.30034,1.48013,1.48013,0,0,0,.16283.15017h0a3.33667,3.33667,0,0,0,2.32861.50059c-.07327-.16687-.1547-.317-.228-.45054Z" transform="translate(-4.75294 -1.65668)"/><path d="M79.20754,360.39228c-.33382,0-1.55512.83431,0,3.26215C80.76267,361.24327,79.54137,360.39228,79.20754,360.39228Z" transform="translate(-4.75294 -1.65668)"/><path d="M80.08688,364.155c2.809.15852,2.91483-1.35158,2.752-1.66862S81.3,361.56031,80.08688,364.155Z" transform="translate(-4.75294 -1.65668)"/><path d="M75.60879,362.51143c-.171.292-.057,1.80211,2.752,1.66862C77.11506,361.56031,75.77977,362.21107,75.60879,362.51143Z" transform="translate(-4.75294 -1.65668)"/><path d="M18.67187,272.53952a16.0371,16.0371,0,0,0,.5618,1.51845h.5048A4.47853,4.47853,0,0,0,18.67187,272.53952Z" transform="translate(-4.75294 -1.65668)"/></g></g><path class="cls-8" d="M208.9094,364.48874s1.45742-20.48228-7.32779-40.97291-10.76371-21.96737-10.76371-27.966,5.87852-12.99853,6.85557-26.48932.48852-20.02341.48852-20.02341,20.96562,33.97306,35.59677,35.9754,23.40821-11.989,18.04265-30.9779-28.77378-34.47366-38.03122-46.97159-30.23932-12.51464-40.96233-12.51464-16.08856-3.99633-18.04265-11.48844-1.94593-22.52634-1.94593-22.52634-12.68522,7.99268-34.13936-1.00117c0,0,1.95407,27.48214-.48853,31.47848s-5.82967,8.06777-20.46083,8.06777-26.8197,3.00351-33.64269,10.0117-35.10825,34.97423-42.41975,45.97044-3.41963,22.9852,5.35743,27.48214,17.55412.49224,23.89673-5.49809,26.33119-24.98757,26.33119-24.98757,0,11.49678,5.36557,27.98274,9.77038,14.49194,5.84594,26.481-11.7,15.49312-14.13449,30.9779a150.78464,150.78464,0,0,0-1.95407,26.98155" transform="translate(-4.75294 -1.65668)"/><path class="cls-9" d="M77.25347,252.06559a64.13882,64.13882,0,0,1,3.21608-15.85187" transform="translate(-4.75294 -1.65668)"/><path class="cls-8" d="M198.14569,249.07043a62.68625,62.68625,0,0,0-4.45366-11.99737" transform="translate(-4.75294 -1.65668)"/><line class="cls-8" x1="121.76769" y1="302.79516" x2="152.47927" y2="292.70837"/><path class="cls-8" d="M140.42715,296.14213a97.65544,97.65544,0,0,1,22.309-6.23229" transform="translate(-4.75294 -1.65668)"/><path class="cls-10" d="M131.86177,232.58447c24.32826,4.80563,33.716-19.089,36.98091-38.18633-8.10128-.91774-12.36768-4.78059-14.06122-11.27986-1.94593-7.50878-1.94593-22.52635-1.94593-22.52635s-12.68522,7.99269-34.13936-1.00116c0,0,1.95407,27.48214-.48853,31.47847-1.69353,2.78659-3.87558,5.57318-9.98207,6.99986C108.00575,206.64581,109.69115,228.196,131.86177,232.58447Z" transform="translate(-4.75294 -1.65668)"/><g class="cls-11"><path class="cls-12" d="M154.25224,180.64873c-1.41671-7.89257-1.41671-20.02342-1.41671-20.02342s-12.68522,7.99269-34.13936-1.00116c0,0,.8142,11.48844.73277,20.69086C137.895,186.88936,148.57727,184.10277,154.25224,180.64873Z" transform="translate(-4.75294 -1.65668)"/></g><path class="cls-8" d="M131.86177,232.58447c24.32826,4.80563,33.716-19.089,36.98091-38.18633-8.10128-.91774-12.36768-4.78059-14.06122-11.27986-1.94593-7.50878-1.94593-22.52635-1.94593-22.52635s-12.68522,7.99269-34.13936-1.00116c0,0,1.95407,27.48214-.48853,31.47847-1.69353,2.78659-3.87558,5.57318-9.98207,6.99986C108.00575,206.64581,109.69115,228.196,131.86177,232.58447Z" transform="translate(-4.75294 -1.65668)"/><ellipse class="cls-13" cx="163.89434" cy="143.20019" rx="6.04135" ry="6.19057"/><ellipse class="cls-13" cx="99.36094" cy="143.20019" rx="6.04135" ry="6.19057"/><path class="cls-10" d="M168.09362,123.75719s3.02067-9.56952,6.595-6.19057-1.09917,16.31909-3.57434,19.41438-4.9422,3.09529-4.66536-1.12632S168.09362,123.75719,168.09362,123.75719Z" transform="translate(-4.75294 -1.65668)"/><path class="cls-10" d="M105.64458,133.38512s.8142,22.35113,16.87019,33.314,27.984,4.63876,34.57089-4.63875,10.70671-18.555,10.70671-32.04582,1.62839-19.406-2.88226-27.84089S144.7424,89.52549,144.7424,89.52549a251.05755,251.05755,0,0,1-20.99,23.61929C111.401,125.3674,105.64458,133.38512,105.64458,133.38512Z" transform="translate(-4.75294 -1.65668)"/><g class="cls-14"><path class="cls-12" d="M144.7424,89.52549a251.05755,251.05755,0,0,1-20.99,23.61929c-12.35139,12.22262-18.10778,20.24034-18.10778,20.24034a52.36357,52.36357,0,0,0,2.49959,12.79C129.83443,129.17185,141.681,98.61946,144.832,89.55052Z" transform="translate(-4.75294 -1.65668)"/></g><path class="cls-8" d="M105.64458,133.38512s.8142,22.35113,16.87019,33.314,27.984,4.63876,34.57089-4.63875,10.70671-18.555,10.70671-32.04582,1.62839-19.406-2.88226-27.84089S144.7424,89.52549,144.7424,89.52549a251.05755,251.05755,0,0,1-20.99,23.61929C111.401,125.3674,105.64458,133.38512,105.64458,133.38512Z" transform="translate(-4.75294 -1.65668)"/><line class="cls-8" x1="116.07644" y1="129.10037" x2="125.3176" y2="129.98473"/><path class="cls-8" d="M148.83782,130.45669s6.06578-1.18471,8.95619,0" transform="translate(-4.75294 -1.65668)"/><path class="cls-15" d="M128.82481,126.427c0,2.25263-.98518,4.07977-2.19833,4.07977s-2.1902-1.82714-2.1902-4.07977.977-4.07977,2.1902-4.07977S128.82481,124.17435,128.82481,126.427Z" transform="translate(-4.75294 -1.65668)"/><path class="cls-8" d="M133.767,140.677a7.87744,7.87744,0,0,0,9.61569-.83431" transform="translate(-4.75294 -1.65668)"/><path class="cls-8" d="M136.26659,150.20479s8.50837,3.66262,13.45057-8.15954" transform="translate(-4.75294 -1.65668)"/><path class="cls-16" d="M147.22571,126.56881s5.219-3.66261,10.438-1.41" transform="translate(-4.75294 -1.65668)"/><path class="cls-16" d="M145.581,117.31633A11.088,11.088,0,0,1,159.30842,116.19" transform="translate(-4.75294 -1.65668)"/><path class="cls-16" d="M133.22148,113.62034s-4.94219-5.06426-11.814-.27532" transform="translate(-4.75294 -1.65668)"/><path class="cls-2" d="M21.66812,255.06909s-8.77706,10.0117-8.77706,20.48227,5.846,20.02342,21.98337,34.97422,31.20009,25.9804,37.5427,29.48448,12.67707-1.00118,12.67707-1.00118,10.48688,10.73756,11.7,8.243-3.65576-6.249-4.63279-7.74239a20.3436,20.3436,0,0,0-2.923-3.24547s5.12131.74255,7.07539,2.50293,5.11317,4.74722,6.57873,4.49693,1.46556-1.50174-.73277-4.49693a26.35968,26.35968,0,0,0-6.33447-5.99869c-1.46556-.99283-6.3426-3.746-6.3426-3.746s7.06724-.50059,9.50983,1.00118,9.02133,5.99869,9.50984,3.99635.48852-3.24547-1.95407-5.49809-7.32779-5.00586-10.23449-5.4981a29.677,29.677,0,0,1-5.85409-1.7437s5.60983-2.00234,7.55577-2.00234,9.77038,3.99635,11.94429,3.50411.977-2.50292-.72464-3.75439-9.26558-4.24663-12.441-4.49694S75.82861,320.529,73.63841,320.529s-7.8-7.99267-13.65411-18.73858S51.94,274.30825,39.5072,268.5682" transform="translate(-4.75294 -1.65668)"/><g class="cls-17"><g class="cls-7"><path d="M20.58524,273.54905c1.55512-2.41116.33382-3.26215,0-3.26215C20.91906,270.2869,22.14036,271.13789,20.58524,273.54905Z" transform="translate(-4.75294 -1.65668)"/><path d="M20.58524,290.31032c.33382,0,1.55512.83431,0,3.26215C22.14036,291.1613,20.91906,290.31032,20.58524,290.31032Z" transform="translate(-4.75294 -1.65668)"/><path d="M40.126,280.29861c-.33382,0-1.55512.83431,0,3.26215C41.68113,281.14959,40.45983,280.29861,40.126,280.29861Z" transform="translate(-4.75294 -1.65668)"/><path d="M24.184,272.40605c-.171-.30034-1.50626-.95112-2.752,1.66862C24.24913,274.20814,24.355,272.698,24.184,272.40605Z" transform="translate(-4.75294 -1.65668)"/><path d="M23.90717,293.42227a1.3028,1.3028,0,0,0,.20355-.30033.6195.6195,0,0,0-.06868-.85845.58411.58411,0,0,0-.49312-.13438,1.45983,1.45983,0,0,0-.977.35042,3.2934,3.2934,0,0,0-.456.45053,4.75968,4.75968,0,0,0-.43966.64241h2.06806A1.47862,1.47862,0,0,0,23.90717,293.42227Z" transform="translate(-4.75294 -1.65668)"/><path d="M43.72476,282.41776c-.171-.30034-1.50626-.95112-2.752,1.66862C43.7899,284.21985,43.88761,282.70975,43.72476,282.41776Z" transform="translate(-4.75294 -1.65668)"/><path d="M39.27924,284.06133c-1.24573-2.59469-2.581-1.94393-2.752-1.66862S36.47025,284.21985,39.27924,284.06133Z" transform="translate(-4.75294 -1.65668)"/><path d="M20.58524,270.2869v3.26215C22.14036,271.13789,20.91906,270.2869,20.58524,270.2869Z" transform="translate(-4.75294 -1.65668)"/><path d="M20.58524,290.31032v3.26215C22.14036,291.1613,20.91906,290.31032,20.58524,290.31032Z" transform="translate(-4.75294 -1.65668)"/><path d="M59.66677,330.35715a.8856.8856,0,0,0-.64321.559l1.376,1.03454C60.6031,330.79934,59.911,330.35715,59.66677,330.35715Z" transform="translate(-4.75294 -1.65668)"/><path d="M79.20754,340.36886a1.00353,1.00353,0,0,0-.74906.92607,13.089,13.089,0,0,0,1.45741-.20022A.94817.94817,0,0,0,79.20754,340.36886Z" transform="translate(-4.75294 -1.65668)"/><path d="M59.66677,310.33374c-.33382,0-1.55512.8343,0,3.26215C61.2219,311.18472,60.0006,310.33374,59.66677,310.33374Z" transform="translate(-4.75294 -1.65668)"/><path d="M79.20754,323.6076c1.55513-2.41117.33383-3.26216,0-3.26216S77.64428,321.19643,79.20754,323.6076Z" transform="translate(-4.75294 -1.65668)"/><path d="M40.126,303.58418c1.55513-2.41117.33383-3.26215,0-3.26215S38.56274,301.173,40.126,303.58418Z" transform="translate(-4.75294 -1.65668)"/><path d="M63.26553,332.47631c-.13027-.22526-.9119-.65076-1.81567.24195.43967.33372.87934.65076,1.31087.95945A1.0613,1.0613,0,0,0,63.26553,332.47631Z" transform="translate(-4.75294 -1.65668)"/><path d="M60.54611,314.09645c2.809.15852,2.91483-1.35157,2.752-1.66862S61.75926,311.50176,60.54611,314.09645Z" transform="translate(-4.75294 -1.65668)"/><path d="M80.08688,324.10816c2.809.15852,2.91483-1.35158,2.752-1.66862S81.3,321.51347,80.08688,324.10816Z" transform="translate(-4.75294 -1.65668)"/><path d="M41.00534,304.08474c2.81713.15852,2.91483-1.35157,2.752-1.66861S42.2185,301.49005,41.00534,304.08474Z" transform="translate(-4.75294 -1.65668)"/><path d="M97.61658,334.12822c-.70021-.56732-1.34343-1.02621-1.83195-1.36828l-.56994-.3671-.06513.08344C94.98672,332.76,95.09256,334.16995,97.61658,334.12822Z" transform="translate(-4.75294 -1.65668)"/><path d="M58.82,314.09645c-1.24573-2.59469-2.581-1.94393-2.752-1.66862S56.011,314.255,58.82,314.09645Z" transform="translate(-4.75294 -1.65668)"/><path d="M75.60879,322.4646c-.171.292-.057,1.80211,2.752,1.66861C77.11506,321.51347,75.77977,322.16423,75.60879,322.4646Z" transform="translate(-4.75294 -1.65668)"/><path d="M36.52725,302.44118c-.16284.292-.057,1.80211,2.752,1.66862C38.03351,301.49005,36.69823,302.14081,36.52725,302.44118Z" transform="translate(-4.75294 -1.65668)"/><path d="M23.76061,293.57247H21.69255a.18013.18013,0,0,1,0,.05006c-.07328.13349-.1547.28366-.228.45053A3.33675,3.33675,0,0,0,23.76061,293.57247Z" transform="translate(-4.75294 -1.65668)"/><path d="M20.58524,270.2869c-.33383,0-1.55513.83431,0,3.26215Z" transform="translate(-4.75294 -1.65668)"/><path d="M20.58524,293.57247v-3.26215C20.25142,290.31032,19.022,291.1613,20.58524,293.57247Z" transform="translate(-4.75294 -1.65668)"/><path d="M19.73847,274.04962c-1.24572-2.59469-2.581-1.94393-2.752-1.66862S16.92949,274.20814,19.73847,274.04962Z" transform="translate(-4.75294 -1.65668)"/><path d="M19.022,292.93a3.294,3.294,0,0,0-.45595-.45053l-.057-.0417c.2524.37544.50481.75922.8142,1.13464h.17913A4.747,4.747,0,0,0,19.022,292.93Z" transform="translate(-4.75294 -1.65668)"/><path d="M19.51049,293.62253a.18013.18013,0,0,1,0-.05006h-.17912l.35825.50059H19.771C19.66519,293.90619,19.58377,293.756,19.51049,293.62253Z" transform="translate(-4.75294 -1.65668)"/></g></g><path class="cls-8" d="M21.66812,255.06909s-8.77706,10.0117-8.77706,20.48227,5.846,20.02342,21.98337,34.97422,31.20009,25.9804,37.5427,29.48448,12.67707-1.00118,12.67707-1.00118,10.48688,10.73756,11.7,8.243-3.65576-6.249-4.63279-7.74239a20.3436,20.3436,0,0,0-2.923-3.24547s5.12131.74255,7.07539,2.50293,5.11317,4.74722,6.57873,4.49693,1.46556-1.50174-.73277-4.49693a26.35968,26.35968,0,0,0-6.33447-5.99869c-1.46556-.99283-6.3426-3.746-6.3426-3.746s7.06724-.50059,9.50983,1.00118,9.02133,5.99869,9.50984,3.99635.48852-3.24547-1.95407-5.49809-7.32779-5.00586-10.23449-5.4981a29.677,29.677,0,0,1-5.85409-1.7437s5.60983-2.00234,7.55577-2.00234,9.77038,3.99635,11.94429,3.50411.977-2.50292-.72464-3.75439-9.26558-4.24663-12.441-4.49694S75.82861,320.529,73.63841,320.529s-7.8-7.99267-13.65411-18.73858S51.94,274.30825,39.5072,268.5682" transform="translate(-4.75294 -1.65668)"/><path class="cls-10" d="M109.19448,319.0189c-1.70982-1.24312-9.26558-4.24663-12.441-4.49694s-20.96562,5.99868-23.15582,5.99868-7.8-7.99267-13.65411-18.73857c-3.2568-5.96531-5.37371-13.78278-8.75264-20.53236-17.91237-2.50293-25.59026,8.22627-29.14017,15.94363a132.56657,132.56657,0,0,0,12.78292,13.349c16.08857,15.01756,31.20009,25.98039,37.54271,29.48448s12.67708-1.00118,12.67708-1.00118,10.48688,10.73755,11.7,8.243-3.65576-6.249-4.63279-7.74238a20.34367,20.34367,0,0,0-2.923-3.24548s5.12131.74255,7.07539,2.50293,5.11317,4.74722,6.57873,4.49694,1.46556-1.50175-.73277-4.49694a26.35987,26.35987,0,0,0-6.33447-5.99869c-1.46556-.99283-6.3426-3.746-6.3426-3.746s7.06724-.5006,9.50983,1.00118,9.02133,5.99868,9.50984,3.99634.48852-3.24547-1.95407-5.49809-7.32779-5.00585-10.23449-5.49809a29.67775,29.67775,0,0,1-5.85409-1.74371s5.60983-2.00233,7.55577-2.00233,9.77038,3.99634,11.94429,3.5041S110.89616,320.27036,109.19448,319.0189Z" transform="translate(-4.75294 -1.65668)"/><path class="cls-2" d="M215.04847,264.44674c-2.0355-4.7639-.2931-15.19276,1.74239-30.08519s4.071-30.08518,4.071-38.12792,1.29457-19.18911-1.262-22.785-11.86288-13.34894-12.555-17.8709,5.57727-11.43838,5.57727-11.43838,1.86452-3.57918,3.49292-1.66862.9282,4.28835,0,7.62559-1.86452,5.957-1.86452,5.957,8.142,2.61973,10.23448,1.19306,1.90522-9.58622,1.75867-13.58255c-.30125-7.79244-3.34634-4.46356-5.45514-.7759-1.01775,1.76873-6.97769.7175-3.49292-3.8128s6.72529-8.52664,9.98209-4.94745,5.57726,10.48726,5.57726,10.48726,2.3286-11.355,4.44552-18.02942,5.91109-9.31923,7.27894-8.852,1.21315,2.79494-.1547,6.05708-4.39667,12.26434-5.15387,15.2178-.90375,6.36579.61065,6.05708,6.81484-9.78644,8.33739-13.82449,3.786-7.75908,6.35889-9.46942,4.69792.46722,3.63947,3.26216a143.51234,143.51234,0,0,1-7.14869,14.75057,64.52294,64.52294,0,0,0-4.242,9.62793,108.07021,108.07021,0,0,1,7.88144-7.76742c3.63947-3.10363,7.58019-3.721,8.78521-2.63642s.1547,1.24313-2.87412,3.72936-7.55576,5.448-11.179,11.48845a57.68607,57.68607,0,0,0-6.51359,14.28337,48.971,48.971,0,0,1-4.39667,9.47775s2.84155,23.64432,7.76747,36.65119,13.63783,32.02912,10.98353,45.62-7.76746,20.57406-14.965,22.70989a13.64662,13.64662,0,0,1-12.31068-2.32773" transform="translate(-4.75294 -1.65668)"/><g class="cls-18"><g class="cls-7"><path d="M255.07448,130.123a.91065.91065,0,0,1,.65135.57567h0A.88611.88611,0,0,0,255.07448,130.123Z" transform="translate(-4.75294 -1.65668)"/><path d="M255.07448,130.123v1.95228l.65135-1.37661A.91065.91065,0,0,0,255.07448,130.123Z" transform="translate(-4.75294 -1.65668)"/><path d="M255.07448,253.52563c1.55512-2.41116.33382-3.26215,0-3.26215C255.40828,250.26348,256.62958,251.11447,255.07448,253.52563Z" transform="translate(-4.75294 -1.65668)"/><path d="M257.7369,253.8093q0-.8343-.07328-1.66862c-.5048.13349-1.13987.62573-1.74239,1.89387A4.32927,4.32927,0,0,0,257.7369,253.8093Z" transform="translate(-4.75294 -1.65668)"/><path d="M255.07448,250.26348v3.26215C256.62958,251.11447,255.40828,250.26348,255.07448,250.26348Z" transform="translate(-4.75294 -1.65668)"/><path d="M215.99294,150.14639c-.285,0-1.1806.609-.54552,2.21927.20355-.67579.42337-1.41832.64322-2.20258Z" transform="translate(-4.75294 -1.65668)"/><path d="M235.53371,163.42024c1.55512-2.41115.33382-3.26215,0-3.26215S233.97044,161.00909,235.53371,163.42024Z" transform="translate(-4.75294 -1.65668)"/><path d="M254.7325,132.78441l.342-.70917V130.123C254.76508,130.123,253.731,130.84048,254.7325,132.78441Z" transform="translate(-4.75294 -1.65668)"/><path d="M235.53371,140.13469c-.33383,0-1.55512.8343,0,3.26215C237.08881,140.98567,235.86751,140.13469,235.53371,140.13469Z" transform="translate(-4.75294 -1.65668)"/><path d="M219.53468,172.98143a.85259.85259,0,0,0,.057-.69248.8066.8066,0,0,0-.61879-.30035,1.2975,1.2975,0,0,0-.4478.06675c.33382.41715.63507.79259.87932,1.12632A.92811.92811,0,0,0,219.53468,172.98143Z" transform="translate(-4.75294 -1.65668)"/><path d="M239.13245,162.27724c-.171-.30035-1.50627-.95111-2.752,1.66862C239.18945,164.07935,239.2953,162.56926,239.13245,162.27724Z" transform="translate(-4.75294 -1.65668)"/><path d="M238.7335,143.38015a9.91919,9.91919,0,0,1,0-1.37661c-.5211-.16686-1.47369,0-2.37747,1.89389A3.29729,3.29729,0,0,0,238.7335,143.38015Z" transform="translate(-4.75294 -1.65668)"/><path d="M239.15688,122.32218c-.21983.37544-.42338.78425-.63508,1.20975A1.14937,1.14937,0,0,0,239.15688,122.32218Z" transform="translate(-4.75294 -1.65668)"/><path d="M212.39417,152.26553c-.16285.28367-.057,1.73537,2.57287,1.66862l.07328-.21691C213.82717,151.36448,212.56515,151.97352,212.39417,152.26553Z" transform="translate(-4.75294 -1.65668)"/><path d="M231.93494,162.27724c-.171.292-.057,1.80211,2.752,1.66862C233.44121,161.32613,232.10591,161.97689,231.93494,162.27724Z" transform="translate(-4.75294 -1.65668)"/><path d="M251.47571,132.24212c-.16285.292-.057,1.79376,2.71942,1.66861h0C252.97383,131.29934,251.64668,131.94176,251.47571,132.24212Z" transform="translate(-4.75294 -1.65668)"/><path d="M234.68694,143.89741a3.91245,3.91245,0,0,0-1.319-1.66861c-.13028.62573-.24425,1.15135-.32568,1.55181A4.63563,4.63563,0,0,0,234.68694,143.89741Z" transform="translate(-4.75294 -1.65668)"/><path d="M232.43159,143.45523c-.13028-.35041-.2931-.75922-.48038-1.2181h0A1.07085,1.07085,0,0,0,232.43159,143.45523Z" transform="translate(-4.75294 -1.65668)"/><path d="M235.53371,223.49051c1.55512-2.41117.33382-3.26215,0-3.26215S233.97044,221.07934,235.53371,223.49051Z" transform="translate(-4.75294 -1.65668)"/><path d="M235.53371,200.20494c-.33383,0-1.55512.83431,0,3.26215C237.08881,201.05592,235.86751,200.20494,235.53371,200.20494Z" transform="translate(-4.75294 -1.65668)"/><path d="M235.53371,180.18152c-.33383,0-1.55512.83431,0,3.26215C237.08881,181.03251,235.86751,180.18152,235.53371,180.18152Z" transform="translate(-4.75294 -1.65668)"/><path d="M219.62426,212.42756a3.98237,3.98237,0,0,1-.06513.534A.93823.93823,0,0,0,219.62426,212.42756Z" transform="translate(-4.75294 -1.65668)"/><path d="M219.59168,232.35922c-.16285-.28367-1.32714-.83431-2.49144,1.143h2.06807A1.04689,1.04689,0,0,0,219.59168,232.35922Z" transform="translate(-4.75294 -1.65668)"/><path d="M236.413,223.99107c2.809.15852,2.91482-1.35157,2.752-1.66862S237.62618,221.39638,236.413,223.99107Z" transform="translate(-4.75294 -1.65668)"/><path d="M239.13245,202.32409c-.171-.30034-1.50627-.95112-2.752,1.66862C239.18945,204.12618,239.2953,202.61608,239.13245,202.32409Z" transform="translate(-4.75294 -1.65668)"/><path d="M236.413,183.94425c2.06807.1168,2.67057-.66745,2.77642-1.20975l-.07327-.49224C238.80678,181.93356,237.55291,181.49972,236.413,183.94425Z" transform="translate(-4.75294 -1.65668)"/><path d="M253.03083,232.37589c-.8142-.57567-1.44112-.22525-1.55512,0a1.04688,1.04688,0,0,0,.42337,1.143h1.5144Z" transform="translate(-4.75294 -1.65668)"/><path d="M231.93494,222.34751c-.171.292-.057,1.80211,2.752,1.66862C233.44121,221.39638,232.10591,222.04714,231.93494,222.34751Z" transform="translate(-4.75294 -1.65668)"/><path d="M231.93494,202.32409c-.171.292-.057,1.80211,2.752,1.66862C233.44121,201.373,232.10591,202.02373,231.93494,202.32409Z" transform="translate(-4.75294 -1.65668)"/><path d="M231.93494,182.30066c-.171.292-.057,1.80211,2.752,1.66862C233.44121,181.34955,232.10591,182.00031,231.93494,182.30066Z" transform="translate(-4.75294 -1.65668)"/><path d="M235.53371,280.29861c-.31755,0-1.42485.76757-.228,2.8867l.4071.08344C236.983,281.08286,235.85123,280.29861,235.53371,280.29861Z" transform="translate(-4.75294 -1.65668)"/><path d="M215.99294,253.52563c1.55512-2.41116.33382-3.26215,0-3.26215S214.42967,251.11447,215.99294,253.52563Z" transform="translate(-4.75294 -1.65668)"/><path d="M255.07448,250.26348c-.33383,0-1.55512.83431,0,3.26215Z" transform="translate(-4.75294 -1.65668)"/><path d="M235.53371,263.53734c1.55512-2.41116.33382-3.26215,0-3.26215S233.97044,261.12618,235.53371,263.53734Z" transform="translate(-4.75294 -1.65668)"/><path d="M235.53371,240.25177c-.33383,0-1.55512.83431,0,3.26216C237.08881,241.10276,235.86751,240.25177,235.53371,240.25177Z" transform="translate(-4.75294 -1.65668)"/><path d="M239.13245,282.41776c-.1547-.27531-1.27014-.83431-2.44259,1.00951a13.18783,13.18783,0,0,0,2.01922.10846A1.0382,1.0382,0,0,0,239.13245,282.41776Z" transform="translate(-4.75294 -1.65668)"/><path d="M216.87226,254.0262c2.809.15852,2.91482-1.35158,2.752-1.66862S218.08541,251.43151,216.87226,254.0262Z" transform="translate(-4.75294 -1.65668)"/><path d="M236.413,264.03791c2.809.15852,2.91482-1.35158,2.752-1.66862S237.62618,261.44322,236.413,264.03791Z" transform="translate(-4.75294 -1.65668)"/><path d="M239.13245,242.37093c-.171-.30034-1.50627-.95113-2.752,1.66861C239.18945,244.173,239.2953,242.66291,239.13245,242.37093Z" transform="translate(-4.75294 -1.65668)"/><path d="M251.47571,272.40605c-.13028.22526-.08955,1.168,1.21315,1.51845.21982-.40048.43967-.83431.64322-1.22643C252.412,271.74694,251.606,272.17242,251.47571,272.40605Z" transform="translate(-4.75294 -1.65668)"/><path d="M232.399,282.14242a14.93227,14.93227,0,0,0,1.42485.60071A1.52961,1.52961,0,0,0,232.399,282.14242Z" transform="translate(-4.75294 -1.65668)"/><path d="M215.14617,254.0262a5.02353,5.02353,0,0,0-.72465-1.168c0,.39213-.06513.7759-.08955,1.1597A6.50217,6.50217,0,0,0,215.14617,254.0262Z" transform="translate(-4.75294 -1.65668)"/><path d="M254.2277,254.0262c-1.24572-2.59469-2.581-1.94393-2.752-1.66862S251.41871,254.18472,254.2277,254.0262Z" transform="translate(-4.75294 -1.65668)"/><path d="M231.93494,262.39434c-.171.292-.057,1.80211,2.752,1.66862C233.44121,261.44322,232.10591,262.094,231.93494,262.39434Z" transform="translate(-4.75294 -1.65668)"/><path d="M231.93494,242.37093c-.171.292-.057,1.80211,2.752,1.66861C233.44121,241.4198,232.10591,242.07056,231.93494,242.37093Z" transform="translate(-4.75294 -1.65668)"/><path d="M217.10024,233.50222c-.08955.15017-.171.317-.26055.49224h0a3.33669,3.33669,0,0,0,2.3286-.50059h-2.06808Z" transform="translate(-4.75294 -1.65668)"/><path d="M253.41351,233.50222h-1.5307a2.84,2.84,0,0,0,1.6854.50059Z" transform="translate(-4.75294 -1.65668)"/></g></g><path class="cls-8" d="M215.04847,264.44674c-2.0355-4.7639-.2931-15.19276,1.74239-30.08519s4.071-30.08518,4.071-38.12792,1.29457-19.18911-1.262-22.785-11.86288-13.34894-12.555-17.8709,5.57727-11.43838,5.57727-11.43838,1.86452-3.57918,3.49292-1.66862.9282,4.28835,0,7.62559-1.86452,5.957-1.86452,5.957,8.142,2.61973,10.23448,1.19306,1.90522-9.58622,1.75867-13.58255c-.30125-7.79244-3.34634-4.46356-5.45514-.7759-1.01775,1.76873-6.97769.7175-3.49292-3.8128s6.72529-8.52664,9.98209-4.94745,5.57726,10.48726,5.57726,10.48726,2.3286-11.355,4.44552-18.02942,5.91109-9.31923,7.27894-8.852,1.21315,2.79494-.1547,6.05708-4.39667,12.26434-5.15387,15.2178-.90375,6.36579.61065,6.05708,6.81484-9.78644,8.33739-13.82449,3.786-7.75908,6.35889-9.46942,4.69792.46722,3.63947,3.26216a143.51234,143.51234,0,0,1-7.14869,14.75057,64.52294,64.52294,0,0,0-4.242,9.62793,108.07021,108.07021,0,0,1,7.88144-7.76742c3.63947-3.10363,7.58019-3.721,8.78521-2.63642s.1547,1.24313-2.87412,3.72936-7.55576,5.448-11.179,11.48845a57.68607,57.68607,0,0,0-6.51359,14.28337,48.971,48.971,0,0,1-4.39667,9.47775s2.84155,23.64432,7.76747,36.65119,13.63783,32.02912,10.98353,45.62-7.76746,20.57406-14.965,22.70989a13.64662,13.64662,0,0,1-12.31068-2.32773" transform="translate(-4.75294 -1.65668)"/><path class="cls-10" d="M249.44021,154.22616c3.63947-6.05707,8.19084-9.01054,11.21966-11.48843s4.071-2.64476,2.87412-3.72937-5.14574-.46721-8.78521,2.63642a108.07021,108.07021,0,0,0-7.88144,7.76742,64.53491,64.53491,0,0,1,4.20127-9.62794,143.52215,143.52215,0,0,0,7.12424-14.75057c1.05845-2.79494-1.05845-5.00586-3.63947-3.26216s-4.84449,5.43135-6.35889,9.46942-6.823,13.5158-8.33739,13.8245-1.36785-3.112-.61065-6.05707,3.79417-11.95565,5.15387-15.21781,1.5144-5.58986.1547-6.05708-5.15387,2.16921-7.27894,8.852-4.44552,18.02942-4.44552,18.02942-2.32047-6.91641-5.57726-10.48725-6.51359.41715-9.98209,4.94744,2.4426,5.58153,3.49292,3.8128c2.10877-3.68764,5.15387-7.01654,5.45514.7759.14655,3.99634.33383,12.14754-1.75867,13.58255s-10.23448-1.193-10.23448-1.193.9282-2.61973,1.86452-5.957,1.6284-5.72336,0-7.62558-3.49292,1.66861-3.49292,1.66861-6.27746,6.90808-5.57727,11.43839,9.99836,14.29172,12.555,17.8709,1.262,14.74224,1.262,22.785-2.0355,23.23552-4.071,38.12794a4.45007,4.45007,0,0,1-.08142.57567c3.21609,3.46238,9.77038,8.42653,20.85164,8.04276,7.42549-.25864,12.68521-4.08811,16.24328-8.30139-2.36118-7.20009-5.32487-14.18325-7.52319-20.02342-4.9259-13.00687-7.76747-36.65119-7.76747-36.65119a48.971,48.971,0,0,0,4.39667-9.47775A57.68076,57.68076,0,0,1,249.44021,154.22616Z" transform="translate(-4.75294 -1.65668)"/><path class="cls-8" d="M227.14745,177.05286s-1.35973-5.89857.61065-9.62792a10.3367,10.3367,0,0,1,4.84449-4.814" transform="translate(-4.75294 -1.65668)"/></g><path d="M289.19434,140.15485l4.56738-20.17578h4.87695l-3.19238,20.17578Zm8.51367-30.37451c1.90625,0,3.01465,1.50782,3.01465,3.37012,0,1.77393-1.64063,3.81348-3.41407,3.81348a3.08087,3.08087,0,0,1-3.2373-3.28125,3.73944,3.73944,0,0,1,3.5918-3.90235Z" transform="translate(-4.75294 -1.65668)"/><path d="M304.97852,131.64118l2.17187-11.44043-2.92578-18.44629h5.89746l.665,7.13916c.22168,3.23731.22168,5.188.22168,6.38526h.08887c.665-1.86231,1.374-3.81348,2.34961-6.03028l3.50293-7.49414h5.76464l-10.11035,18.49073-2.084,11.396Z" transform="translate(-4.75294 -1.65668)"/><path d="M328.12207,131.64118c.04395-1.15283.13281-2.35009.17773-3.63623H328.166c-1.7295,2.88233-3.81348,3.99121-5.542,3.99121-3.14843,0-4.70117-2.70507-4.70117-6.47412,0-6.60693,3.28223-15.91894,12.59375-15.91894a18.43274,18.43274,0,0,1,5.71973.88672l-2.43848,12.10546a53.38332,53.38332,0,0,0-.88672,9.0459Zm1.99512-17.78125a6.149,6.149,0,0,0-1.15235-.13281c-3.63671,0-5.58789,7.272-5.63183,10.46436,0,1.86279.26562,3.2373,1.64062,3.2373,1.50782,0,2.97071-2.439,3.72461-6.42969Z" transform="translate(-4.75294 -1.65668)"/><path d="M356.89551,130.71a15.20163,15.20163,0,0,1-6.208,1.19727c-5.36523,0-7.40527-3.54737-7.40527-8.15918,0-6.29639,3.50293-14.145,10.4209-14.145,3.94628,0,5.67578,2.97119,5.71972,5.94189,0,5.89746-4.74414,8.11475-10.77539,7.9375a5.10254,5.10254,0,0,0,.53223,2.52735,3.18254,3.18254,0,0,0,2.9707,1.55175,9.58384,9.58384,0,0,0,4.39063-1.064Zm-2.35059-14.72168c0-1.19726-.4873-1.90674-1.55176-1.90674-1.68457,0-3.19238,2.12842-3.81347,5.23242,2.92676.13331,5.36523-1.02,5.36523-3.28125Z" transform="translate(-4.75294 -1.65668)"/><path d="M360.17285,126.89655a6.46552,6.46552,0,0,0,3.50293.88672,2.32729,2.32729,0,0,0,2.4834-2.39453c0-1.24121-.57715-2.03955-2.084-3.23681a6.74208,6.74208,0,0,1-2.75-5.27686c0-3.99072,3.10449-7.272,8.02636-7.272a8.24071,8.24071,0,0,1,4.0791.84277L372.2334,114.481a5.95808,5.95808,0,0,0-2.57129-.66553c-1.77344,0-2.88281.93115-2.88281,2.39453,0,1.06445.62109,1.77393,1.64062,2.57178a7.2347,7.2347,0,0,1,3.23731,5.67578c0,4.78906-3.3252,7.44971-8.292,7.44971a8.794,8.794,0,0,1-4.52246-1.1084Z" transform="translate(-4.75294 -1.65668)"/><path d="M384.64648,104.32624l-1.10839,5.63184h4.08007l-.7539,3.94629h-4.08008l-1.90625,9.97705a10.73586,10.73586,0,0,0-.17773,1.81787c0,1.33008.665,1.81787,1.68554,1.81787a9.41089,9.41089,0,0,0,1.50684-.08838l-.665,4.12354a10.487,10.487,0,0,1-3.3252.355c-3.32617,0-4.96679-1.86231-4.96679-4.74463a17.86769,17.86769,0,0,1,.39941-3.28125l1.90723-9.97705h-2.52832l.71-3.94629h2.57129l.7539-3.81348Z" transform="translate(-4.75294 -1.65668)"/><path d="M396.92676,131.64118c.04394-1.15283.13281-2.35009.17773-3.63623h-.13379c-1.72949,2.88233-3.81347,3.99121-5.542,3.99121-3.14844,0-4.70117-2.70507-4.70117-6.47412,0-6.60693,3.28223-15.91894,12.59375-15.91894a18.43274,18.43274,0,0,1,5.71973.88672l-2.43848,12.10546a53.3823,53.3823,0,0,0-.88672,9.0459Zm1.99512-17.78125a6.149,6.149,0,0,0-1.15235-.13281c-3.63672,0-5.58789,7.272-5.63183,10.46436,0,1.86279.26562,3.2373,1.64062,3.2373,1.50781,0,2.9707-2.439,3.72461-6.42969Zm6.74023-12.68164-5.41016,6.208h-3.81347l3.99121-6.208Z" transform="translate(-4.75294 -1.65668)"/><path d="M405.65918,126.89655a6.46552,6.46552,0,0,0,3.50293.88672,2.32729,2.32729,0,0,0,2.4834-2.39453c0-1.24121-.57715-2.03955-2.084-3.23681a6.74211,6.74211,0,0,1-2.75-5.27686c0-3.99072,3.1045-7.272,8.02637-7.272a8.24071,8.24071,0,0,1,4.0791.84277l-1.19726,4.03516a5.95808,5.95808,0,0,0-2.57129-.66553c-1.77344,0-2.88281.93115-2.88281,2.39453,0,1.06445.62109,1.77393,1.64062,2.57178a7.23471,7.23471,0,0,1,3.2373,5.67578c0,4.78906-3.32519,7.44971-8.292,7.44971a8.794,8.794,0,0,1-4.52246-1.1084Z" transform="translate(-4.75294 -1.65668)"/><path d="M254.23828,193.356l4.4336-23.05811c.44335-2.52734.79785-4.96582,1.15332-7.13867h4.70019l-.31055,3.148h.08887a6.81982,6.81982,0,0,1,5.40918-3.50293c3.90234,0,4.65625,3.41455,4.65625,6.6958,0,7.272-3.90234,15.69727-10.24316,15.69727a5.92248,5.92248,0,0,1-2.66016-.53223H261.333l-1.59668,8.69092Zm7.89258-12.81494a2.51609,2.51609,0,0,0,1.55176.53222c3.37011,0,5.01074-7.36084,5.01074-10.59765,0-1.46338-.13281-2.9712-1.59668-2.9712-1.41895,0-2.9707,2.26172-3.458,4.92237Z" transform="translate(-4.75294 -1.65668)"/><path d="M286.07129,184.84235c.04394-1.15283.13281-2.35009.17773-3.63623h-.13379c-1.72949,2.88233-3.81347,3.99122-5.542,3.99122-3.14844,0-4.70117-2.70508-4.70117-6.47413,0-6.60693,3.28223-15.91894,12.59375-15.91894a18.43274,18.43274,0,0,1,5.71973.88672l-2.43848,12.10547a53.38209,53.38209,0,0,0-.88672,9.04589Zm1.99512-17.78125a6.14982,6.14982,0,0,0-1.15235-.13281c-3.63672,0-5.58789,7.272-5.63183,10.46436,0,1.86279.26562,3.2373,1.64062,3.2373,1.50781,0,2.9707-2.439,3.72461-6.42968Z" transform="translate(-4.75294 -1.65668)"/><path d="M294.00586,184.84235l2.793-14.72167c.48828-2.43848.79785-4.92188,1.1084-6.96143h4.74511c-.08886,1.15283-.17773,2.30566-.35449,3.63574h.17676c1.59668-2.749,3.54785-3.99072,5.36523-3.99072a4.96262,4.96262,0,0,1,.88672.08887l-1.06347,5.58691a4.98673,4.98673,0,0,0-.88672-.08838c-2.39453,0-4.65625,2.79346-5.36621,6.4292l-1.86231,10.02148Z" transform="translate(-4.75294 -1.65668)"/><path d="M319.4541,157.52741l-1.1084,5.63184h4.08008l-.7539,3.94629H317.5918l-1.90625,9.97705a10.735,10.735,0,0,0-.17774,1.81787c0,1.33008.665,1.81787,1.68555,1.81787a9.41089,9.41089,0,0,0,1.50684-.08838l-.665,4.12354a10.487,10.487,0,0,1-3.3252.355c-3.32617,0-4.9668-1.86231-4.9668-4.74463a17.86774,17.86774,0,0,1,.39942-3.28125l1.90722-9.97705h-2.52832l.71-3.94629h2.57128l.75391-3.81348Z" transform="translate(-4.75294 -1.65668)"/><path d="M320.78223,184.84235l4.168-21.6831h5.543l-4.16894,21.6831Zm7.6709-24.29931c-1.7295,0-2.4834-1.28613-2.4834-2.92676a3.32243,3.32243,0,0,1,3.10449-3.41406,2.55919,2.55919,0,0,1,2.61621,2.88183,3.24746,3.24746,0,0,1-3.19336,3.459Z" transform="translate(-4.75294 -1.65668)"/><path d="M342.06445,184.53181a11.572,11.572,0,0,1-3.90234.57666c-4.78906,0-6.78418-3.81348-6.78418-7.75977,0-7.75976,4.87793-14.45556,11.66211-14.45556a7.44738,7.44738,0,0,1,2.749.39892l-1.374,4.523a6.92657,6.92657,0,0,0-1.59668-.22168c-3.23731,0-5.85352,4.3457-5.85352,8.957,0,2.4834.97559,4.03516,2.79395,4.03516a8.90026,8.90026,0,0,0,2.66016-.48779Z" transform="translate(-4.75294 -1.65668)"/><path d="M344.67773,184.84235l4.168-21.6831h5.543l-4.16894,21.6831Zm7.6709-24.29931c-1.72949,0-2.4834-1.28613-2.4834-2.92676a3.32244,3.32244,0,0,1,3.1045-3.41406,2.5592,2.5592,0,0,1,2.61621,2.88183,3.24747,3.24747,0,0,1-3.19336,3.459Z" transform="translate(-4.75294 -1.65668)"/><path d="M352.70117,193.356l4.4336-23.05811c.44336-2.52734.79785-4.96582,1.15332-7.13867h4.70019l-.31055,3.148h.08887a6.81982,6.81982,0,0,1,5.40918-3.50293c3.90235,0,4.65625,3.41455,4.65625,6.6958,0,7.272-3.90234,15.69727-10.24316,15.69727a5.92248,5.92248,0,0,1-2.66016-.53223h-.13281l-1.59668,8.69092Zm7.89258-12.81494a2.51609,2.51609,0,0,0,1.55176.53222c3.37012,0,5.01074-7.36084,5.01074-10.59765,0-1.46338-.13281-2.9712-1.59668-2.9712-1.41894,0-2.9707,2.26172-3.458,4.92237Z" transform="translate(-4.75294 -1.65668)"/><path d="M384.53516,184.84235c.04394-1.15283.13281-2.35009.17773-3.63623h-.13379c-1.72851,2.88233-3.81347,3.99122-5.542,3.99122-3.14844,0-4.7002-2.70508-4.7002-6.47413,0-6.60693,3.28125-15.91894,12.59278-15.91894a18.43262,18.43262,0,0,1,5.71972.88672l-2.43847,12.10547a53.38209,53.38209,0,0,0-.88672,9.04589Zm1.99511-17.78125a6.141,6.141,0,0,0-1.15234-.13281c-3.63672,0-5.58789,7.272-5.63184,10.46436,0,1.86279.26661,3.2373,1.64063,3.2373,1.50781,0,2.9707-2.439,3.72461-6.42968Z" transform="translate(-4.75294 -1.65668)"/><path d="M392.5127,184.84235l2.79394-14.63281c.48731-2.52734.79785-4.96631,1.1084-7.05029h4.74414l-.22168,2.79346h.08887a7.29012,7.29012,0,0,1,5.85351-3.14844c3.10352,0,4.21192,2.17285,4.21192,4.74463a24.16987,24.16987,0,0,1-.48731,4.124l-2.4834,13.16943h-5.543l2.52734-13.48a9.64833,9.64833,0,0,0,.2666-2.30566c0-1.02-.39941-1.72949-1.33008-1.72949-1.28613,0-3.05957,1.90674-3.81347,6.03076l-2.17286,11.48437Z" transform="translate(-4.75294 -1.65668)"/><path d="M432.86035,154.15778l-4.47851,23.54541c-.44336,2.3501-.79883,4.92188-1.06446,7.13916H422.794l.2666-3.14843h-.08887a6.51127,6.51127,0,0,1-5.23242,3.50342c-3.10352,0-4.877-2.70508-4.877-6.74024,0-7.58252,4.07911-15.65283,10.77442-15.65283a3.74162,3.74162,0,0,1,1.95117.53223l1.72949-9.17872Zm-7.98144,13.39112a1.94375,1.94375,0,0,0-1.375-.53223c-3.19239,0-5.14356,6.87305-5.14356,10.42041,0,1.99561.48731,3.19287,1.81836,3.19287,1.28516,0,2.39356-1.68506,3.01465-3.99072Z" transform="translate(-4.75294 -1.65668)"/><path d="M438.666,185.19734c-5.45411,0-6.65137-4.30127-6.65137-7.49415,0-7.3164,4.03515-14.89892,10.59765-14.89892,5.45411,0,6.252,4.56738,6.252,7.62695,0,6.78418-3.63574,14.76612-10.1543,14.76612Zm.57617-4.2129c2.70508,0,4.16894-7.36084,4.16894-11.26269,0-1.41895-.35547-2.70508-1.72949-2.70508-2.39453,0-4.25684,6.6958-4.21289,10.46485,0,1.55224.08887,3.50292,1.72949,3.50292Z" transform="translate(-4.75294 -1.65668)"/><path d="M453.11719,185.19734a3.06662,3.06662,0,0,1-3.05957-3.37012c0-1.77393,1.64062-3.81348,3.459-3.81348A3.069,3.069,0,0,1,456.709,181.295a3.73349,3.73349,0,0,1-3.54785,3.90235Zm-.93067-10.06592,3.19239-20.17578h6.25195l-4.61133,20.17578Z" transform="translate(-4.75294 -1.65668)"/></svg>