<svg id="Layer_1" data-name="Layer 1" xmlns="http://www.w3.org/2000/svg" xmlns:xlink="http://www.w3.org/1999/xlink" viewBox="0 0 708.98207 852.32892"><defs><style>.cls-1{fill:url(#Degradado_sin_nombre_7);}.cls-2{fill:#fff;}</style><radialGradient id="Degradado_sin_nombre_7" cx="305.9602" cy="470.62414" r="447.93199" gradientUnits="userSpaceOnUse"><stop offset="0.43812" stop-color="#fff"/><stop offset="1" stop-color="#e6e6e6"/></radialGradient></defs><title>Perfil</title><path class="cls-1" d="M502.05665,384.05554c-5.59127,3.84381-11.29708,7.4904-17.24911,10.81018,3.13125-1.601,6.21773-3.39325,9.25049-5.33636C496.77084,387.79639,499.42862,385.94651,502.05665,384.05554Z"/><path class="cls-2" d="M123.89231,825.5747c8.097-69.62517,62.6707-125.76079,115.047-172.20759,65.52383-58.21479,150.35746-116.57533,173.93435-205.96754.07526-.11007.07526-.11007.08353-.1688l-2.328-3.14724c-16.1978,11.93506-31.94095,24.05328-48.268,35.18913a.828.828,0,0,0-.26061.144c-4.33887,3.12419-8.78825,6.17267-13.21283,9.04408-5.01235,3.21075-10.10954,6.16961-15.28373,8.817a1.50067,1.50067,0,0,1-.44594.17838c-.18665.10485-.382.19621-.56993.30063-22.24255,11.493-46.10136,18.61065-70.57969,24.62582-49.76719,12.20741-99.71276,24.80985-132.59214,67.3611C76.41834,658.26069,133.03906,895.18985,123.89231,825.5747Z"/><path class="cls-2" d="M42.82632,414.15c-.23145.00087-.45246.03481-.68391.03307l-.09659,1.12811c62.39965,1.56492,122.83326-31.2157,166.98945-73.58553,35.84564-34.44865,57.44343-74.47915,76.6884-119.64338,26.61623-62.34962,56.75559-156.60061,130.60825-176.523-61.00658-27.63167-127.056,2.74742-170.26329,48.67431C176.63881,169.046,196.85615,214.925,139.7177,324.84258c-19.11054,36.82975-50.3815,88.5582-97.55267,88.98717a.1801.1801,0,0,0-.04916.35414C42.35689,414.18606,42.5853,414.15039,42.82632,414.15Z"/><path class="cls-2" d="M621.71213,85.10465c40.191,30.23638,34.07449,90.05829-.53383,125.84737,37.26438-9.04407,80.49215-21.40418,80.282-94.47156-.18446-64.24083-68.85466-104.49582-127.5676-102.30572C503.471,16.72725,432.91475,64.44747,389.8101,117.4202c-94.54421,116.19812-61.312,181.94471-237.59655,282.35052-34.07276,19.40638-67.57515,39.10686-94.24533,65.1636-24.80289,24.14464-45.005,59.31985-43.81336,94.93925,1.41787,43.04461,29.37974,76.72886,58.93569,105.34724.57646.62,1.3835-.40983.80573-1.03284-.529-.49249-1.00194-.97845-1.52924-1.53228l-.01871-.01828,1.64889-1.56187a.33542.33542,0,0,0,.34457-.31324C69.19848,625.49573,81.78,585.47654,103.866,557.95277c18.81948-23.46942,46.70174-37.3292,74.58618-46.86184,57.91764-19.84928,122.641-18.143,177.19514-47.53228,76.25029-41.10336,87.88776-125.00074,101.91025-206.16375,7.08194-40.66177,14.68073-80.71054,31.304-114.34041C513.43561,92.79133,576.52484,51.13675,621.71213,85.10465ZM21.28683,590.72034c7.57226,21.65435,21.37852,40.496,37.06642,57.53784C42.64316,631.21331,28.83734,612.37164,21.28683,590.72034Z"/><path class="cls-2" d="M614.74026,313.48746c17.91411-1.7855,25.57251-8.30708,25.57251-8.30708a196.66367,196.66367,0,0,1-26.86247-2.45244c-.0148-.3424,40.66482-225.90339-67.352-185.03235-18.69723,7.07455-60.13863,47.0015-72.4,139.83723S460.56121,432.69491,436.0385,479.113c-19.40769,36.73534-34.37992,54.83827-38.064,77.28139.74613-1.018,1.48356-2.04827,2.27581-2.99845,1.73459-2.17183,3.55359-4.23446,5.40216-6.21747,7.62621-7.82851,18.25434-16.69551,27.85747-19.27456a28.93376,28.93376,0,0,1,15.95546.31934c31.686,14.8243,107.19278,48.58382,134.54861,20.38048,16.31135-16.81167,3.20815-44.29063,8.57421-51.32558,5.36475-7.03321,21.65173-14.68509,21.22494-22.15467-.42375-7.44217-20.30522-12.53936-18.16471-15.66006,2.10918-3.14158,34.845-5.54486,30.75889-16.55759-6.77479-18.26086-17.23934-20.15121-14.34139-28.85071,4.43763-13.30855,28.64449-8.11521,41.23083-20.32958,15.83365-15.369-1.3352-16.53541-23.04959-47.67324C621.4028,333.3698,616.80158,323.31682,614.74026,313.48746Z"/></svg>